<svg xmlns="http://www.w3.org/2000/svg" width="28" height="28" viewBox="0 0 28 28">
  <g id="Group_6808" data-name="Group 6808" transform="translate(-1571 -1563)">
    <rect id="Rectangle_3139" data-name="Rectangle 3139" width="28" height="28" transform="translate(1571 1563)" fill="none"/>
    <path id="file-import-light" d="M14.159,21.979a.868.868,0,1,0,1.228,1.228L20.6,17.994a.868.868,0,0,0,0-1.228l-5.214-5.214a.869.869,0,0,0-1.228,1.228l3.732,3.73H.869a.869.869,0,0,0,0,1.738H17.89ZM26.791,6.805,21.007,1.021A3.478,3.478,0,0,0,18.547,0H10.427A3.477,3.477,0,0,0,6.952,3.476v9.559a.869.869,0,0,0,1.738,0V3.476a1.738,1.738,0,0,1,1.738-1.738h6.952V7.821a2.608,2.608,0,0,0,2.607,2.607h6.083v13.9a1.738,1.738,0,0,1-1.738,1.738h-13.9A1.738,1.738,0,0,1,8.69,24.331V21.724a.869.869,0,0,0-1.738,0v2.607a3.476,3.476,0,0,0,3.476,3.476h13.9a3.476,3.476,0,0,0,3.476-3.476V9.26A3.464,3.464,0,0,0,26.791,6.805ZM19.986,8.69a.872.872,0,0,1-.869-.869V1.851a1.712,1.712,0,0,1,.658.4l5.784,5.784a1.629,1.629,0,0,1,.4.658Z" transform="translate(1571 1563)" fill="#014426"/>
  </g>
</svg>
