<svg xmlns="http://www.w3.org/2000/svg" width="16" height="16" viewBox="0 0 16 16">
  <g id="Group_6765" data-name="Group 6765" transform="translate(16589 24456.387)">
    <rect id="Rectangle_3131" data-name="Rectangle 3131" width="16" height="16" transform="translate(-16589 -24456.387)" fill="none"/>
    <path id="file-signature-light" d="M15.094,3.66l-.67-.67a1.393,1.393,0,0,0-1.971,0L8.167,7.26a4.374,4.374,0,0,0-1.278,3.068.3.3,0,0,1-.252-.169,1.205,1.205,0,0,0-1.776-.38l-.374-1.12a.644.644,0,0,0-1.224,0l-.491,1.469a.3.3,0,0,1-.286.2H2.153a.431.431,0,1,0,0,.861h.334a1.162,1.162,0,0,0,1.1-.794l.286-.858L4.327,10.9a.43.43,0,0,0,.794.057l.209-.414a.3.3,0,0,1,.543.01,1.145,1.145,0,0,0,1.016.641l.861,0a4.75,4.75,0,0,0,3.07-1.278L15.094,5.63a1.4,1.4,0,0,0,0-1.97ZM10.212,9.311a3.472,3.472,0,0,1-2.462,1.02,3.555,3.555,0,0,1,1-2.461l3.245-3.227,1.42,1.419Zm4.273-4.289-.573.57L12.494,4.171l.568-.572a.535.535,0,0,1,.753,0l.67.67A.538.538,0,0,1,14.486,5.021Zm-4.68,7.034a.424.424,0,0,0-.409.272.891.891,0,0,1-.837.589H1.693a.86.86,0,0,1-.858-.861V1.722A.86.86,0,0,1,1.693.861H5.126V3.875A1.29,1.29,0,0,0,6.414,5.167H8.138a.422.422,0,0,0,.421-.423V4.728a.4.4,0,0,0-.4-.422H6.437a.43.43,0,0,1-.428-.431V.917a.845.845,0,0,1,.325.2L8.752,3.539a.42.42,0,0,0,.6,0l.009-.011a.424.424,0,0,0,0-.6L6.94.5A1.715,1.715,0,0,0,5.726,0H1.72A1.723,1.723,0,0,0,0,1.722V12.056a1.723,1.723,0,0,0,1.72,1.722H8.583A1.718,1.718,0,0,0,10.212,12.6.42.42,0,0,0,9.806,12.056Z" transform="translate(-16589 -24455.148)" fill="#0f8e54"/>
  </g>
</svg>
