<svg xmlns="http://www.w3.org/2000/svg" width="28" height="28" viewBox="0 0 28 28">
  <g id="Group_6794" data-name="Group 6794" transform="translate(-1162 -922)">
    <rect id="Rectangle_2857" data-name="Rectangle 2857" width="28" height="28" transform="translate(1162 922)" fill="none"/>
    <path id="ballot-light" d="M5.236,12.653a1.309,1.309,0,1,0,1.309,1.309A1.308,1.308,0,0,0,5.236,12.653Zm0,6.981a1.309,1.309,0,1,0,1.309,1.309A1.309,1.309,0,0,0,5.236,19.634Zm0-13.962A1.309,1.309,0,1,0,6.545,6.981,1.308,1.308,0,0,0,5.236,5.672ZM20.943,0H3.49A3.49,3.49,0,0,0,0,3.49V24.433a3.49,3.49,0,0,0,3.49,3.49H20.943a3.49,3.49,0,0,0,3.49-3.49V3.49A3.492,3.492,0,0,0,20.943,0Zm1.745,24.433a1.748,1.748,0,0,1-1.745,1.745H3.49a1.748,1.748,0,0,1-1.745-1.745V3.49A1.748,1.748,0,0,1,3.49,1.745H20.943A1.748,1.748,0,0,1,22.688,3.49ZM19.2,20.07H9.6a.873.873,0,0,0,0,1.745h9.6a.873.873,0,0,0,0-1.745Zm0-13.962H9.6a.873.873,0,0,0,0,1.745h9.6a.873.873,0,1,0,0-1.745Zm0,6.981H9.6a.873.873,0,0,0,0,1.745h9.6a.873.873,0,0,0,0-1.745Z" transform="translate(1163.745 922)" fill="#014426"/>
  </g>
</svg>
