<svg xmlns="http://www.w3.org/2000/svg" width="24" height="24" viewBox="0 0 24 24">
  <g id="Group_7063" data-name="Group 7063" transform="translate(24526 24859)">
    <rect id="Rectangle_3171" data-name="Rectangle 3171" width="24" height="24" transform="translate(-24526 -24859)" fill="none"/>
    <g id="Icon_ionic-ios-barcode" data-name="Icon ionic-ios-barcode" transform="translate(-24526 -24856.377)">
      <path id="Path_7056" data-name="Path 7056" d="M7.5,23.125H5.214A.225.225,0,0,1,4.99,22.9V8.545a.225.225,0,0,1,.224-.224H7.486a.826.826,0,0,0,.824-.785.737.737,0,0,0-.23-.561,1,1,0,0,0-.667-.224H4.384a.916.916,0,0,0-1.009.9V23.8a.869.869,0,0,0,.953.9H7.486a.755.755,0,0,0,.594-1.3A.831.831,0,0,0,7.5,23.125Z" transform="translate(-3.375 -6.75)" fill="#687178"/>
      <path id="Path_7057" data-name="Path 7057" d="M30.419,6.75H27.262a.786.786,0,0,0-.785,1.026.608.608,0,0,0,.045.107.794.794,0,0,0,.723.437h2.288a.225.225,0,0,1,.224.224V22.9a.225.225,0,0,1-.224.224H27.262a.817.817,0,0,0-.824.78.786.786,0,0,0,.23.583.772.772,0,0,0,.578.213h3.174a.875.875,0,0,0,.953-.92V7.647A.869.869,0,0,0,30.419,6.75Z" transform="translate(-8.043 -6.75)" fill="#687178"/>
      <path id="Path_7058" data-name="Path 7058" d="M8.414,12.375a.786.786,0,0,0-.785.78v7.408a.785.785,0,0,0,1.57,0V13.155A.786.786,0,0,0,8.414,12.375Z" transform="translate(-4.236 -7.889)" fill="#687178"/>
      <path id="Path_7059" data-name="Path 7059" d="M27.187,21.348a.786.786,0,0,0,.785-.78V13.155a.785.785,0,0,0-1.57,0v7.408A.787.787,0,0,0,27.187,21.348Z" transform="translate(-8.036 -7.889)" fill="#687178"/>
      <path id="Path_7060" data-name="Path 7060" d="M22.758,10.125a.8.8,0,0,0-.785.808V21.874a.785.785,0,1,0,1.57,0V10.933A.8.8,0,0,0,22.758,10.125Z" transform="translate(-7.139 -7.433)" fill="#687178"/>
      <path id="Path_7061" data-name="Path 7061" d="M12.844,10.125a.8.8,0,0,0-.785.808V21.874a.785.785,0,1,0,1.57,0V10.933A.8.8,0,0,0,12.844,10.125Z" transform="translate(-5.133 -7.433)" fill="#687178"/>
      <path id="Path_7062" data-name="Path 7062" d="M17.8,11.25a.793.793,0,0,0-.785.8v9.169a.785.785,0,1,0,1.57,0V12.046A.793.793,0,0,0,17.8,11.25Z" transform="translate(-6.136 -7.661)" fill="#687178"/>
    </g>
  </g>
</svg>
