<svg xmlns="http://www.w3.org/2000/svg" width="28" height="28" viewBox="0 0 28 28">
  <g id="Group_6636" data-name="Group 6636" transform="translate(-6129 1988)">
    <rect id="Rectangle_3125" data-name="Rectangle 3125" width="28" height="28" transform="translate(6129 -1988)" fill="none"/>
    <path id="book-light" d="M24.145,19.834V2.587A2.587,2.587,0,0,0,21.558,0H4.312A4.312,4.312,0,0,0,0,4.312V24.145a3.449,3.449,0,0,0,3.449,3.449H23.283a.862.862,0,1,0,0-1.725h-.862V22.262A2.584,2.584,0,0,0,24.145,19.834ZM1.725,4.312A2.587,2.587,0,0,1,4.312,1.725h.862V20.7H3.449a3.41,3.41,0,0,0-1.725.48ZM20.7,25.87H3.449a1.725,1.725,0,0,1,0-3.449H20.7Zm.862-5.174H6.9V1.725h14.66a.864.864,0,0,1,.862.862V19.834A.865.865,0,0,1,21.558,20.7ZM18.971,6.9H10.348a.862.862,0,1,0,0,1.725h8.623a.862.862,0,1,0,0-1.725Zm0,5.174H10.348a.862.862,0,1,0,0,1.725h8.623a.862.862,0,1,0,0-1.725Z" transform="translate(6130.725 -1988)" fill="#fff"/>
  </g>
</svg>
