<svg xmlns="http://www.w3.org/2000/svg" width="28" height="28" viewBox="0 0 28 28">
  <g id="Group_6801" data-name="Group 6801" transform="translate(-1192 -1310)">
    <rect id="Rectangle_3134" data-name="Rectangle 3134" width="27.924" height="28" transform="translate(1192 1310)" fill="none"/>
    <path id="store-light_2_" data-name="store-light (2)" d="M37.383,10.674a4.177,4.177,0,0,1-.669-.609,4.621,4.621,0,0,1-.664.6,4.485,4.485,0,0,1-2.692.893,4.253,4.253,0,0,1-2.677-.924A2.829,2.829,0,0,1,30,10.065a2.829,2.829,0,0,1-.679.573,4.339,4.339,0,0,1-5.353,0,2.712,2.712,0,0,1-.674-.573,2.851,2.851,0,0,1-.685.573,4.326,4.326,0,0,1-2.674.924,5.006,5.006,0,0,1-.624-.041A4.024,4.024,0,0,1,16.64,5.358L19.591.678A1.454,1.454,0,0,1,20.824,0H39.19a1.453,1.453,0,0,1,1.23.678l2.949,4.68a4.021,4.021,0,0,1-2.682,6.163,4.855,4.855,0,0,1-.623.041,4.5,4.5,0,0,1-2.682-.888Zm1.7-9.022H20.927L18.033,6.24a2.375,2.375,0,0,0,1.5,3.644,3.687,3.687,0,0,0,.408.026,2.942,2.942,0,0,0,2.133-.95,1.639,1.639,0,0,1,2.445,0,2.872,2.872,0,0,0,2.131.95,2.953,2.953,0,0,0,2.136-.95A1.644,1.644,0,0,1,30,8.413a1.714,1.714,0,0,1,1.22.547,2.972,2.972,0,0,0,4.267,0,1.639,1.639,0,0,1,2.44-.005,2.775,2.775,0,0,0,2.136.908,3.667,3.667,0,0,0,.412.021,2.373,2.373,0,0,0,1.5-3.644ZM20.124,14.039v4.129H39.89V14.039a.824.824,0,1,1,1.647,0v9.084a3.3,3.3,0,0,1-3.294,3.3H21.771a3.3,3.3,0,0,1-3.294-3.3V14.039a.824.824,0,1,1,1.647,0Zm0,9.084a1.648,1.648,0,0,0,1.647,1.652H38.242a1.648,1.648,0,0,0,1.647-1.652v-3.3H20.124Z" transform="translate(1175.994 1310.842)" fill="#fff"/>
  </g>
</svg>
