<svg xmlns="http://www.w3.org/2000/svg" xmlns:xlink="http://www.w3.org/1999/xlink" width="130" height="145" viewBox="0 0 130 145">
  <defs>
    <linearGradient id="linear-gradient" x1="0.5" x2="0.5" y2="0.969" gradientUnits="objectBoundingBox">
      <stop offset="0" stop-color="#03a44c"/>
      <stop offset="1" stop-color="#09252d"/>
    </linearGradient>
    <linearGradient id="linear-gradient-2" x1="0.791" y1="0.51" x2="-1.331" y2="0.481" gradientUnits="objectBoundingBox">
      <stop offset="0" stop-color="#fff"/>
      <stop offset="0.073" stop-color="#dedede"/>
      <stop offset="0.216" stop-color="#a4a4a4"/>
      <stop offset="0.36" stop-color="#727272"/>
      <stop offset="0.5" stop-color="#494949"/>
      <stop offset="0.636" stop-color="#292929"/>
      <stop offset="0.767" stop-color="#121212"/>
      <stop offset="0.891" stop-color="#050505"/>
      <stop offset="1"/>
    </linearGradient>
  </defs>
  <g id="Group_6226" data-name="Group 6226" transform="translate(-108 -433)">
    <rect id="Rectangle_2597" data-name="Rectangle 2597" width="130" height="145" transform="translate(108 433)" fill="none"/>
    <g id="KEEEN_Stronger_Logo" data-name="KEEEN (Stronger) Logo" transform="translate(122.497 440.702)">
      <g id="Group_2935" data-name="Group 2935" transform="translate(0.49)">
        <g id="Group_2933" data-name="Group 2933" transform="translate(0)">
          <g id="Group_2926" data-name="Group 2926" transform="translate(0 94.165)">
            <path id="Path_1516" data-name="Path 1516" d="M159.028,573.988h1.709l.29-.075,8.377-4.447,3.311-.136-.082.046L164.112,574l-.972.626.826.626,5.645,3.775a6.872,6.872,0,0,0,3.218.736,2.918,2.918,0,0,0,.433-.021l.147.093-.4,1.233-.218.089c-.222.018-.44.018-.658.018a7.978,7.978,0,0,1-4.88-1.484l-6.374-4.287-.293-.075h-1.566v5.7l-.182.093h-1.612l-.182-.093v-11.4l.182-.111,1.612-.182.182.075v4.583Z" transform="translate(-157.04 -569.326)" fill="#211e1f"/>
            <path id="Path_1517" data-name="Path 1517" d="M230.1,569.739v1.266l-.182.089h-9.757v3.085h7.3l.143.089-.654,1.266-.218.093h-6.578v4.251h9.8l.147.093-.361,1.262-.222.093H218.362l-.182-.093V569.739l.182-.089h11.555Z" transform="translate(-196.322 -569.532)" fill="#211e1f"/>
            <path id="Path_1518" data-name="Path 1518" d="M285.49,569.739v1.266l-.179.089h-9.76v3.085h7.3l.147.089-.654,1.266-.218.093h-6.578v4.251h9.792l.147.093-.361,1.262-.218.093H273.756l-.186-.093V569.739l.186-.089h11.555Z" transform="translate(-231.909 -569.532)" fill="#211e1f"/>
            <path id="Path_1519" data-name="Path 1519" d="M340.867,569.739v1.266l-.186.089h-9.76v3.085h7.308l.147.089-.658,1.266-.218.093h-6.578v4.251h9.8l.15.093-.368,1.262-.218.093H329.122l-.182-.093V569.739l.182-.089h11.558Z" transform="translate(-267.484 -569.532)" fill="#211e1f"/>
            <path id="Path_1520" data-name="Path 1520" d="M393.174,569.617l.182-.111,1.673-.182.179.075v11.616l-.179.093h-1.562l-.293-.093-12.463-9.227v9.227l-.186.093h-1.616l-.179-.093v-11.4l.179-.111,1.616-.182.257.075,12.391,9.156v-8.934Z" transform="translate(-299.473 -569.32)" fill="#211e1f"/>
          </g>
          <g id="Group_2932" data-name="Group 2932" transform="translate(4.008)">
            <g id="Group_2929" data-name="Group 2929">
              <path id="Path_1521" data-name="Path 1521" d="M212.251,394.054c-16.549-5.127-28.837-16.36-36.506-33.385-4.265-9.46-5.524-39-5.656-42.333L170,316.044l2.084-.93c15.927-7.107,36.681-7.465,40.685-7.465h.94c4,0,24.751.361,40.681,7.465l2.084.93-.093,2.292c-.129,3.336-1.394,32.87-5.656,42.333-7.672,17.025-19.953,28.258-36.506,33.385l-.987.311Z" transform="translate(-169.374 -307.035)" fill="#fff"/>
              <g id="Group_2928" data-name="Group 2928">
                <g id="Group_2927" data-name="Group 2927">
                  <path id="Path_1522" data-name="Path 1522" d="M212.585,307.16c3.976,0,24.618.357,40.435,7.411l1.705.758-.072,1.877c-.132,3.325-1.387,32.741-5.6,42.1-7.594,16.853-19.753,27.975-36.13,33.048l-.8.25-.812-.25c-16.378-5.073-28.533-16.192-36.127-33.048-4.215-9.356-5.47-38.776-5.6-42.1l-.072-1.877,1.7-.758c15.816-7.054,36.459-7.411,40.438-7.411h.937m0-1.226h-.94c-4.022,0-24.89.361-40.935,7.518l-2.46,1.1.107,2.706c.129,3.35,1.4,32.995,5.709,42.565,7.744,17.193,20.153,28.537,36.881,33.721l1.169.365,1.165-.365c16.728-5.18,29.137-16.528,36.881-33.721,4.312-9.571,5.581-39.212,5.71-42.562l.107-2.71-2.463-1.1c-16.042-7.157-36.913-7.518-40.932-7.518Z" transform="translate(-168.25 -305.93)" fill="#211e1f"/>
                </g>
              </g>
            </g>
            <g id="Group_2930" data-name="Group 2930" transform="translate(3.01 2.932)">
              <path id="Path_1523" data-name="Path 1523" d="M218.024,396.246c-15.891-4.948-27.7-15.784-35.1-32.215-3.993-8.863-5.356-39.2-5.47-41.872,15.648-6.918,36.127-7.268,40.084-7.268.315,0,.479,0,.479,0s.179,0,.49,0c3.961,0,24.443.35,40.088,7.268-.114,2.667-1.477,33.013-5.47,41.872-7.4,16.431-19.206,27.271-35.1,32.215Z" transform="translate(-177.171 -314.618)" fill="url(#linear-gradient)"/>
              <path id="Path_1524" data-name="Path 1524" d="M218.006,314.673c3.936,0,24.236.347,39.813,7.172-.157,3.647-1.544,32.945-5.438,41.582-7.354,16.328-19.08,27.107-34.854,32.047-15.773-4.937-27.5-15.72-34.854-32.047-3.9-8.641-5.28-37.939-5.441-41.582,15.577-6.825,35.873-7.172,39.809-7.172h.493s.164,0,.472,0m0-.543h-.969c-3.443,0-24.518.3-40.367,7.368,0,0,1.276,32.78,5.506,42.158,5.263,11.684,15.166,26.138,35.347,32.391,20.185-6.253,30.085-20.7,35.347-32.391,4.229-9.378,5.5-42.158,5.5-42.158-15.841-7.072-36.924-7.368-40.367-7.368Z" transform="translate(-176.67 -314.13)" fill="#211e1f"/>
            </g>
            <path id="Path_1525" data-name="Path 1525" d="M239.39,511.11a53.822,53.822,0,0,0,18.43,9.953,53.729,53.729,0,0,0,18.43-9.953c-5.352,2.6-11.662,5.037-18.43,5.037S244.738,513.706,239.39,511.11Z" transform="translate(-213.957 -437.755)" fill="#fff"/>
            <g id="Group_2931" data-name="Group 2931" transform="translate(8.133 4.782)">
              <path id="Path_1526" data-name="Path 1526" d="M214.263,321.35l-6.707.951c-5.749,9.331-9.538,22.841-9.538,22.841-.39-9-1.1-20.457-1.1-20.457-4.623,1.058-5.92,1.977-5.92,1.977.6,20.836,2.621,35.519,3.6,40.771a31.925,31.925,0,0,0,3.189,8.284,29.538,29.538,0,0,0,7.05,7.951s-2.567-4.337-4.322-14.912c-.972-5.849-1.562-10.972-1.562-10.972,6.739,19.938,11.855,29.985,11.855,29.985l7.079,3.178c-8.269-17.089-14.683-39.759-14.683-39.759C204.114,339.951,214.263,321.35,214.263,321.35Z" transform="translate(-191 -320.619)" fill="#fff"/>
              <path id="Path_1527" data-name="Path 1527" d="M335.791,324.936s.247,4.211-1.444,27.142c0,0-1.477-8.913-7.633-27.418-.175-.644-.35-1.284-.526-1.945l-5.42-.618-.122-.018v0l-.8-.093s4.39,12.878,4.215,31.6c-.107,11.233-3.536,23.689-9.867,37.8l8.409-3.808s7.172-13.156,8.026-35.562a77.506,77.506,0,0,1,1.963,9.774,20.315,20.315,0,0,1,0,6.235c-.475,4.376-2.835,14.082-2.835,14.082A25.656,25.656,0,0,0,336,374.784c1.594-2.857,1.648-4.991,2.009-6.939.983-5.252,3-19.931,3.6-40.771C341.611,327.074,340.414,325.994,335.791,324.936Z" transform="translate(-270.148 -321.03)" fill="#fff"/>
              <path id="Path_1528" data-name="Path 1528" d="M279.532,342.671a31.742,31.742,0,0,0-.465-4.751,96.208,96.208,0,0,0-25.991-.343c.265-2.706.576-4.43.576-4.43s3.99-.358,7.079-.411,8.166.164,8.166.164l.3-4.4s-5.581-.172-7.694-.132-7.415.175-7.415.175a29.177,29.177,0,0,1,1.076-4.415c9.138-1.4,21.551.365,21.551.365l-1.194-4.3a92.347,92.347,0,0,0-24.272-.157c-3.454,8.015-4.133,22.9-4.133,22.9A162.982,162.982,0,0,1,279.532,342.671Z" transform="translate(-227.056 -319.306)" fill="#fff"/>
              <path id="Path_1529" data-name="Path 1529" d="M260.723,471.729a16.184,16.184,0,0,1-1.448-4.312s3.793.454,5.906.49,6.45-.433,6.45-.433l.365-4.619a61.274,61.274,0,0,1-6.389.433,48.055,48.055,0,0,1-7.232-.619s-.415-1.841-1.019-4.615a117.305,117.305,0,0,0,20.571-.493,30.508,30.508,0,0,0,1.573-4.637,110.906,110.906,0,0,1-29.119-.354s3.45,14.637,6.678,22.72c0,0,7.629,2.774,15.069.261l1.87-4.069C273.99,471.482,269.864,473.131,260.723,471.729Z" transform="translate(-229.151 -404.926)" fill="#fff"/>
              <path id="Path_1530" data-name="Path 1530" d="M279.269,390.538l-.161-4.369a147.807,147.807,0,0,0-32.4.315c-.7,8.3,1.094,21.88,1.094,21.88,14.129,2.377,29.463.529,29.463.529a42.224,42.224,0,0,0,.983-4.716c-15.659,1.816-26.1-.125-26.1-.125a25.384,25.384,0,0,1-.551-4.687s6.274.254,9.356.311c3.421.064,8.012-.125,8.012-.125l.061-4.186s-6.146-.164-8.255-.125-9.542-.186-9.542-.186c-.122-2.377-.122-4.687-.122-4.687C260.242,388.964,279.269,390.538,279.269,390.538Z" transform="translate(-226.69 -361.781)" fill="#fff"/>
            </g>
            <path id="Path_1531" data-name="Path 1531" d="M285.523,307.67a302.01,302.01,0,0,0-2.245,40.76c.265,15.159.74,32,2.717,45.944l.987-.311c16.549-5.127,28.83-16.36,36.506-33.385,4.262-9.463,5.524-39,5.652-42.333l.089-2.292-2.081-.93C312.38,308.539,291.39,307.749,285.523,307.67Z" transform="translate(-242.128 -307.048)" opacity="0.5" fill="url(#linear-gradient-2)"/>
          </g>
        </g>
        <g id="Group_2934" data-name="Group 2934" transform="translate(97.008 92.074)">
          <path id="Path_1532" data-name="Path 1532" d="M429.924,563.47v.307h-.593v1.555h-.365v-1.555h-.586v-.307Zm2,1.863-.068-1.094c-.007-.143-.007-.325-.011-.526h-.021c-.046.168-.111.386-.154.554l-.336,1.04h-.383l-.332-1.069c-.036-.136-.089-.361-.129-.526h-.021c0,.172-.007.35-.011.526l-.068,1.094h-.357l.139-1.863h.551l.318.908c.047.147.079.282.125.472h0c.05-.164.089-.325.129-.458l.322-.922h.533l.143,1.863Z" transform="translate(-428.38 -563.47)" fill="#211e1f"/>
        </g>
      </g>
      <g id="Group_2936" data-name="Group 2936" transform="translate(0 111.262)">
        <path id="Path_1533" data-name="Path 1533" d="M157.736,618.38H155.67v-.98h5.291v.98h-2.066v5.255h-1.158Z" transform="translate(-155.67 -617.307)" fill="#028e4e"/>
        <path id="Path_1534" data-name="Path 1534" d="M178.441,617.39v6.235h-1.158v-2.671h-3.225v2.671H172.9V617.39h1.158v2.574h3.225V617.39Z" transform="translate(-166.74 -617.301)" fill="#028e4e"/>
        <path id="Path_1535" data-name="Path 1535" d="M197.766,622.663v.972H193.09V617.4h4.551v.972h-3.393v1.62h3.01v.955h-3.01v1.72h3.518Z" transform="translate(-179.712 -617.307)" fill="#028e4e"/>
        <path id="Path_1536" data-name="Path 1536" d="M216.245,623.356a2.919,2.919,0,0,1-1.065-.543l.4-.9a3.114,3.114,0,0,0,.94.493,3.4,3.4,0,0,0,1.119.193,1.943,1.943,0,0,0,1.037-.222.67.67,0,0,0,.343-.586.562.562,0,0,0-.193-.44,1.357,1.357,0,0,0-.486-.272c-.2-.064-.465-.139-.8-.222a8.88,8.88,0,0,1-1.155-.34,1.9,1.9,0,0,1-.758-.529,1.424,1.424,0,0,1-.315-.976,1.652,1.652,0,0,1,.282-.94,1.871,1.871,0,0,1,.847-.672,3.456,3.456,0,0,1,1.384-.25,4.416,4.416,0,0,1,1.123.143,3.143,3.143,0,0,1,.955.411l-.365.9a3.516,3.516,0,0,0-.854-.365,3.243,3.243,0,0,0-.865-.125,1.8,1.8,0,0,0-1.019.232.717.717,0,0,0-.332.615.549.549,0,0,0,.193.436,1.409,1.409,0,0,0,.486.268c.2.064.465.139.8.222a8.661,8.661,0,0,1,1.14.333,1.955,1.955,0,0,1,.761.529,1.392,1.392,0,0,1,.315.962,1.657,1.657,0,0,1-.279.937,1.924,1.924,0,0,1-.851.669,3.492,3.492,0,0,1-1.391.25A5.066,5.066,0,0,1,216.245,623.356Z" transform="translate(-193.904 -617.146)" fill="#028e4e"/>
        <path id="Path_1537" data-name="Path 1537" d="M231.906,618.38H229.84v-.98h5.291v.98h-2.066v5.255h-1.158Z" transform="translate(-203.323 -617.307)" fill="#028e4e"/>
        <path id="Path_1538" data-name="Path 1538" d="M251.159,623.619l-1.273-1.827a2.132,2.132,0,0,1-.24.007h-1.409v1.816H247.08V617.38h2.567a3.443,3.443,0,0,1,1.412.268,2.062,2.062,0,0,1,.922.765,2.324,2.324,0,0,1-.021,2.4,2.053,2.053,0,0,1-.983.758l1.434,2.049h-1.251Zm-.418-4.934a1.77,1.77,0,0,0-1.148-.322h-1.355v2.485h1.355a1.75,1.75,0,0,0,1.148-.325,1.27,1.27,0,0,0,0-1.838Z" transform="translate(-214.4 -617.294)" fill="#028e4e"/>
        <path id="Path_1539" data-name="Path 1539" d="M265.687,623.149a3.043,3.043,0,0,1-1.2-1.148,3.319,3.319,0,0,1,0-3.289,3.043,3.043,0,0,1,1.2-1.148,3.773,3.773,0,0,1,3.439,0,3.059,3.059,0,0,1,1.2,1.144,3.332,3.332,0,0,1,0,3.3,3.083,3.083,0,0,1-1.2,1.144,3.567,3.567,0,0,1-1.72.415A3.607,3.607,0,0,1,265.687,623.149Zm2.839-.883a2.01,2.01,0,0,0,.783-.783,2.36,2.36,0,0,0,0-2.252,2.01,2.01,0,0,0-.783-.783,2.4,2.4,0,0,0-2.245,0,2.01,2.01,0,0,0-.783.783,2.36,2.36,0,0,0,0,2.252,2.01,2.01,0,0,0,.783.783,2.266,2.266,0,0,0,1.123.282A2.294,2.294,0,0,0,268.526,622.266Z" transform="translate(-225.303 -617.146)" fill="#028e4e"/>
        <path id="Path_1540" data-name="Path 1540" d="M291.8,617.39v6.235h-.955l-3.439-4.222v4.222H286.26V617.39h.955l3.439,4.222V617.39Z" transform="translate(-239.572 -617.301)" fill="#028e4e"/>
        <path id="Path_1541" data-name="Path 1541" d="M309.9,620.279H311v2.485a3.494,3.494,0,0,1-1.123.586,4.344,4.344,0,0,1-1.319.2,3.566,3.566,0,0,1-1.72-.415,3.058,3.058,0,0,1-1.2-1.144,3.332,3.332,0,0,1,0-3.3,3.054,3.054,0,0,1,1.208-1.144,3.612,3.612,0,0,1,1.734-.415A3.808,3.808,0,0,1,310,617.4a2.765,2.765,0,0,1,1.076.758l-.729.711a2.34,2.34,0,0,0-1.72-.711,2.459,2.459,0,0,0-1.173.275,2.016,2.016,0,0,0-.8.776,2.227,2.227,0,0,0-.29,1.141,2.2,2.2,0,0,0,.29,1.123,2.08,2.08,0,0,0,.8.783,2.35,2.35,0,0,0,1.162.286,2.506,2.506,0,0,0,1.283-.322Z" transform="translate(-251.741 -617.14)" fill="#028e4e"/>
        <path id="Path_1542" data-name="Path 1542" d="M330.356,622.663v.972H325.68V617.4h4.551v.972h-3.393v1.62h3.01v.955h-3.01v1.72h3.518Z" transform="translate(-264.899 -617.307)" fill="#028e4e"/>
        <path id="Path_1543" data-name="Path 1543" d="M346.449,623.619l-1.273-1.827a2.131,2.131,0,0,1-.24.007h-1.409v1.816H342.37V617.38h2.567a3.443,3.443,0,0,1,1.412.268,2.062,2.062,0,0,1,.922.765,2.324,2.324,0,0,1-.021,2.4,2.053,2.053,0,0,1-.983.758l1.434,2.049h-1.251Zm-.418-4.934a1.77,1.77,0,0,0-1.148-.322h-1.355v2.485h1.355a1.75,1.75,0,0,0,1.148-.325,1.137,1.137,0,0,0,.393-.922A1.122,1.122,0,0,0,346.031,618.685Z" transform="translate(-275.622 -617.294)" fill="#028e4e"/>
        <path id="Path_1544" data-name="Path 1544" d="M367.055,623.356a2.919,2.919,0,0,1-1.065-.543l.4-.9a3.114,3.114,0,0,0,.94.493,3.4,3.4,0,0,0,1.119.193,1.943,1.943,0,0,0,1.037-.222.67.67,0,0,0,.343-.586.562.562,0,0,0-.193-.44,1.356,1.356,0,0,0-.486-.272c-.2-.064-.465-.139-.8-.222a8.881,8.881,0,0,1-1.155-.34,1.9,1.9,0,0,1-.758-.529,1.424,1.424,0,0,1-.315-.976,1.652,1.652,0,0,1,.282-.94,1.871,1.871,0,0,1,.847-.672,3.455,3.455,0,0,1,1.384-.25,4.416,4.416,0,0,1,1.123.143,3.143,3.143,0,0,1,.955.411l-.365.9a3.516,3.516,0,0,0-.854-.365,3.242,3.242,0,0,0-.865-.125,1.8,1.8,0,0,0-1.019.232.717.717,0,0,0-.332.615.549.549,0,0,0,.193.436,1.409,1.409,0,0,0,.486.268c.2.064.465.139.8.222a8.661,8.661,0,0,1,1.14.333,1.955,1.955,0,0,1,.762.529,1.392,1.392,0,0,1,.315.962,1.657,1.657,0,0,1-.279.937,1.924,1.924,0,0,1-.851.669,3.492,3.492,0,0,1-1.391.25A5.025,5.025,0,0,1,367.055,623.356Z" transform="translate(-290.798 -617.146)" fill="#028e4e"/>
        <path id="Path_1545" data-name="Path 1545" d="M383.13,617.39h1.158v6.235H383.13Z" transform="translate(-301.81 -617.301)" fill="#028e4e"/>
        <path id="Path_1546" data-name="Path 1546" d="M391.08,617.39H393.8a3.931,3.931,0,0,1,1.773.386,2.831,2.831,0,0,1,1.2,1.094,3.326,3.326,0,0,1,0,3.268,2.873,2.873,0,0,1-1.2,1.094,3.932,3.932,0,0,1-1.773.386H391.08Zm2.671,5.255a2.66,2.66,0,0,0,1.208-.265,1.883,1.883,0,0,0,.8-.747,2.222,2.222,0,0,0,.282-1.126,2.177,2.177,0,0,0-.282-1.126,1.862,1.862,0,0,0-.8-.747,2.649,2.649,0,0,0-1.208-.261h-1.516v4.276h1.516Z" transform="translate(-306.918 -617.301)" fill="#028e4e"/>
        <path id="Path_1547" data-name="Path 1547" d="M416.336,622.663v.972H411.66V617.4h4.551v.972h-3.393v1.62h3.01v.955h-3.01v1.72h3.518Z" transform="translate(-320.14 -617.307)" fill="#028e4e"/>
      </g>
      <g id="Group_2937" data-name="Group 2937" transform="translate(25.845 123.385)">
        <path id="Path_1548" data-name="Path 1548" d="M229.6,657.059a3.043,3.043,0,0,1-1.2-1.148,3.319,3.319,0,0,1,0-3.289,3.043,3.043,0,0,1,1.2-1.148,3.773,3.773,0,0,1,3.439,0,3.059,3.059,0,0,1,1.2,1.144,3.332,3.332,0,0,1,0,3.3,3.082,3.082,0,0,1-1.2,1.144,3.773,3.773,0,0,1-3.439,0Zm2.842-.883a2.01,2.01,0,0,0,.783-.783,2.36,2.36,0,0,0,0-2.252,2.01,2.01,0,0,0-.783-.783,2.4,2.4,0,0,0-2.245,0,2.01,2.01,0,0,0-.783.783,2.36,2.36,0,0,0,0,2.252,2.01,2.01,0,0,0,.783.783,2.266,2.266,0,0,0,1.123.282A2.229,2.229,0,0,0,232.44,656.176Z" transform="translate(-227.96 -651.057)" fill="#028e4e"/>
        <path id="Path_1549" data-name="Path 1549" d="M251.338,652.289v1.9h3.01v.98h-3.01v2.388H250.18V651.32h4.551v.972h-3.393Z" transform="translate(-242.236 -651.223)" fill="#028e4e"/>
        <path id="Path_1550" data-name="Path 1550" d="M276.385,654.189h1.094v2.485a3.492,3.492,0,0,1-1.123.586,4.344,4.344,0,0,1-1.319.2,3.567,3.567,0,0,1-1.72-.415,3.059,3.059,0,0,1-1.2-1.144,3.332,3.332,0,0,1,0-3.3,3.055,3.055,0,0,1,1.208-1.144,3.612,3.612,0,0,1,1.734-.415,3.809,3.809,0,0,1,1.426.257,2.766,2.766,0,0,1,1.076.758l-.729.711a2.34,2.34,0,0,0-1.72-.711,2.458,2.458,0,0,0-1.173.275,2.015,2.015,0,0,0-.8.776,2.226,2.226,0,0,0-.29,1.14,2.2,2.2,0,0,0,.29,1.123,2.081,2.081,0,0,0,.8.783,2.351,2.351,0,0,0,1.162.286,2.506,2.506,0,0,0,1.283-.322Z" transform="translate(-256.05 -651.05)" fill="#028e4e"/>
        <path id="Path_1551" data-name="Path 1551" d="M296.239,657.539l-1.273-1.827a2.132,2.132,0,0,1-.24.007h-1.409v1.816H292.16V651.3h2.567a3.444,3.444,0,0,1,1.412.268,2.063,2.063,0,0,1,.922.765,2.324,2.324,0,0,1-.021,2.4,2.054,2.054,0,0,1-.983.758l1.434,2.048h-1.251Zm-.418-4.934a1.77,1.77,0,0,0-1.148-.322h-1.355v2.485h1.355a1.75,1.75,0,0,0,1.148-.325,1.137,1.137,0,0,0,.393-.922A1.117,1.117,0,0,0,295.821,652.6Z" transform="translate(-269.208 -651.211)" fill="#028e4e"/>
        <path id="Path_1552" data-name="Path 1552" d="M315.046,656.583v.972H310.37V651.32h4.551v.972h-3.393v1.62h3.01v.955h-3.01v1.72h3.518Z" transform="translate(-280.907 -651.223)" fill="#028e4e"/>
        <path id="Path_1553" data-name="Path 1553" d="M331.736,656.583v.972H327.06V651.32h4.551v.972h-3.393v1.62h3.01v.955h-3.01v1.72h3.518Z" transform="translate(-291.63 -651.223)" fill="#028e4e"/>
        <path id="Path_1554" data-name="Path 1554" d="M349.291,651.31v6.235h-.955l-3.439-4.222v4.222H343.75V651.31h.955l3.439,4.222V651.31Z" transform="translate(-302.354 -651.217)" fill="#028e4e"/>
      </g>
    </g>
  </g>
</svg>
