<svg xmlns="http://www.w3.org/2000/svg" width="248" height="248" viewBox="0 0 248 248">
  <g id="Group_6249" data-name="Group 6249" transform="translate(-3602 15593)">
    <rect id="Rectangle_2803" data-name="Rectangle 2803" width="248" height="248" transform="translate(3602 -15593)" fill="none"/>
    <g id="Questions-amico" transform="translate(3579.09 -15618.873)">
      <g id="freepik--Floor--inject-14" transform="translate(24.902 139.444)">
        <ellipse id="freepik--floor--inject-14-2" data-name="freepik--floor--inject-14" cx="120.573" cy="65.571" rx="120.573" ry="65.571" transform="translate(0 0)" fill="#f9f9f9"/>
      </g>
      <g id="freepik--Shadows--inject-14" transform="translate(43.581 180.598)">
        <ellipse id="freepik--Shadow--inject-14" cx="18.167" cy="10.492" rx="18.167" ry="10.492" transform="translate(83.727)" fill="#e0e0e0"/>
        <ellipse id="freepik--shadow--inject-14-2" data-name="freepik--shadow--inject-14" cx="28.719" cy="16.58" rx="28.719" ry="16.58" transform="translate(140.926 15.862)" fill="#e0e0e0"/>
        <ellipse id="freepik--shadow--inject-14-3" data-name="freepik--shadow--inject-14" cx="28.719" cy="16.58" rx="28.719" ry="16.58" transform="translate(0 17.654)" fill="#e0e0e0"/>
      </g>
      <g id="freepik--Plants--inject-14" transform="translate(22.91 160.892)">
        <g id="freepik--plants--inject-14-2" data-name="freepik--plants--inject-14" transform="translate(226.607 5.909)">
          <path id="Path_6155" data-name="Path 6155" d="M449.371,318.885l-5.424-2.218a115.705,115.705,0,0,1-1.177-14.151c0-8.862,5.521-19.7,12.527-17.886s-1.975,11.728-3.433,19.387S449.371,318.885,449.371,318.885Z" transform="translate(-442.77 -284.428)" fill="#ba68c8"/>
          <path id="Path_6156" data-name="Path 6156" d="M449.371,318.885l-5.424-2.218a115.705,115.705,0,0,1-1.177-14.151c0-8.862,5.521-19.7,12.527-17.886s-1.975,11.728-3.433,19.387S449.371,318.885,449.371,318.885Z" transform="translate(-442.77 -284.428)" fill="#028e4e"/>
          <path id="Path_6157" data-name="Path 6157" d="M449.5,320.611h0a.227.227,0,0,0,.194-.254c-2.585-19.43,6.153-30.224,6.239-30.316a.228.228,0,1,0-.351-.291c-.086.108-8.954,11.032-6.342,30.667a.227.227,0,0,0,.259.194Z" transform="translate(-445.526 -286.84)" fill="#fff"/>
          <path id="Path_6158" data-name="Path 6158" d="M457.272,329.252l-2.834-1.285a30.112,30.112,0,0,1,.378-13.175c1.819-6.984,7.875-11.291,10.924-10.579,3.729.869,4.091,4.318,3,6.72C467.44,313.778,458.47,321.48,457.272,329.252Z" transform="translate(-447.886 -293.5)" fill="#ba68c8"/>
          <path id="Path_6159" data-name="Path 6159" d="M457.272,329.252l-2.834-1.285a30.112,30.112,0,0,1,.378-13.175c1.819-6.984,7.875-11.291,10.924-10.579,3.729.869,4.091,4.318,3,6.72C467.44,313.778,458.47,321.48,457.272,329.252Z" transform="translate(-447.886 -293.5)" fill="#3aa775"/>
          <path id="Path_6160" data-name="Path 6160" d="M457.105,330.616h0a.232.232,0,0,0,.205-.254c-1.274-12.327,9.483-21.8,9.6-21.9a.237.237,0,0,0,0-.324.227.227,0,0,0-.324,0c-.113.1-11.043,9.715-9.753,22.29a.237.237,0,0,0,.275.184Z" transform="translate(-449.193 -295.312)" fill="#fff"/>
        </g>
        <g id="freepik--plants--inject-14-3" data-name="freepik--plants--inject-14">
          <path id="Path_6161" data-name="Path 6161" d="M46.623,308.88l3.724-2.126s1.781-9.828.448-18.28c-1.878-11.874-9.969-15.981-12.9-14.8s-3.627,4.7,1.679,11.566C42.7,289.288,46.726,297.853,46.623,308.88Z" transform="translate(-28.764 -273.479)" fill="#ba68c8"/>
          <g id="Group_6243" data-name="Group 6243" transform="translate(6.864)">
            <path id="Path_6162" data-name="Path 6162" d="M46.623,308.88l3.724-2.126s1.781-9.828.448-18.28c-1.878-11.874-9.969-15.981-12.9-14.8s-3.627,4.7,1.679,11.566C42.7,289.288,46.726,297.853,46.623,308.88Z" transform="translate(-35.628 -273.479)" fill="#028e4e"/>
          </g>
          <path id="Path_6163" data-name="Path 6163" d="M51.391,305.593h-.038a.259.259,0,0,1-.221-.3c1.533-11.124-2.936-23.311-7.966-28.222a.27.27,0,1,1,.372-.383c5.117,4.976,9.677,17.39,8.123,28.67A.27.27,0,0,1,51.391,305.593Z" transform="translate(-32.182 -274.909)" fill="#fff"/>
          <path id="Path_6164" data-name="Path 6164" d="M30.45,323.526c-.588.335-1.8-.4-2.261-.712a5.678,5.678,0,0,1-1.867-2.159,5.251,5.251,0,0,1-.464-3.157,12.226,12.226,0,0,1,.4-1.679l.47-1.619a4.183,4.183,0,0,0,.237-1.619,4.279,4.279,0,0,0-2.029-2.569,4.08,4.08,0,0,1-2.024-3.071,4.674,4.674,0,0,1,1.182-2.807c.637-.815,1.4-1.533,1.981-2.391a3.276,3.276,0,0,0,.664-2.1,3.438,3.438,0,0,0-.453-1.3,18.059,18.059,0,0,1-1.425-2.612,2.625,2.625,0,0,1,.453-2.78,3.06,3.06,0,0,1,2.3-.572,5.257,5.257,0,0,1,2.159.756c2.132,1.182,3.346,3.708,5.608,4.62a22.131,22.131,0,0,0,2.731.664,3.368,3.368,0,0,1,2.256,1.549c.831,1.657-.707,3.7-.124,5.457.54,1.554,2.029,2.159,2.877,3.557a3.314,3.314,0,0,1,.4,2.035,9.855,9.855,0,0,1-.858,3.443,24.475,24.475,0,0,1-1.894,3.1C40.737,317.6,30.542,323.461,30.45,323.526Z" transform="translate(-22.91 -282.161)" fill="#3aa775"/>
          <path id="Path_6165" data-name="Path 6165" d="M40.852,321.766h0a.27.27,0,0,1-.259-.281c.437-10.525-4.523-22.129-8.128-25.529a.264.264,0,0,1,0-.372.27.27,0,0,1,.378,0c3.654,3.427,8.722,15.247,8.274,25.928A.264.264,0,0,1,40.852,321.766Z" transform="translate(-27.272 -283.618)" fill="#fff"/>
          <path id="Path_6166" data-name="Path 6166" d="M38.338,319.6h-.081a35.907,35.907,0,0,0-7.637-1.236.27.27,0,0,1,0-.54,36.361,36.361,0,0,1,7.772,1.258.264.264,0,0,1,.178.329A.27.27,0,0,1,38.338,319.6Z" transform="translate(-26.334 -293.888)" fill="#fff"/>
        </g>
      </g>
      <g id="freepik--character-2--inject-14" transform="translate(174.059 61.023)">
        <g id="freepik--Character--inject-14" transform="translate(0 27.972)">
          <path id="Path_6167" data-name="Path 6167" d="M396.431,354.623l-5.03-.578-1.3-10.136,6.147,1.824Z" transform="translate(-343.069 -234.001)" fill="#ffbda7"/>
          <path id="Path_6168" data-name="Path 6168" d="M381.332,372.756a1.517,1.517,0,0,0,.086,1.231,5.884,5.884,0,0,0,3.832,1.5,7.648,7.648,0,0,0,4.5-.788,3.146,3.146,0,0,0,1.684-2.461,6.693,6.693,0,0,1,.48-2.823c.48-.793,1.177-1.565,1.333-1.965a4.023,4.023,0,0,0,0-2.1Z" transform="translate(-338.991 -243.865)" fill="#263238"/>
          <path id="Path_6169" data-name="Path 6169" d="M386.342,360.677a4.192,4.192,0,0,1-.211,1.15,10.558,10.558,0,0,1-1.112,2.272,9.305,9.305,0,0,1-.756,1.079c-.54.653-1.231,1.193-1.813,1.819a3.724,3.724,0,0,0-1.123,2.224c-.076,1.425,2.191,1.911,3.384,2.121a8.737,8.737,0,0,0,3.864-.194,3.546,3.546,0,0,0,2.6-2.833c.07-.4.043-.8.092-1.2a5.587,5.587,0,0,1,1.106-2.494,7.387,7.387,0,0,0,.847-1.355,4.258,4.258,0,0,0-.162-2.747c-.205-.761-.453-1.619-.723-1.56,0,.394,0,.448-.264.712s-.367.847-.745,1.144a5.453,5.453,0,0,0,.264-1.015.567.567,0,0,0-.081-.4,1.079,1.079,0,0,0-.437-.237,9,9,0,0,0-1.727-.394,10.609,10.609,0,0,0-2.413,0,.718.718,0,0,0-.426.248.88.88,0,0,0-.151.486C386.332,359.71,386.353,360.3,386.342,360.677Z" transform="translate(-339.031 -240.81)" fill="#455a64"/>
          <path id="Path_6170" data-name="Path 6170" d="M387.791,368.292a6.829,6.829,0,0,1,3.093-.335,3.918,3.918,0,0,1,1.846.648.421.421,0,0,0,.54-.043h0a.4.4,0,0,0-.043-.6,4.01,4.01,0,0,0-2.073-.772,10.721,10.721,0,0,0-2.8.162S387.635,367.817,387.791,368.292Z" transform="translate(-341.996 -244.701)" fill="#f5f5f5"/>
          <path id="Path_6171" data-name="Path 6171" d="M385.55,371.073a8.255,8.255,0,0,1,3.352-.27,3.686,3.686,0,0,1,1.792.685.426.426,0,0,0,.54-.043h0a.4.4,0,0,0-.043-.6,7.7,7.7,0,0,0-2.844-.831c-1.619-.113-2.013.21-2.013.21a1.344,1.344,0,0,0-.783.853Z" transform="translate(-340.975 -246.003)" fill="#f5f5f5"/>
          <path id="Path_6172" data-name="Path 6172" d="M392.585,364.337a7.86,7.86,0,0,0-2.731.167c-.281.157-.47.6-.286.718a7.675,7.675,0,0,1,2.5-.248,5.343,5.343,0,0,1,1.727.475c.14.065.3.146.443.227a.372.372,0,0,0,.54-.162h0a.356.356,0,0,0-.135-.459A5.155,5.155,0,0,0,392.585,364.337Z" transform="translate(-342.79 -243.38)" fill="#f5f5f5"/>
          <path id="Path_6173" data-name="Path 6173" d="M363,345.84l-4.782-1.333V334.84l5.932.259Z" transform="translate(-328.395 -229.826)" fill="#ffbda7"/>
          <path id="Path_6174" data-name="Path 6174" d="M339.427,362.113a1.765,1.765,0,0,0,.07,1.268c.178.367,2.116,1.463,4.728,1.285a10.914,10.914,0,0,0,5.4-1.889,6.2,6.2,0,0,1,3.325-.853c1.3-.07,2.99-.723,3.276-1.328a2.888,2.888,0,0,0-.043-1.646Z" transform="translate(-319.706 -240.924)" fill="#263238"/>
          <path id="Path_6175" data-name="Path 6175" d="M349.9,349.468l-.205-.043a.75.75,0,0,0-.345,0,.728.728,0,0,0-.324.216,6.412,6.412,0,0,0-.664,1.052,7.847,7.847,0,0,1-2.952,2.3c-.853.459-1.689.815-2.569,1.209a21.379,21.379,0,0,0-2.8,1.128,1.884,1.884,0,0,0,0,3.109,9.2,9.2,0,0,0,6.439.448c1.511-.432,3.2-2.046,5.181-2.2,1.263-.1,3.654-.453,4.469-1.414.3-.426-.1-1.776-.432-2.941-.362-1.274-.7-3.238-1.123-3.147a.572.572,0,0,1-.221.475,6.744,6.744,0,0,1-.54.41,3.321,3.321,0,0,0-.7,1.009.761.761,0,0,1-.356.389c-.216.076-.372-.054-.54-.14a1.079,1.079,0,0,0-.756-.054,5.073,5.073,0,0,1,.135-.75.4.4,0,0,0,0-.237.356.356,0,0,0-.162-.184A4.01,4.01,0,0,0,349.9,349.468Z" transform="translate(-319.65 -236.429)" fill="#455a64"/>
          <path id="Path_6176" data-name="Path 6176" d="M352.9,354.392a1.166,1.166,0,0,1,.934-.626,3.4,3.4,0,0,1,2.218.837.47.47,0,0,1-.065.777h0a.464.464,0,0,1-.54-.059,3.616,3.616,0,0,0-2.547-.928Z" transform="translate(-325.946 -238.53)" fill="#f5f5f5"/>
          <path id="Path_6177" data-name="Path 6177" d="M349.59,356.3a1.355,1.355,0,0,1,1.106-.572,4.2,4.2,0,0,1,2.434.912.459.459,0,0,1-.065.75h0a.448.448,0,0,1-.54-.059,3.616,3.616,0,0,0-2.936-1.031Z" transform="translate(-324.423 -239.441)" fill="#f5f5f5"/>
          <path id="Path_6178" data-name="Path 6178" d="M346,358.013a1.5,1.5,0,0,1,1.144-.513,4.064,4.064,0,0,1,2.332.918.464.464,0,0,1-.065.756h0a.448.448,0,0,1-.54-.059A3.449,3.449,0,0,0,346,358.013Z" transform="translate(-322.771 -240.256)" fill="#f5f5f5"/>
          <path id="Path_6179" data-name="Path 6179" d="M380.258,233.813c.329,9.969.351,31.557.351,31.557.1,1.241.211,3.443.3,7.912.135,6.477.448,22.469.448,22.469a8.188,8.188,0,0,1-5.937.27s-3.951-22.485-4.76-28.9c-.707-5.6-2.062-18.723-2.062-18.723l-1.867,16.661s0,4.318-.254,8.128c-.21,2.968-3.093,18.259-3.093,18.259a9.909,9.909,0,0,1-5.716-.189s-.259-23.472-.313-26.2c-.059-3.1.739-36.593.739-36.593Z" transform="translate(-327.997 -180.866)" fill="#455a64"/>
          <path id="Path_6180" data-name="Path 6180" d="M372.125,258.068l-.712-5.651a19.748,19.748,0,0,1-6.423-2.947s1.371,1.835,5.4,3.778l.907,5.127-1.025,16.354Z" transform="translate(-331.511 -190.532)" fill="#37474f"/>
          <path id="Path_6181" data-name="Path 6181" d="M332.807,184.13c-1.457,1.911-8.954,12.2-8.954,12.2l-6.925-5.365c-1.619-1.268-2.1-2.931-3.114-4.08s-2.126-1.425-3.265-2.386-1.576-1.689-1.965-.869.869,2.251,1.079,2.6,1.511,1.171-.205,1.079-5.019-2.051-5.818-2.413-.82.626-.443,1.274.189,2.45.631,3.611a4.841,4.841,0,0,0,2.8,2.655c1.473.734,5.057,1.193,6.223,1.927h0c2.558,2.623,7.383,7.518,8.6,8.425,1.678,1.247,3.3,2.4,5.872-.076s10.012-12.171,10.012-12.171l1.538-9.224A6.444,6.444,0,0,0,332.807,184.13Z" transform="translate(-302.96 -159.157)" fill="#ffbda7"/>
          <path id="Path_6182" data-name="Path 6182" d="M341.67,208.666a6.168,6.168,0,0,1,2.029,2.985,4.857,4.857,0,0,0-1.619-3.541Z" transform="translate(-320.777 -171.495)" fill="#9a4a4d"/>
          <path id="Path_6183" data-name="Path 6183" d="M358.923,180.9s-3.562-.043-5.127,1.052-2.726,2.7-5.268,6.4c-2.229,3.238-3.308,4.793-3.308,4.793a11.949,11.949,0,0,0,6.05,4.62l6.649-8.236Z" transform="translate(-322.411 -158.971)" fill="#b9291e"/>
          <path id="Path_6184" data-name="Path 6184" d="M371.845,180.56c2.019.194,4.857.216,6.854.421,1.387.572,4.064,2.9,3.864,4.566-.745,6.212-2.251,16.4-2.251,16.4l.5,10.794c-2.78,2.774-15.787,3.859-22.49-.578,0,0,.216-19.387.68-22.668.826-5.878,1.549-8.058,4.582-8.576A54.488,54.488,0,0,1,371.845,180.56Z" transform="translate(-328.441 -158.803)" fill="#f25e54"/>
          <path id="Path_6185" data-name="Path 6185" d="M399.391,184.42c1.457,1.911,8.959,12.2,8.959,12.2l6.93-5.365c1.619-1.274,2.1-2.936,3.114-4.08s2.127-1.425,3.265-2.386,1.576-1.689,1.965-.874-.869,2.256-1.079,2.6-1.511,1.171.205,1.079,5.014-2.056,5.818-2.418.815.626.443,1.274-.194,2.456-.631,3.616a4.841,4.841,0,0,1-2.8,2.655c-1.473.734-5.057,1.193-6.223,1.927h0c-2.558,2.618-7.383,7.518-8.6,8.42-1.679,1.247-3.3,2.4-5.872-.07s-8.441-10.147-8.441-10.147L393.33,181.6A6.427,6.427,0,0,1,399.391,184.42Z" transform="translate(-344.556 -159.29)" fill="#ffbda7"/>
          <path id="Path_6186" data-name="Path 6186" d="M419.429,208.951a6.169,6.169,0,0,0-2.029,2.985,4.857,4.857,0,0,1,1.619-3.546Z" transform="translate(-355.634 -171.624)" fill="#9a4a4d"/>
          <path id="Path_6187" data-name="Path 6187" d="M392.116,181.1s3.2-.2,4.884,1.079c1.517,1.166,2.7,2.7,5.268,6.4,2.229,3.238,3.309,4.793,3.309,4.793a11.982,11.982,0,0,1-6.056,4.62l-4.528-5.581C392.634,189.417,390.3,184.868,392.116,181.1Z" transform="translate(-343.698 -159.058)" fill="#b9291e"/>
          <path id="Path_6188" data-name="Path 6188" d="M373.632,148.207A6.261,6.261,0,1,1,367.317,142a6.261,6.261,0,0,1,6.315,6.207Z" transform="translate(-329.725 -141.066)" fill="#263238"/>
          <path id="Path_6189" data-name="Path 6189" d="M390.612,161.68a54.122,54.122,0,0,1-1.376,5.559,2.159,2.159,0,0,1-1.236,1.02l.038-3.357Z" transform="translate(-342.102 -150.124)" fill="#263238"/>
          <path id="Path_6190" data-name="Path 6190" d="M389.878,149.034a2.337,2.337,0,0,1,1.948.664c.842.847.4,3.524-.615,6.153l-1.911.237Z" transform="translate(-342.701 -144.295)" fill="#263238"/>
          <path id="Path_6191" data-name="Path 6191" d="M376.629,153.662c.383.227.923-.54,1.392-1.015a1.675,1.675,0,0,1,2.79.426c.788,1.614-.648,3.843-1.857,4.231-2.089.68-2.418-.664-2.418-.664l-.086,7.783h0c-2.569,3.362-9.8,3.141-6.817-.367v-2.3a13.235,13.235,0,0,1-2.817.167c-1.544-.221-2.521-1.43-3.006-3.093-.772-2.666-1.079-4.825-.486-10.1.648-5.775,7.356-5.894,11-3.643S376.629,153.662,376.629,153.662Z" transform="translate(-330.601 -141.863)" fill="#ffbda7"/>
          <path id="Path_6192" data-name="Path 6192" d="M375.9,152.71c.189,0,.912-1.22,1.387-1.657.653-.61-.243-6.045-.243-6.045a2.645,2.645,0,0,0-.486-2.941c-.912-.988-2.186-2.191-6.288-1.673-2.931.372-6.11,1.317-8.695.076a4.388,4.388,0,0,0,1.565,4.642,8.79,8.79,0,0,0,3.395.869,36.371,36.371,0,0,0,6.79-.189c.712-.1.869.583,1.268,2.467C374.946,149.9,375.254,152.7,375.9,152.71Z" transform="translate(-329.869 -140.269)" fill="#263238"/>
          <path id="Path_6193" data-name="Path 6193" d="M390.24,148.137l2.3-1.263a1.274,1.274,0,0,0-1.759-.567,1.382,1.382,0,0,0-.545,1.83Z" transform="translate(-343.063 -142.976)" fill="#263238"/>
          <path id="Path_6194" data-name="Path 6194" d="M375.25,174.548a26.394,26.394,0,0,0,4.625-1.371,3.951,3.951,0,0,0,1.646-1.657,5.4,5.4,0,0,1-.923,1.943c-.869,1.133-5.338,2-5.338,2Z" transform="translate(-336.234 -154.653)" fill="#9a4a4d"/>
          <path id="Path_6195" data-name="Path 6195" d="M374.74,160.489a.7.7,0,0,0,.691.707.718.718,0,1,0-.691-.707Z" transform="translate(-335.999 -149.241)" fill="#263238"/>
          <path id="Path_6196" data-name="Path 6196" d="M377.163,156.126l-1.533-.7a.885.885,0,0,0,.432,1.144.826.826,0,0,0,1.1-.448Z" transform="translate(-336.376 -147.247)" fill="#263238"/>
          <path id="Path_6197" data-name="Path 6197" d="M365.243,155.15,363.91,156.2a.8.8,0,0,0,1.166.167.9.9,0,0,0,.167-1.214Z" transform="translate(-331.014 -147.119)" fill="#263238"/>
          <path id="Path_6198" data-name="Path 6198" d="M364.89,160.211a.658.658,0,1,0,.653-.691.669.669,0,0,0-.653.691Z" transform="translate(-331.465 -149.13)" fill="#263238"/>
          <path id="Path_6199" data-name="Path 6199" d="M369.361,159.77l-.389,4.129-2.132-.82Z" transform="translate(-332.363 -149.245)" fill="#9a4a4d"/>
          <path id="Path_6200" data-name="Path 6200" d="M373.68,169.728a.664.664,0,1,0,.664-.658A.664.664,0,0,0,373.68,169.728Z" transform="translate(-335.511 -153.526)" fill="#9a4a4d"/>
        </g>
        <g id="freepik--question-marks--inject-14" transform="translate(44.961)">
          <path id="Path_6201" data-name="Path 6201" d="M396.323,88.646a11.275,11.275,0,0,1,2.947,1.106,8.458,8.458,0,0,1,2.342,1.862,6.676,6.676,0,0,1,1.382,2.526,5.937,5.937,0,0,1,.065,3.033,6.126,6.126,0,0,1-.928,2.218,7.248,7.248,0,0,1-1.452,1.527,11.833,11.833,0,0,1-1.732,1.117l-1.716.907a9.407,9.407,0,0,0-1.468.95,2.779,2.779,0,0,0-.918,1.225,1.279,1.279,0,0,1-.437.54.772.772,0,0,1-.658.135l-2.526-.54a.934.934,0,0,1-.594-.41.766.766,0,0,1-.108-.685A6.018,6.018,0,0,1,391.6,102a8.5,8.5,0,0,1,1.554-1.5,12.162,12.162,0,0,1,1.776-1.079c.615-.308,1.187-.6,1.716-.9A7.5,7.5,0,0,0,398,97.605a2.159,2.159,0,0,0,.718-1.187,2.574,2.574,0,0,0-.6-2.31,4.631,4.631,0,0,0-2.65-1.441,4.46,4.46,0,0,0-4.782,1.905,1.744,1.744,0,0,1-.47.47.847.847,0,0,1-.653.049l-2.7-.6a.729.729,0,0,1-.47-.313.685.685,0,0,1-.1-.577,5.278,5.278,0,0,1,1.241-2.218,8.354,8.354,0,0,1,2.315-1.792,9.947,9.947,0,0,1,3.049-1.015,8.862,8.862,0,0,1,3.427.07Zm-2.85,19.182a.88.88,0,0,1,.572.41.891.891,0,0,1,.124.691l-.648,2.925a.923.923,0,0,1-1.079.7l-2.86-.631a.891.891,0,0,1-.572-.4.874.874,0,0,1-.124-.691l.648-2.931a.923.923,0,0,1,1.079-.7Z" transform="translate(-386.265 -88.442)" fill="#3aa775"/>
          <path id="Path_6202" data-name="Path 6202" d="M416.187,139.724a7.555,7.555,0,0,1,2.159-.043,5.834,5.834,0,0,1,1.981.594,4.609,4.609,0,0,1,1.522,1.252,4.047,4.047,0,0,1,.815,1.927,4.129,4.129,0,0,1,0,1.657,4.972,4.972,0,0,1-.54,1.355,8.415,8.415,0,0,1-.82,1.155l-.869,1.025a7.04,7.04,0,0,0-.7.982,1.932,1.932,0,0,0-.27,1.02.891.891,0,0,1-.14.475.54.54,0,0,1-.383.254l-1.765.291a.664.664,0,0,1-.486-.113.54.54,0,0,1-.243-.41,4.016,4.016,0,0,1,.124-1.652,5.484,5.484,0,0,1,.61-1.366,8.383,8.383,0,0,1,.858-1.15c.318-.356.6-.691.874-1.015a5.278,5.278,0,0,0,.632-.934,1.49,1.49,0,0,0,.156-.945,1.776,1.776,0,0,0-.982-1.328,3.163,3.163,0,0,0-2.062-.248,3.093,3.093,0,0,0-2.58,2.445,1.263,1.263,0,0,1-.183.426.6.6,0,0,1-.4.194l-1.878.308a.539.539,0,0,1-.383-.081.48.48,0,0,1-.216-.345,3.643,3.643,0,0,1,.232-1.738,5.656,5.656,0,0,1,1.026-1.743,6.9,6.9,0,0,1,1.695-1.43A6.141,6.141,0,0,1,416.187,139.724Zm3.082,13.056a.636.636,0,0,1,.729.524l.335,2.04a.626.626,0,0,1-.113.475.6.6,0,0,1-.41.254l-2,.329a.621.621,0,0,1-.47-.113.6.6,0,0,1-.259-.41l-.335-2.046a.642.642,0,0,1,.54-.729Z" transform="translate(-397.645 -112)" fill="#ba68c8"/>
          <g id="Group_6244" data-name="Group 6244" transform="translate(13.344 27.624)">
            <path id="Path_6203" data-name="Path 6203" d="M416.187,139.724a7.555,7.555,0,0,1,2.159-.043,5.834,5.834,0,0,1,1.981.594,4.609,4.609,0,0,1,1.522,1.252,4.047,4.047,0,0,1,.815,1.927,4.129,4.129,0,0,1,0,1.657,4.972,4.972,0,0,1-.54,1.355,8.415,8.415,0,0,1-.82,1.155l-.869,1.025a7.04,7.04,0,0,0-.7.982,1.932,1.932,0,0,0-.27,1.02.891.891,0,0,1-.14.475.54.54,0,0,1-.383.254l-1.765.291a.664.664,0,0,1-.486-.113.54.54,0,0,1-.243-.41,4.016,4.016,0,0,1,.124-1.652,5.484,5.484,0,0,1,.61-1.366,8.383,8.383,0,0,1,.858-1.15c.318-.356.6-.691.874-1.015a5.278,5.278,0,0,0,.632-.934,1.49,1.49,0,0,0,.156-.945,1.776,1.776,0,0,0-.982-1.328,3.163,3.163,0,0,0-2.062-.248,3.093,3.093,0,0,0-2.58,2.445,1.263,1.263,0,0,1-.183.426.6.6,0,0,1-.4.194l-1.878.308a.539.539,0,0,1-.383-.081.48.48,0,0,1-.216-.345,3.643,3.643,0,0,1,.232-1.738,5.656,5.656,0,0,1,1.026-1.743,6.9,6.9,0,0,1,1.695-1.43A6.141,6.141,0,0,1,416.187,139.724Zm3.082,13.056a.636.636,0,0,1,.729.524l.335,2.04a.626.626,0,0,1-.113.475.6.6,0,0,1-.41.254l-2,.329a.621.621,0,0,1-.47-.113.6.6,0,0,1-.259-.41l-.335-2.046a.642.642,0,0,1,.54-.729Z" transform="translate(-410.989 -139.624)" fill="#146540"/>
          </g>
          <path id="Path_6204" data-name="Path 6204" d="M450.833,137.808a.761.761,0,0,1,.178,1.047l-1.425,2a.761.761,0,0,1-1.047.178l-1.954-1.387a.728.728,0,0,1-.3-.486.756.756,0,0,1,.124-.54l1.425-2a.75.75,0,0,1,.486-.3.739.739,0,0,1,.54.13Zm8.247-13.542a8.948,8.948,0,0,1,1.867,1.77,6.938,6.938,0,0,1,1.171,2.159,5.478,5.478,0,0,1,.243,2.326,4.857,4.857,0,0,1-.917,2.3,5.036,5.036,0,0,1-1.4,1.376,5.868,5.868,0,0,1-1.587.685,9.715,9.715,0,0,1-1.657.291l-1.587.135a8.534,8.534,0,0,0-1.4.248,2.31,2.31,0,0,0-1.079.637,1.139,1.139,0,0,1-.507.286.647.647,0,0,1-.54-.113l-1.727-1.225a.782.782,0,0,1-.313-.5.626.626,0,0,1,.135-.54,4.858,4.858,0,0,1,1.484-1.29,6.649,6.649,0,0,1,1.652-.637,10.1,10.1,0,0,1,1.684-.259c.54-.032,1.079-.076,1.576-.124a5.938,5.938,0,0,0,1.311-.264,1.743,1.743,0,0,0,.918-.664,2.089,2.089,0,0,0,.281-1.932,3.778,3.778,0,0,0-1.533-1.927,3.653,3.653,0,0,0-4.21-.092,1.511,1.511,0,0,1-.5.205.7.7,0,0,1-.513-.173l-1.835-1.306a.621.621,0,0,1-.259-.389.572.572,0,0,1,.113-.464,4.28,4.28,0,0,1,1.619-1.279,6.849,6.849,0,0,1,2.315-.61,8.263,8.263,0,0,1,2.618.205A7.189,7.189,0,0,1,459.08,124.267Z" transform="translate(-413.886 -104.293)" fill="#ba68c8"/>
          <g id="Group_6245" data-name="Group 6245" transform="translate(32.388 18.587)">
            <path id="Path_6205" data-name="Path 6205" d="M450.833,137.808a.761.761,0,0,1,.178,1.047l-1.425,2a.761.761,0,0,1-1.047.178l-1.954-1.387a.728.728,0,0,1-.3-.486.756.756,0,0,1,.124-.54l1.425-2a.75.75,0,0,1,.486-.3.739.739,0,0,1,.54.13Zm8.247-13.542a8.948,8.948,0,0,1,1.867,1.77,6.938,6.938,0,0,1,1.171,2.159,5.478,5.478,0,0,1,.243,2.326,4.857,4.857,0,0,1-.917,2.3,5.036,5.036,0,0,1-1.4,1.376,5.868,5.868,0,0,1-1.587.685,9.715,9.715,0,0,1-1.657.291l-1.587.135a8.534,8.534,0,0,0-1.4.248,2.31,2.31,0,0,0-1.079.637,1.139,1.139,0,0,1-.507.286.647.647,0,0,1-.54-.113l-1.727-1.225a.782.782,0,0,1-.313-.5.626.626,0,0,1,.135-.54,4.858,4.858,0,0,1,1.484-1.29,6.649,6.649,0,0,1,1.652-.637,10.1,10.1,0,0,1,1.684-.259c.54-.032,1.079-.076,1.576-.124a5.938,5.938,0,0,0,1.311-.264,1.743,1.743,0,0,0,.918-.664,2.089,2.089,0,0,0,.281-1.932,3.778,3.778,0,0,0-1.533-1.927,3.653,3.653,0,0,0-4.21-.092,1.511,1.511,0,0,1-.5.205.7.7,0,0,1-.513-.173l-1.835-1.306a.621.621,0,0,1-.259-.389.572.572,0,0,1,.113-.464,4.28,4.28,0,0,1,1.619-1.279,6.849,6.849,0,0,1,2.315-.61,8.263,8.263,0,0,1,2.618.205A7.189,7.189,0,0,1,459.08,124.267Z" transform="translate(-446.274 -122.879)" fill="#6d8d96"/>
          </g>
        </g>
      </g>
      <g id="freepik--character-1--inject-14" transform="translate(33.656 62.01)">
        <g id="freepik--character--inject-14-2" data-name="freepik--character--inject-14" transform="translate(11.096 29.624)">
          <path id="Path_6206" data-name="Path 6206" d="M126.855,333.644c-.054-1.619,1.112-17.444,1.112-17.444l-7.707,5.591c1.581,9.434,1.921,11.663,1.948,13.207h0a1.43,1.43,0,0,0-.043.394c0,1.835,2.078,2.823,3.692,4.048a30.569,30.569,0,0,0,4.366,2.85c1.171.588,3.557.642,3.848-.113a56.116,56.116,0,0,1-6.385-5.457C126.942,335.9,126.915,335.252,126.855,333.644Z" transform="translate(-89.561 -223.885)" fill="#ffbda7"/>
          <path id="Path_6207" data-name="Path 6207" d="M138.236,364.451a1.436,1.436,0,0,1-.329,1.473,6.606,6.606,0,0,1-4.9,1.166,8.6,8.6,0,0,1-4.755-1.835,10.184,10.184,0,0,0-3.465-2.218,6.682,6.682,0,0,1-2.472-1.015c-.329-.318-.286-1.732-.286-1.732Z" transform="translate(-90.374 -244.179)" fill="#263238"/>
          <path id="Path_6208" data-name="Path 6208" d="M123.016,350.2a.389.389,0,0,0-.372.329c-.076.389-.157,1.522-.318,2.159a11.523,11.523,0,0,0-.237,3.433c.135.729,1.808,1.231,2.882,1.619a13.573,13.573,0,0,1,3.476,2.191,9.8,9.8,0,0,0,5.165,1.927c1.889,0,4.016-.626,4.507-1.5.6-1.079.13-1.711-2.672-3.012-.54-.243-2.391-1.349-3.028-1.749a10.416,10.416,0,0,1-4.21-4.5,1.079,1.079,0,0,0-.4-.583.9.9,0,0,0-.54-.054,4.706,4.706,0,0,0-1.349.41c-.372.178-.907.389-.9.869a1.668,1.668,0,0,0,.108.486c.032.1.059.232,0,.291s-.189,0-.264-.076a7.12,7.12,0,0,1-.75-.907,2.931,2.931,0,0,0-.448-.448,4.248,4.248,0,0,1-.475-.313C122.984,350.632,123.027,350.427,123.016,350.2Z" transform="translate(-90.385 -239.535)" fill="#455a64"/>
          <path id="Path_6209" data-name="Path 6209" d="M132.6,365.822c-.491-.4-1.009-.793-1.527-1.139h0s3.292,2,4.62,1.079a1.187,1.187,0,0,0,.432-1.522,7.376,7.376,0,0,1,2.925-1.3h0c.232.13.426.232.54.286,2.8,1.3,3.271,1.927,2.672,3.012-.491.874-2.029,1.56-4.469,1.56A9.91,9.91,0,0,1,132.6,365.822Z" transform="translate(-94.536 -245.399)" fill="#37474f"/>
          <path id="Path_6210" data-name="Path 6210" d="M132.143,357.715c1.743.7,1,1.02.513,1.079s-3.416-1.619-5.208-3.055-3.039-3.093-3.729-3.632c-.259-.2-.54-.448-.788-.68.049-.383.086-.734.119-.918a.389.389,0,0,1,.372-.329c0,.227-.032.437.14.6a4.257,4.257,0,0,0,.475.313,2.929,2.929,0,0,1,.448.448,7.123,7.123,0,0,0,.75.907A22.668,22.668,0,0,0,132.143,357.715Z" transform="translate(-90.79 -239.525)" fill="#263238"/>
          <path id="Path_6211" data-name="Path 6211" d="M140.573,364.369a.173.173,0,0,1-.108-.043.167.167,0,0,1-.027-.237,4.139,4.139,0,0,1,3.19-1.263.178.178,0,0,1,.157.194.173.173,0,0,1-.189.151,3.843,3.843,0,0,0-2.887,1.133A.178.178,0,0,1,140.573,364.369Z" transform="translate(-98.831 -245.343)" fill="#f5f5f5"/>
          <path id="Path_6212" data-name="Path 6212" d="M137.773,362.684a.167.167,0,0,1-.113-.038.178.178,0,0,1,0-.243,4.15,4.15,0,0,1,3.19-1.258.174.174,0,1,1-.038.345,3.821,3.821,0,0,0-2.888,1.133A.173.173,0,0,1,137.773,362.684Z" transform="translate(-97.547 -244.57)" fill="#f5f5f5"/>
          <path id="Path_6213" data-name="Path 6213" d="M134.955,360.994a.167.167,0,0,1-.108-.038.173.173,0,0,1,0-.243,4.156,4.156,0,0,1,3.19-1.258.173.173,0,1,1-.032.345,3.821,3.821,0,0,0-2.888,1.133.184.184,0,0,1-.162.059Z" transform="translate(-96.252 -243.792)" fill="#f5f5f5"/>
          <path id="Path_6214" data-name="Path 6214" d="M132.343,359.124a.162.162,0,0,1-.108-.281,4.14,4.14,0,0,1,3.19-1.257.171.171,0,1,1-.038.34,3.859,3.859,0,0,0-2.888,1.133.173.173,0,0,1-.157.065Z" transform="translate(-95.049 -242.931)" fill="#f5f5f5"/>
          <path id="Path_6215" data-name="Path 6215" d="M129.8,357.225a.2.2,0,0,1-.108-.038.173.173,0,0,1,0-.243,4.221,4.221,0,0,1,3.481-1.274.162.162,0,0,1,.151.189.173.173,0,0,1-.189.151,3.924,3.924,0,0,0-3.174,1.144A.183.183,0,0,1,129.8,357.225Z" transform="translate(-93.877 -242.042)" fill="#f5f5f5"/>
          <path id="Path_6216" data-name="Path 6216" d="M98.947,329.43l-7.777-.14c.113,5.192.939,10.951,1.079,15.819,0,.917,0,7.124.324,9.013.54,2.834,3.886,2.45,4.064.756s-.216-8.943-.205-9.715c-.032-3.12,1.43-8.393,2.2-14C98.667,330.909,98.91,329.7,98.947,329.43Z" transform="translate(-76.171 -229.91)" fill="#ffbda7"/>
          <path id="Path_6217" data-name="Path 6217" d="M97.779,378.015a7.767,7.767,0,0,1-.54,3.821,2.45,2.45,0,0,1-2.7,1.274,3.74,3.74,0,0,1-3.13-2.159A9.132,9.132,0,0,1,90.957,377Z" transform="translate(-76.05 -251.87)" fill="#263238"/>
          <path id="Path_6218" data-name="Path 6218" d="M92.153,357.5c-.459.081-.372,2.321-.416,4.571-.049,2.418-.658,3.476-.718,5.457-.07,2.267.151,3.238,1.079,4.523s3.827,2.321,5,.248c.955-1.689.826-3.443.5-5.667s-.588-3.908-.675-5.667-.124-3.319-.54-3.465v.81c0,.243.038,1.079-.221,1.133a4.036,4.036,0,0,1-.07-.632.766.766,0,0,0-.178-.54.885.885,0,0,0-.54-.173,12.034,12.034,0,0,0-1.392-.076,4.27,4.27,0,0,0-.7.038,1.748,1.748,0,0,0-.577.146.421.421,0,0,0-.232.248.7.7,0,0,0,0,.259,1.905,1.905,0,0,1,0,.464c0,.07-.049.157-.119.146s-.081-.076-.086-.129c-.032-.27,0-.47-.032-.783v-.491C92.234,357.775,92.159,357.646,92.153,357.5Z" transform="translate(-76.096 -242.895)" fill="#455a64"/>
          <path id="Path_6219" data-name="Path 6219" d="M91.023,374.834c0,.329-.07,2.493.54,2.817s.847-1.36.847-1.36a5.662,5.662,0,0,1,3.675.124c-.076.356.367,1.468.934,1.166s.54-2.769.54-2.8c.308,2.159.4,3.832-.54,5.473-1.171,2.072-4.08,1.025-5-.248s-1.139-2.256-1.079-4.523C90.969,375.255,91.007,375.044,91.023,374.834Z" transform="translate(-76.062 -250.848)" fill="#37474f"/>
          <path id="Path_6220" data-name="Path 6220" d="M93.2,368.443c.07.81-.75.621-.9-.54s.205-3.908,0-5.872c.043-2.251-.043-4.49.416-4.571a.411.411,0,0,0,0,.081l.054,1.139a3.7,3.7,0,0,0,0,.486c.151,1.652.243,4.857.248,6.379A27.2,27.2,0,0,0,93.2,368.443Z" transform="translate(-76.672 -242.876)" fill="#263238"/>
          <path id="Path_6221" data-name="Path 6221" d="M100,368.462a25.788,25.788,0,0,0,.157-2.877c0-1.511.1-4.679.248-6.342a4.156,4.156,0,0,0,.07-.934v-.81c.3.113.41,1,.475,2.127,0,.653,0,1.463-.059,2.445-.205,1.965.151,4.75,0,5.888S99.944,369.271,100,368.462Z" transform="translate(-80.233 -242.895)" fill="#263238"/>
          <path id="Path_6222" data-name="Path 6222" d="M97.268,377.36h-.059a5.515,5.515,0,0,0-3.6,0,.173.173,0,0,1-.124-.324,5.721,5.721,0,0,1,3.848,0,.167.167,0,0,1-.065.324Z" transform="translate(-77.185 -251.733)" fill="#f5f5f5"/>
          <path id="Path_6223" data-name="Path 6223" d="M97.319,374.042a.124.124,0,0,1-.059,0,6.79,6.79,0,0,0-4.026,0,.173.173,0,0,1-.221-.108.167.167,0,0,1,.108-.216,7.017,7.017,0,0,1,4.258,0,.173.173,0,0,1-.059.335Z" transform="translate(-77.014 -250.207)" fill="#f5f5f5"/>
          <path id="Path_6224" data-name="Path 6224" d="M93.154,370.83a.178.178,0,0,1-.157-.1.173.173,0,0,1,.086-.227,5.9,5.9,0,0,1,4.248-.027.167.167,0,0,1,.1.221.173.173,0,0,1-.221.1,5.762,5.762,0,0,0-3.978,0,.189.189,0,0,1-.076.038Z" transform="translate(-77.005 -248.69)" fill="#f5f5f5"/>
          <path id="Path_6225" data-name="Path 6225" d="M93.083,367.834a.17.17,0,0,1-.076-.324,5.338,5.338,0,0,1,4.318-.049.17.17,0,1,1-.146.308,5.127,5.127,0,0,0-4.037.049.19.19,0,0,1-.059.016Z" transform="translate(-76.972 -247.281)" fill="#f5f5f5"/>
          <path id="Path_6226" data-name="Path 6226" d="M93.011,364.556a.173.173,0,0,1-.076-.329,5.571,5.571,0,0,1,4.366,0,.162.162,0,0,1,.086.227.173.173,0,0,1-.227.086,5.345,5.345,0,0,0-4.069,0,.151.151,0,0,1-.081.016Z" transform="translate(-76.938 -245.779)" fill="#f5f5f5"/>
          <path id="Path_6227" data-name="Path 6227" d="M93.478,236c-2.742,7.594-2.261,12.36-1.792,20.32.432,7.3,1.117,13.725,1.117,13.725-.108,1.3-1.911,3.821-2.159,9.542a93.721,93.721,0,0,0,.54,12.063s3.589,1.311,6.622,0c0,0,3.1-13.7,3.951-20.4.734-5.845,2.019-13.315,2.019-13.315l2.7,13.288a19.634,19.634,0,0,0-.8,5.5c0,3.125,1.452,11.814,1.452,11.814s4.021,1.3,6.568-.961c0,0,1.009-12.505,1.365-17.271.475-6.358-.216-23.785-1.743-32.707Z" transform="translate(-75.921 -186.971)" fill="#0d4681"/>
          <path id="Path_6228" data-name="Path 6228" d="M115.05,265.678l1.123-10s5.025-.669,7.3-2.812a8.242,8.242,0,0,1-5.937,3.74l-1.619,9.3,1.835,13.05Z" transform="translate(-87.163 -194.736)" fill="#37474f"/>
          <path id="Path_6229" data-name="Path 6229" d="M130.093,205.176c-2.445-2.515-6.86-8.2-6.86-8.2l-2.493-8.636a16.129,16.129,0,0,0,1.673,0c2.7.178,3.492.41,5.171,2.245,1.333,1.463,6.417,8.4,8.182,10.74l4.69-5.975c1.128-1.7.945-3.605,1.527-4.992s1.527-2,2.283-3.238.934-2.073,1.554-1.43-.1,2.369-.189,2.763-1.042,1.565.54.955,4.021-3.5,4.647-4.086.961.324.82,1.047.54,2.353.291,3.546a4.858,4.858,0,0,1-1.673,3.082c-1.139,1.144-3.924,2.553-5.014,4.059s-3.416,6.185-4.857,9c-1.808,3.584-3.346,4.766-5.4,3.557A25.367,25.367,0,0,1,130.093,205.176Z" transform="translate(-89.782 -163.557)" fill="#ffbda7"/>
          <path id="Path_6230" data-name="Path 6230" d="M121.575,190.862a8.949,8.949,0,0,1,4.069.54c1.463.658,2.456,2.073,3.886,3.989s3.983,5.268,3.983,5.268-.691,2.909-5.246,5.521l-7.437-7.659Z" transform="translate(-89.823 -166.174)" fill="#f8cb62"/>
          <path id="Path_6231" data-name="Path 6231" d="M147.067,214.664a5.7,5.7,0,0,0-1.7,3.147s-.54-1.733,1.3-3.681Z" transform="translate(-101.083 -176.904)" fill="#f28f8f"/>
          <path id="Path_6232" data-name="Path 6232" d="M113.719,206.229c3.319-2.731,2.224-6.288,1.015-8.684-2.423-4.787-4.944-6.671-6-6.655l-6.6.065c-3.152.432-5.592.216-6.353.394-1.943.459-1.986,2.056-2.062,4.123-.081,2.267-1.241,1.884-.653,5.629a38.664,38.664,0,0,1,1.824,4.291c.356,1.3,1.36,3.357.826,5.451-.205.81-.756,1.619-1.581,3.837a41.79,41.79,0,0,0-2.078,7.7,9.266,9.266,0,0,0,4.118-2.78s3,4.01,10.2,3.605c7.475-.421,8.134-4.318,8.134-4.318l-1.144-7.016C113.541,209.035,113.616,208.01,113.719,206.229Z" transform="translate(-76.581 -166.207)" fill="#ffb505"/>
          <path id="Path_6233" data-name="Path 6233" d="M116.068,215.735a6.775,6.775,0,0,1-5.867,1.123,5.4,5.4,0,0,1-3.665-3.778,4.74,4.74,0,0,0,3.713,4.744,5.181,5.181,0,0,0,5.818-2.089Z" transform="translate(-83.242 -176.421)" opacity="0.1"/>
          <path id="Path_6234" data-name="Path 6234" d="M85.415,185.137c-.977-.712-6.239,6.331-3.778,8.1s5.084-3.238,4.555-5.6S85.415,185.137,85.415,185.137Z" transform="translate(-71.484 -163.536)" fill="#37474f"/>
          <path id="Path_6235" data-name="Path 6235" d="M72.534,163.261c1.317-1.824,2.213-3.2,3.416-4.766.68-.891,1.117-1.522,1.77-2.434.453-.626.718-1.155,1.225-1.355a4.318,4.318,0,0,0,1.484-1.079,8.792,8.792,0,0,0,.7-.923,13.493,13.493,0,0,1,2.7-2.785c1.079-.837,2.261-1.484,3.362-2.283.653-.475,1.355-1.258.54-1.965a1.938,1.938,0,0,0-.874-.4c-1.965-.394-3.665.313-5.575.837a16.668,16.668,0,0,0-2.429.869,4.172,4.172,0,0,0-1.079.642,5.575,5.575,0,0,0-1.079,1.619c-.837,1.538-2.6,2.909-3.837,4.113-1.452,1.414-2.747,2.7-4.4,4.269-1.49,1.4-2.952,2.7-4.318,4.231a2.159,2.159,0,0,0-.54,2.564,12.093,12.093,0,0,0,3.3,3.778c.421.389.847.772,1.274,1.155,1.652,1.49,3.3,2.882,5.019,4.318,1.835,1.511,2.591,2.245,4.226,3.713a12.139,12.139,0,0,1,2.542,3.308c2.834.47,5.618-3.864,3.19-8.932a5.3,5.3,0,0,0-1.754-2.04C78.4,167.584,72.534,163.261,72.534,163.261Z" transform="translate(-63.38 -145.158)" fill="#ffbda7"/>
          <path id="Path_6236" data-name="Path 6236" d="M77.422,178.7A7.459,7.459,0,0,1,74,181.134s1.808.432,4.237-1.83Z" transform="translate(-68.268 -160.597)" fill="#f28f8f"/>
          <path id="Path_6237" data-name="Path 6237" d="M91.486,188.677c-.664-.459-2.278-1.436-5.5-3.5,0,0,.5,1.042-.286,3.659s-2.434,4.275-3.47,4.463c0,0,1.8,1.425,3.465,3.033s3.028,2.747,3.989,4.615c0,0,2.375-.61,2.914-4.636C92.976,193.492,92.749,190.178,91.486,188.677Z" transform="translate(-72.056 -163.579)" fill="#f8cb62"/>
          <path id="Path_6238" data-name="Path 6238" d="M115.013,158.6a6.477,6.477,0,0,0-.437-6.32c-2.046-2.909-5.494-4.318-9.3-4.275h-1.182c-5.144.086-9.818,4.5-9.909,9.472h0c0,3.5,0,6.73,1.927,9.116,1.776,2.218,4.544,2.947,6.881,3.3,4.469.68,9.488.162,11.518-2.882,0,0-2.7.54-2.359-2.256.049-.443-.372-.928-1.112-1.43a14.987,14.987,0,0,1,1.819-2.51C113.615,160.061,114.5,159.635,115.013,158.6Z" transform="translate(-77.557 -146.47)" fill="#263238"/>
          <path id="Path_6239" data-name="Path 6239" d="M115.831,166.179c-.027,5.208-1.695,6.52-2.531,6.908s-2.477.184-4.069-.049l.054,3.125s1.862,1.884,1.754,3.319-2.85,1.619-4.928.275a15.414,15.414,0,0,1-3.087-2.7,1.133,1.133,0,0,1-.275-.718l-.13-7.346s-.853.934-2.407-.092a2.839,2.839,0,0,1-.8-4.107,2.094,2.094,0,0,1,3.2.329c.475.885.432,1.511,1.079,1.409s.675-.8.718-1.306,0-.664.065-1.322c1.538-.329,3.13-2.472,3.308-4.037a7.367,7.367,0,0,0,3.352.756c1.722-.119,2.612-.464,3.46-1.706a3.778,3.778,0,0,1,.48.923,12,12,0,0,1,.54,2.046A26.35,26.35,0,0,1,115.831,166.179Z" transform="translate(-79.708 -151.492)" fill="#ffa8a7"/>
          <path id="Path_6240" data-name="Path 6240" d="M113.219,182.972c-1.679-.194-5.138-1.123-5.7-2.472a3.53,3.53,0,0,0,1.236,1.716c1.047.864,4.48,1.8,4.48,1.8Z" transform="translate(-83.697 -161.425)" fill="#f28f8f"/>
          <path id="Path_6241" data-name="Path 6241" d="M120.041,179.309a.685.685,0,1,1-.7-.669A.685.685,0,0,1,120.041,179.309Z" transform="translate(-88.829 -160.569)" fill="#b16668"/>
          <path id="Path_6242" data-name="Path 6242" d="M118.311,169.79a.729.729,0,0,1-.664.793.745.745,0,1,1,.664-.793Z" transform="translate(-87.979 -156.177)" fill="#263238"/>
          <path id="Path_6243" data-name="Path 6243" d="M127.483,169.266a.669.669,0,0,1-.61.718.621.621,0,0,1-.7-.631.658.658,0,0,1,.6-.723A.675.675,0,0,1,127.483,169.266Z" transform="translate(-92.283 -155.961)" fill="#263238"/>
          <path id="Path_6244" data-name="Path 6244" d="M122.37,168.56l.518,4.35,2.229-.928Z" transform="translate(-90.532 -155.929)" fill="#f28f8f"/>
          <path id="Path_6245" data-name="Path 6245" d="M114.76,165.851l1.3-1.231a.939.939,0,0,1-.038,1.3.869.869,0,0,1-1.258-.065Z" transform="translate(-87.029 -154.116)" fill="#263238"/>
          <path id="Path_6246" data-name="Path 6246" d="M126.629,163.88l1.436,1.079a.864.864,0,0,1-1.241.2A.95.95,0,0,1,126.629,163.88Z" transform="translate(-92.416 -153.775)" fill="#263238"/>
        </g>
        <g id="freepik--question-marks--inject-14-2" data-name="freepik--question-marks--inject-14">
          <path id="Path_6247" data-name="Path 6247" d="M82.179,90.464a10.972,10.972,0,0,1,3.141-.14,8.409,8.409,0,0,1,2.887.788,6.644,6.644,0,0,1,2.256,1.759,5.937,5.937,0,0,1,1.252,2.758,6.029,6.029,0,0,1,0,2.407,7.1,7.1,0,0,1-.734,1.975,11.507,11.507,0,0,1-1.15,1.706c-.432.54-.842,1.036-1.225,1.517a9.717,9.717,0,0,0-.971,1.446,2.79,2.79,0,0,0-.362,1.49,1.36,1.36,0,0,1-.178.691.783.783,0,0,1-.54.383l-2.542.48a.918.918,0,0,1-.7-.146.745.745,0,0,1-.372-.588,5.937,5.937,0,0,1,.119-2.4A8.393,8.393,0,0,1,83.9,102.6a11.875,11.875,0,0,1,1.2-1.684c.448-.54.853-1.025,1.225-1.5a7.822,7.822,0,0,0,.885-1.376,2.159,2.159,0,0,0,.189-1.371,2.558,2.558,0,0,0-1.463-1.889,4.631,4.631,0,0,0-3-.286,4.482,4.482,0,0,0-3.643,3.638,1.96,1.96,0,0,1-.248.615.885.885,0,0,1-.588.3l-2.7.513a.772.772,0,0,1-.54-.1.729.729,0,0,1-.318-.5,5.289,5.289,0,0,1,.27-2.526,8.344,8.344,0,0,1,1.382-2.574,10.174,10.174,0,0,1,2.407-2.159A8.949,8.949,0,0,1,82.179,90.464Zm4.928,18.755a.939.939,0,0,1,1.079.734l.54,2.947a.869.869,0,0,1-.146.685.9.9,0,0,1-.583.389l-2.877.54a.88.88,0,0,1-.691-.146.9.9,0,0,1-.389-.583l-.54-2.947a.891.891,0,0,1,.151-.685.864.864,0,0,1,.583-.389Z" transform="translate(-57.563 -90.27)" fill="#146540"/>
          <path id="Path_6248" data-name="Path 6248" d="M131.23,112.47a7.507,7.507,0,0,1,1.727,1.317,5.662,5.662,0,0,1,1.182,1.695,4.636,4.636,0,0,1,.416,1.927,4.059,4.059,0,0,1-.54,2.019,4.318,4.318,0,0,1-1.052,1.285,5.035,5.035,0,0,1-1.268.718,8.094,8.094,0,0,1-1.365.4l-1.317.259a6.256,6.256,0,0,0-1.155.34,1.9,1.9,0,0,0-.847.626.917.917,0,0,1-.4.286.54.54,0,0,1-.459-.038l-1.56-.874a.653.653,0,0,1-.313-.389.54.54,0,0,1,.065-.475,4.08,4.08,0,0,1,1.123-1.214,5.775,5.775,0,0,1,1.328-.691,8.634,8.634,0,0,1,1.387-.367c.47-.081.907-.162,1.317-.248a5.716,5.716,0,0,0,1.079-.34,1.533,1.533,0,0,0,.712-.642,1.781,1.781,0,0,0,.054-1.652,3.184,3.184,0,0,0-1.463-1.479,3.093,3.093,0,0,0-3.541.313,1.274,1.274,0,0,1-.4.221.61.61,0,0,1-.443-.1l-1.662-.928a.54.54,0,0,1-.248-.3.5.5,0,0,1,.049-.4,3.686,3.686,0,0,1,1.258-1.22,5.732,5.732,0,0,1,1.889-.723,6.882,6.882,0,0,1,2.218-.07A6.18,6.18,0,0,1,131.23,112.47Zm-5.689,12.117a.632.632,0,0,1,.3.383.615.615,0,0,1-.054.48l-1.009,1.808a.637.637,0,0,1-.864.248l-1.765-.988a.578.578,0,0,1-.3-.383.6.6,0,0,1,.049-.48l1.009-1.808a.626.626,0,0,1,.383-.3.594.594,0,0,1,.48.054Z" transform="translate(-79.185 -100.116)" fill="#ba68c8"/>
          <g id="Group_6246" data-name="Group 6246" transform="translate(42.641 11.546)" opacity="0.67">
            <path id="Path_6249" data-name="Path 6249" d="M131.23,112.47a7.507,7.507,0,0,1,1.727,1.317,5.662,5.662,0,0,1,1.182,1.695,4.636,4.636,0,0,1,.416,1.927,4.059,4.059,0,0,1-.54,2.019,4.318,4.318,0,0,1-1.052,1.285,5.035,5.035,0,0,1-1.268.718,8.094,8.094,0,0,1-1.365.4l-1.317.259a6.256,6.256,0,0,0-1.155.34,1.9,1.9,0,0,0-.847.626.917.917,0,0,1-.4.286.54.54,0,0,1-.459-.038l-1.56-.874a.653.653,0,0,1-.313-.389.54.54,0,0,1,.065-.475,4.08,4.08,0,0,1,1.123-1.214,5.775,5.775,0,0,1,1.328-.691,8.634,8.634,0,0,1,1.387-.367c.47-.081.907-.162,1.317-.248a5.716,5.716,0,0,0,1.079-.34,1.533,1.533,0,0,0,.712-.642,1.781,1.781,0,0,0,.054-1.652,3.184,3.184,0,0,0-1.463-1.479,3.093,3.093,0,0,0-3.541.313,1.274,1.274,0,0,1-.4.221.61.61,0,0,1-.443-.1l-1.662-.928a.54.54,0,0,1-.248-.3.5.5,0,0,1,.049-.4,3.686,3.686,0,0,1,1.258-1.22,5.732,5.732,0,0,1,1.889-.723,6.882,6.882,0,0,1,2.218-.07A6.18,6.18,0,0,1,131.23,112.47Zm-5.689,12.117a.632.632,0,0,1,.3.383.615.615,0,0,1-.054.48l-1.009,1.808a.637.637,0,0,1-.864.248l-1.765-.988a.578.578,0,0,1-.3-.383.6.6,0,0,1,.049-.48l1.009-1.808a.626.626,0,0,1,.383-.3.594.594,0,0,1,.48.054Z" transform="translate(-121.826 -111.662)" fill="#3aa775"/>
          </g>
          <path id="Path_6250" data-name="Path 6250" d="M56.848,138.722a.734.734,0,0,1,.54-.2.756.756,0,0,1,.54.237l1.662,1.8a.761.761,0,0,1-.043,1.079l-1.759,1.619a.761.761,0,0,1-1.079-.043l-1.662-1.8a.756.756,0,0,1,.043-1.079ZM45.3,127.846a9.029,9.029,0,0,1,2.116-1.473,6.946,6.946,0,0,1,2.342-.7,5.564,5.564,0,0,1,2.326.237,4.857,4.857,0,0,1,2.067,1.376,4.976,4.976,0,0,1,1.079,1.657,5.85,5.85,0,0,1,.345,1.689,9.715,9.715,0,0,1-.054,1.684c-.07.54-.135,1.079-.194,1.581a8,8,0,0,0-.049,1.425,2.267,2.267,0,0,0,.4,1.193,1.08,1.08,0,0,1,.173.54.621.621,0,0,1-.216.5L54.079,139a.772.772,0,0,1-.54.2.615.615,0,0,1-.513-.243,4.949,4.949,0,0,1-.961-1.716,6.79,6.79,0,0,1-.281-1.743,9.893,9.893,0,0,1,.1-1.706c.081-.54.146-1.079.2-1.565a6.245,6.245,0,0,0,0-1.344,1.754,1.754,0,0,0-.459-1.031,2.1,2.1,0,0,0-1.835-.675,3.816,3.816,0,0,0-2.2,1.079,3.681,3.681,0,0,0-.955,4.107,1.56,1.56,0,0,1,.1.54.7.7,0,0,1-.275.459L44.8,136.892a.615.615,0,0,1-.432.173.578.578,0,0,1-.432-.205A4.264,4.264,0,0,1,43,135.009a6.768,6.768,0,0,1-.124-2.391,8.182,8.182,0,0,1,.745-2.52,7.243,7.243,0,0,1,1.679-2.251Z" transform="translate(-42.821 -106.549)" fill="#ba68c8"/>
          <g id="Group_6247" data-name="Group 6247" transform="translate(0 19.089)" opacity="0.6">
            <path id="Path_6251" data-name="Path 6251" d="M56.848,138.722a.734.734,0,0,1,.54-.2.756.756,0,0,1,.54.237l1.662,1.8a.761.761,0,0,1-.043,1.079l-1.759,1.619a.761.761,0,0,1-1.079-.043l-1.662-1.8a.756.756,0,0,1,.043-1.079ZM45.3,127.846a9.029,9.029,0,0,1,2.116-1.473,6.946,6.946,0,0,1,2.342-.7,5.564,5.564,0,0,1,2.326.237,4.857,4.857,0,0,1,2.067,1.376,4.976,4.976,0,0,1,1.079,1.657,5.85,5.85,0,0,1,.345,1.689,9.715,9.715,0,0,1-.054,1.684c-.07.54-.135,1.079-.194,1.581a8,8,0,0,0-.049,1.425,2.267,2.267,0,0,0,.4,1.193,1.08,1.08,0,0,1,.173.54.621.621,0,0,1-.216.5L54.079,139a.772.772,0,0,1-.54.2.615.615,0,0,1-.513-.243,4.949,4.949,0,0,1-.961-1.716,6.79,6.79,0,0,1-.281-1.743,9.893,9.893,0,0,1,.1-1.706c.081-.54.146-1.079.2-1.565a6.245,6.245,0,0,0,0-1.344,1.754,1.754,0,0,0-.459-1.031,2.1,2.1,0,0,0-1.835-.675,3.816,3.816,0,0,0-2.2,1.079,3.681,3.681,0,0,0-.955,4.107,1.56,1.56,0,0,1,.1.54.7.7,0,0,1-.275.459L44.8,136.892a.615.615,0,0,1-.432.173.578.578,0,0,1-.432-.205A4.264,4.264,0,0,1,43,135.009a6.768,6.768,0,0,1-.124-2.391,8.182,8.182,0,0,1,.745-2.52,7.243,7.243,0,0,1,1.679-2.251Z" transform="translate(-42.821 -125.638)" fill="#3aa775"/>
          </g>
        </g>
      </g>
      <g id="freepik--question-mark--inject-14" transform="translate(114.365 28.873)">
        <g id="freepik--big-question-mark--inject-14">
          <path id="Path_6252" data-name="Path 6252" d="M249.228,213.7c-1.538-.88-8.015-4.625-10.217-5.9-.437-.248-.712-.41-.734-.426a5.171,5.171,0,0,0-3.6-.54,9.386,9.386,0,0,0-2.979,1.16c-.151.086-.3.189-.448.286a18.822,18.822,0,0,0-6.406,7.443,23.073,23.073,0,0,0-2.834,10.794q0,5.365,2.861,7.529a5.771,5.771,0,0,0,.6.394c1.786,1.015,10.746,6.207,10.946,6.32h.049a5.031,5.031,0,0,1-.632-.41q-2.866-2.159-2.86-7.524a23.073,23.073,0,0,1,2.834-10.794,18.488,18.488,0,0,1,6.849-7.734q3.832-2.213,6.617-.577Z" transform="translate(-206.006 -110.731)" fill="#ba68c8"/>
          <path id="Path_6253" data-name="Path 6253" d="M252.034,213.715q-2.785-1.619-6.617.572a17.812,17.812,0,0,0-6.45,7.016L228,214.95a18.154,18.154,0,0,1,6-6.709c.146-.092.3-.2.448-.286a9.24,9.24,0,0,1,2.979-1.155,5.138,5.138,0,0,1,3.6.54l.734.426c2.2,1.268,8.679,5.014,10.217,5.894Z" transform="translate(-208.764 -110.716)" fill="#0b0754"/>
          <path id="Path_6254" data-name="Path 6254" d="M236.469,247.782h-.049c-.2-.113-9.175-5.305-10.946-6.32a5.771,5.771,0,0,1-.6-.394q-2.861-2.159-2.861-7.524a23.041,23.041,0,0,1,2.834-10.794c.13-.254.264-.5.4-.739l10.962,6.331c-.135.237-.27.486-.4.734a23.073,23.073,0,0,0-2.833,10.794q0,5.365,2.86,7.524A5.034,5.034,0,0,0,236.469,247.782Z" transform="translate(-206.006 -117.77)" fill="#0b0754"/>
          <path id="Path_6255" data-name="Path 6255" d="M230.8,39.234q7.982-4.615,13.59-3.924a11.334,11.334,0,0,1,4.318,1.436,1.141,1.141,0,0,1-.108-.065c-1.285-.723-9.024-5.187-10.794-6.228a11.285,11.285,0,0,0-4.4-1.468q-5.613-.685-13.6,3.918-12.414,7.162-19.97,21.049A57.98,57.98,0,0,0,192.359,82.3l10.962,6.331A57.507,57.507,0,0,1,210.8,60.277Q218.385,46.4,230.8,39.234Z" transform="translate(-192.358 -28.883)" fill="#ba68c8"/>
          <path id="Path_6256" data-name="Path 6256" d="M254.475,36.676a11.556,11.556,0,0,0-4.231-1.376q-5.6-.691-13.59,3.924-12.414,7.157-19.97,21.049c-.21.383-.416.772-.615,1.155L205.08,55.086c.2-.383.4-.772.615-1.155q7.588-13.876,19.97-21.049,7.993-4.609,13.6-3.918a11.291,11.291,0,0,1,4.4,1.473C245.451,31.489,253.191,35.958,254.475,36.676Z" transform="translate(-198.214 -28.873)" fill="#0b0754"/>
          <path id="Path_6257" data-name="Path 6257" d="M210.19,83.771a57.09,57.09,0,0,0-6.86,27.2l-10.962-6.331a57.152,57.152,0,0,1,6.86-27.2Z" transform="translate(-192.362 -51.228)" fill="#0b0754"/>
          <path id="Path_6258" data-name="Path 6258" d="M253.321,80.8q-2.985-1.587-7.972,1.241a19.872,19.872,0,0,1-1.209,5.786q-1.247,3.357-7.254,13.849a92.275,92.275,0,0,0-9,20.72,73.478,73.478,0,0,0-2.774,19.97l.054,3.362,7.481,4.318,3.487,2.013-.059-3.368v-.043a73.731,73.731,0,0,1,2.774-19.9,92.045,92.045,0,0,1,9.008-20.714q6-10.492,7.248-13.855a19.711,19.711,0,0,0,1.252-6.93Q256.354,82.417,253.321,80.8Z" transform="translate(-207.433 -52.513)" fill="#ba68c8"/>
          <path id="Path_6259" data-name="Path 6259" d="M254.028,105.2q-1.857,3.864-6.174,11.41a91.817,91.817,0,0,0-9.008,20.72,73.693,73.693,0,0,0-2.774,19.921v.086l.059,3.368-3.487-2.008-7.481-4.318-.054-3.368a73.51,73.51,0,0,1,2.774-19.97,92.275,92.275,0,0,1,9-20.72q4.318-7.556,6.185-11.4Z" transform="translate(-207.433 -61.114)" fill="#0b0754"/>
          <path id="Path_6260" data-name="Path 6260" d="M271.673,87.248a19.709,19.709,0,0,1-1.247,6.908q-.348.947-1.079,2.445L258.39,90.276q.718-1.5,1.079-2.445a19.873,19.873,0,0,0,1.209-5.786q4.987-2.828,7.972-1.241T271.673,87.248Z" transform="translate(-222.751 -52.513)" fill="#0b0754"/>
          <path id="Path_6261" data-name="Path 6261" d="M227.515,85.432,212.679,94a57.507,57.507,0,0,1,7.475-28.357q7.588-13.882,19.97-21.049,7.982-4.615,13.59-3.924t8.976,6.147q3.373,5.457,3.373,13.612a44,44,0,0,1-1.079,9.38,70.618,70.618,0,0,1-3.395,10.794,132.95,132.95,0,0,1-6.514,12.673,122.921,122.921,0,0,0-6.174,11.987,42.888,42.888,0,0,0-2.046,7.756,81.355,81.355,0,0,0-1.079,11.949l-15.344,8.862-.059-3.368a73.51,73.51,0,0,1,2.774-19.97,92.041,92.041,0,0,1,9.008-20.714q6-10.492,7.248-13.855A19.711,19.711,0,0,0,250.632,69q0-4.857-3.028-6.444t-8.128,1.328a22.964,22.964,0,0,0-8.555,9.035,25.907,25.907,0,0,0-3.406,12.516Z" transform="translate(-201.711 -34.263)" fill="#729ecc"/>
          <path id="Path_6262" data-name="Path 6262" d="M251.958,219.743q4.129-2.391,7.049-.3t2.92,7.454a23.154,23.154,0,0,1-2.888,10.843,18.775,18.775,0,0,1-6.968,7.837q-4.086,2.359-6.941.194t-2.861-7.529A23.072,23.072,0,0,1,245.1,227.45,18.461,18.461,0,0,1,251.958,219.743Z" transform="translate(-215.332 -116.14)" fill="#729ecc" opacity="0.6"/>
        </g>
      </g>
    </g>
  </g>
</svg>
