<svg xmlns="http://www.w3.org/2000/svg" width="28" height="28" viewBox="0 0 28 28">
  <g id="Group_6805" data-name="Group 6805" transform="translate(-1287 -1441)">
    <rect id="Rectangle_3135" data-name="Rectangle 3135" width="28" height="28" transform="translate(1287 1441)" fill="none"/>
    <path id="users-light_1_" data-name="users-light (1)" d="M14,14A4.55,4.55,0,1,0,9.485,9.45,4.517,4.517,0,0,0,14,14Zm0-7.7a3.15,3.15,0,1,1-3.15,3.15A3.153,3.153,0,0,1,14,6.3Zm2.187,9.1H11.817A6.034,6.034,0,0,0,5.6,21.232,1.205,1.205,0,0,0,6.843,22.4H21.157A1.205,1.205,0,0,0,22.4,21.232,6.034,6.034,0,0,0,16.183,15.4ZM7.009,21a4.657,4.657,0,0,1,4.773-4.2h4.4A4.607,4.607,0,0,1,20.956,21ZM22.4,7a3.5,3.5,0,1,0-3.5-3.5A3.5,3.5,0,0,0,22.4,7Zm0-5.6a2.1,2.1,0,1,1-2.1,2.1A2.1,2.1,0,0,1,22.4,1.4ZM5.6,7A3.5,3.5,0,1,0,2.1,3.5,3.5,3.5,0,0,0,5.6,7Zm0-5.6A2.1,2.1,0,1,1,3.5,3.5,2.1,2.1,0,0,1,5.6,1.4Zm18.948,7H21.7a3.287,3.287,0,0,0-1.421.325.7.7,0,1,0,.6,1.265,1.921,1.921,0,0,1,.82-.19h2.847A2.166,2.166,0,0,1,26.6,12.018V12.6a.7.7,0,1,0,1.4,0v-.582A3.542,3.542,0,0,0,24.548,8.4ZM7.122,9.988a.7.7,0,1,0,.6-1.265A3.318,3.318,0,0,0,6.3,8.4H3.453A3.543,3.543,0,0,0,0,12.018V12.6a.7.7,0,0,0,1.4,0v-.582A2.142,2.142,0,0,1,3.453,9.8H6.3A1.962,1.962,0,0,1,7.122,9.988Z" transform="translate(1287 1443.8)" fill="#014426"/>
  </g>
</svg>
