<svg xmlns="http://www.w3.org/2000/svg" width="28" height="28" viewBox="0 0 28 28">
  <g id="Group_6802" data-name="Group 6802" transform="translate(17484 21497)">
    <rect id="Rectangle_3138" data-name="Rectangle 3138" width="28" height="28" transform="translate(-17484 -21497)" fill="none"/>
    <path id="box-taped-light" d="M21.4,32a4,4,0,0,1,3.656,2.376l2.6,5.849A4.033,4.033,0,0,1,28,41.85V56a4,4,0,0,1-4,4H4a4,4,0,0,1-4-4V41.85a4,4,0,0,1,.345-1.625l2.6-5.849A4,4,0,0,1,6.6,32Zm3.969,8-2.137-4.812A2.006,2.006,0,0,0,21.4,34H16.875L18,40Zm-9.406,0-1.125-6H13.163l-1.125,6ZM16,42H12v4h4Zm-6,0H2V56a2,2,0,0,0,2,2H24a2,2,0,0,0,2-2V42H18v4a2,2,0,0,1-2,2H12a2,2,0,0,1-2-2Zm0-2,1.125-6H6.6a2,2,0,0,0-1.828,1.188L2.633,40Z" transform="translate(-17484 -21529)" fill="#014426"/>
  </g>
</svg>
