<svg xmlns="http://www.w3.org/2000/svg" width="248" height="248" viewBox="0 0 248 248">
  <g id="Group_6241" data-name="Group 6241" transform="translate(-2376 15588)">
    <rect id="Rectangle_2803" data-name="Rectangle 2803" width="248" height="248" transform="translate(2376 -15588)" fill="none"/>
    <g id="Celebration-amico" transform="translate(2376 -15586.451)">
      <g id="freepik--Floor--inject-96" transform="translate(10.429 114.452)">
        <ellipse id="freepik--floor--inject-96-2" data-name="freepik--floor--inject-96" cx="112.832" cy="65.141" rx="112.832" ry="65.141" fill="#dbdbdb"/>
      </g>
      <g id="freepik--Shadows--inject-96" transform="translate(36.181 185.135)">
        <ellipse id="freepik--Shadow--inject-96" cx="24.574" cy="14.188" rx="24.574" ry="14.188" fill="#ebebeb"/>
        <ellipse id="freepik--shadow--inject-96-2" data-name="freepik--shadow--inject-96" cx="24.574" cy="14.188" rx="24.574" ry="14.188" transform="translate(127.247)" fill="#ebebeb"/>
        <ellipse id="freepik--shadow--inject-96-3" data-name="freepik--shadow--inject-96" cx="27.901" cy="16.111" rx="27.901" ry="16.111" transform="translate(60.221 4.542)" fill="#ebebeb"/>
      </g>
      <g id="freepik--Balloons--inject-96" transform="translate(0 46.066)">
        <path id="Path_6022" data-name="Path 6022" d="M46.982,168.725a15.371,15.371,0,0,1,1.577,8.744c-.324,2.565-1.215,5.05-.891,7.664.508,4.126,3.4,7.416,5.741,10.662a22.241,22.241,0,0,1,3.241,5.736,15.4,15.4,0,0,1,.173,7.772c-.9,4.926-2.16,9.554.6,14.129,1.523,2.517,3.581,4.65,5.012,7.227a24.531,24.531,0,0,1,2.841,9.182c.032.292.594.389.567.059a22.916,22.916,0,0,0-1.971-7.815,37.372,37.372,0,0,0-4.391-6.773,13.785,13.785,0,0,1-3.176-7.437,31.011,31.011,0,0,1,1.08-7.858,18.138,18.138,0,0,0,.308-7.21,16.457,16.457,0,0,0-2.506-5.579c-2.366-3.575-5.709-6.843-6.692-11.131-.718-3.143.54-6.119.745-9.23a13.837,13.837,0,0,0-1.971-8.231c-.113-.184-.394-.14-.281.092Z" transform="translate(-33.388 -141.348)" fill="#37474f"/>
        <path id="Path_6023" data-name="Path 6023" d="M45.672,174.413h0a6.733,6.733,0,0,1,1.62-3.554,6.4,6.4,0,0,1,2.452,2.927h0a1.042,1.042,0,0,1-.47.929,3.2,3.2,0,0,1-2.879.443,1.021,1.021,0,0,1-.729-.745Z" transform="translate(-32.791 -142.424)" fill="#68c873"/>
        <path id="Path_6024" data-name="Path 6024" d="M45.672,174.413h0a6.733,6.733,0,0,1,1.62-3.554,6.4,6.4,0,0,1,2.452,2.927h0a1.042,1.042,0,0,1-.47.929,3.2,3.2,0,0,1-2.879.443,1.021,1.021,0,0,1-.729-.745Z" transform="translate(-32.791 -142.424)" opacity="0.1"/>
        <path id="Path_6025" data-name="Path 6025" d="M22.008,132.988c.994,6.6,7.475,14.14,14.5,14.674,6.519-2.949,10.429-11.747,9.414-18.363s-6.211-12.109-13.908-10.926S20.993,126.388,22.008,132.988Z" transform="translate(-21.83 -118.211)" fill="#e96060"/>
        <path id="Path_6026" data-name="Path 6026" d="M45.925,142.831s-.778,6.605-8.566,8.312c-7.475,1.653-14.9-5.7-15.506-11.223a14.874,14.874,0,0,0,.157,3.052c.994,6.6,7.475,14.14,14.5,14.674,5.4-2.441,9.009-8.9,9.511-14.8Z" transform="translate(-21.832 -128.195)" opacity="0.05"/>
        <path id="Path_6027" data-name="Path 6027" d="M438.679,217.259a14.086,14.086,0,0,0-2.414,5.714,27.483,27.483,0,0,0,.1,6.141,9.165,9.165,0,0,1-2.214,7.021c-1.42,1.62-3.138,2.971-4.423,4.72-2.582,3.516-3.165,7.448-2.636,11.7.6,4.812,1.717,9.338-.6,13.908-1.242,2.452-2.884,4.688-3.754,7.324a23.512,23.512,0,0,0-.983,7.923c0,.3.567.389.573.059a26.227,26.227,0,0,1,.978-7.561,33.328,33.328,0,0,1,3.138-6.287,15.5,15.5,0,0,0,2.16-6.325,25.251,25.251,0,0,0-.405-6.017,34.941,34.941,0,0,1-.675-6.983,13.589,13.589,0,0,1,2.133-6.524c2.214-3.516,6.514-5.676,7.254-10.046.356-2.117-.1-4.267-.2-6.384a15.046,15.046,0,0,1,2.247-8.145c.092-.157-.173-.41-.292-.243Z" transform="translate(-205.745 -163.736)" fill="#37474f"/>
        <path id="Path_6028" data-name="Path 6028" d="M450.982,223.135h0a6.907,6.907,0,0,0-1.4-3.656,6.426,6.426,0,0,0-2.63,2.771h0a1.037,1.037,0,0,0,.405.956,3.241,3.241,0,0,0,2.846.626A1.048,1.048,0,0,0,450.982,223.135Z" transform="translate(-217.341 -164.783)" fill="#68c873"/>
        <path id="Path_6029" data-name="Path 6029" d="M450.982,223.135h0a6.907,6.907,0,0,0-1.4-3.656,6.426,6.426,0,0,0-2.63,2.771h0a1.037,1.037,0,0,0,.405.956,3.241,3.241,0,0,0,2.846.626A1.048,1.048,0,0,0,450.982,223.135Z" transform="translate(-217.341 -164.783)" opacity="0.1"/>
        <path id="Path_6030" data-name="Path 6030" d="M459.532,182.788c-1.431,6.519-8.361,13.632-15.393,13.718-6.319-3.365-9.657-12.39-8.22-18.9s6.973-11.688,14.583-10.013S460.968,176.236,459.532,182.788Z" transform="translate(-212.118 -140.774)" fill="#e96060"/>
        <path id="Path_6031" data-name="Path 6031" d="M435.686,191.686s.383,6.643,8.015,8.847c7.356,2.123,15.231-4.737,16.2-10.213a15.366,15.366,0,0,1-.356,3.041c-1.431,6.519-8.361,13.632-15.393,13.718-5.239-2.787-8.42-9.463-8.544-15.382Z" transform="translate(-212.128 -151.374)" opacity="0.05"/>
      </g>
      <g id="freepik--Confetti--inject-96" transform="translate(2.252 0)">
        <path id="Path_6032" data-name="Path 6032" d="M300.638,43.581c-2.522-.248-5.941,3.964-3.467,5.99,1.372,1.123,4.359.637,4.321-1.464a.27.27,0,0,0-.221-.238c-1.982-.454-3.948.4-3.613,2.7a4.456,4.456,0,0,0,4.175,3.656c.119,0,.076-.205,0-.227a4.395,4.395,0,0,1-3.7-3.284A2.371,2.371,0,0,1,298.5,48.8a1.9,1.9,0,0,1,.88-.594c.3-.092,1.361-.259,1.62,0,.464.481-.8,1.3-1.177,1.426a2.7,2.7,0,0,1-2.285-.216c-1.048-.735-.789-2.117-.281-3.095a4.155,4.155,0,0,1,3.43-2.452c.14,0,.065-.265-.043-.275Z" transform="translate(-150.318 -37.818)" fill="#68c873"/>
        <path id="Path_6033" data-name="Path 6033" d="M305.787,191.248c.794-1.788.708-3.64,3.019-4.229,1.015-.259,3.419-.5,4.18.405a1.08,1.08,0,0,1-.2,1.393c-.6.54-1.048-.108-1.2-.681a2.619,2.619,0,0,1,1.156-2.8,4.645,4.645,0,0,1,6.195.994c.086.108.178,0,.14-.119-1.772-4.078-10.262-1.242-7.561,2.668.826,1.183,2.285.14,2.009-1.113-.3-1.388-2.668-1.318-3.716-1.248a4.288,4.288,0,0,0-2.873,1.107c-.924.907-1.048,2.344-1.242,3.565,0,.054.049.135.086.054Z" transform="translate(-154.63 -102.504)" fill="#68c873"/>
        <path id="Path_6034" data-name="Path 6034" d="M417.923,34.45a6.238,6.238,0,0,1,5.325.767c1.08.864,1.685,2.738.1,3.381-.621.248-2.668.248-2.911-.594-.173-.589.459-.94.967-1.015a2.74,2.74,0,0,1,2.841,2.733c-.049,2.1-2.5,2.8-4.224,2.814-.113,0-.086.216,0,.221,2.944.286,6.227-2.441,3.608-5.174a2.669,2.669,0,0,0-2.819-.853c-.573.232-1.026.751-.74,1.372.459,1,2.306,1.172,3.2.918a1.8,1.8,0,0,0,1.242-2.312c-.724-2.657-4.445-3.241-6.649-2.414-.065,0-.038.178.038.157Z" transform="translate(-206.204 -33.392)" fill="#68c873"/>
        <path id="Path_6035" data-name="Path 6035" d="M458.152,240.879a6.238,6.238,0,0,1,5.325.767c1.08.864,1.685,2.738.1,3.381-.621.248-2.668.248-2.911-.6-.173-.583.459-.934.961-1.015a2.752,2.752,0,0,1,2.846,2.738c-.049,2.1-2.5,2.8-4.224,2.814-.113,0-.086.216,0,.221,2.944.286,6.227-2.441,3.608-5.174a2.669,2.669,0,0,0-2.819-.853c-.573.227-1.026.751-.74,1.372.459,1,2.306,1.172,3.2.913a1.788,1.788,0,0,0,1.242-2.306c-.724-2.663-4.445-3.241-6.649-2.414-.065,0-.043.178.038.157Z" transform="translate(-224.705 -128.328)" fill="#68c873"/>
        <path id="Path_6036" data-name="Path 6036" d="M433.4,91.788c-1.977.589-3.813,4.067-1.977,5.649,1.561,1.345,4.715,1.042,4.191-1.523a.167.167,0,0,0-.108-.13c-2.074-.5-2.76,1.923-2.322,3.521.675,2.484,3.181,2.452,4.991,1.156.059-.043.032-.216-.054-.173-1.48.74-3.554,1.4-4.456-.491-.481-1.01-.5-2.7.432-3.462a1.286,1.286,0,0,1,.891-.346c.691.081.572.826.184,1.3a2.524,2.524,0,0,1-2.7.383c-2.846-1.01-.891-4.7.967-5.736.054-.032.043-.173-.038-.151Z" transform="translate(-212.108 -59.993)" fill="#68c873"/>
        <path id="Path_6037" data-name="Path 6037" d="M347.269,75.675c-2.333-.3-7.351,1.669-6.044,4.861.7,1.7,3.808,2.792,4.828.843a.221.221,0,0,0-.113-.286c-4.861-2.755-9.981,5.2-4.823,8.1.162.092.157-.184.065-.254a4.056,4.056,0,0,1-1.01-5.7,5.352,5.352,0,0,1,2.16-1.955c.664-.313,2.333-.756,2.954-.108.281.3.275-.076.13.275a.994.994,0,0,1-.594.416,2.425,2.425,0,0,1-1.62-.054,2.209,2.209,0,0,1-1.62-2.565c.567-2.393,3.613-3.241,5.747-3.278C347.475,75.966,347.383,75.691,347.269,75.675Z" transform="translate(-169.934 -52.569)" fill="#68c873"/>
        <path id="Path_6038" data-name="Path 6038" d="M374,35.83a5.137,5.137,0,0,0,1.8,4.067l2.031-.621s-1.356-.648-2.031-3.446Z" transform="translate(-186.044 -34.258)" fill="#455a64"/>
        <path id="Path_6039" data-name="Path 6039" d="M310.658,153a5.123,5.123,0,0,0,1.793,4.067l2.036-.621s-1.361-.648-2.036-3.446Z" transform="translate(-156.914 -88.145)" fill="#455a64"/>
        <path id="Path_6040" data-name="Path 6040" d="M341.4,207.54a5.108,5.108,0,0,0,1.8,4.062l2.031-.616s-1.356-.654-2.031-3.446Z" transform="translate(-171.051 -113.228)" fill="#37474f"/>
        <path id="Path_6041" data-name="Path 6041" d="M454.965,59.317a5.138,5.138,0,0,1-3.592,2.619l-1.453-1.555s1.5.119,3.489-1.961Z" transform="translate(-220.962 -44.647)" fill="#455a64"/>
        <path id="Path_6042" data-name="Path 6042" d="M429.174,213.772a5.107,5.107,0,0,1-3.592,2.614l-1.453-1.55s1.507.113,3.489-1.966Z" transform="translate(-209.101 -115.679)" fill="#455a64"/>
        <path id="Path_6043" data-name="Path 6043" d="M367.625,123.042a5.107,5.107,0,0,1-3.592,2.614l-1.453-1.55s1.507.113,3.489-1.966Z" transform="translate(-180.794 -73.952)" fill="#68c873"/>
        <path id="Path_6044" data-name="Path 6044" d="M327.619,69.737a5.122,5.122,0,0,1-3.586,2.619L322.58,70.8s1.5.119,3.489-1.961Z" transform="translate(-162.398 -49.44)" fill="#455a64"/>
        <path id="Path_6045" data-name="Path 6045" d="M411.44,73.946a5.115,5.115,0,0,1-4.18-1.518l.481-2.069s.74,1.312,3.575,1.793Z" transform="translate(-201.342 -50.139)" fill="#68c873"/>
        <path id="Path_6046" data-name="Path 6046" d="M341.7,50.341a5.114,5.114,0,0,1-4.175-1.512l.475-2.069s.745,1.307,3.581,1.793Z" transform="translate(-169.273 -39.285)" fill="#68c873"/>
        <path id="Path_6047" data-name="Path 6047" d="M260.835,39.841a5.114,5.114,0,0,1-4.175-1.512l.475-2.069s.745,1.307,3.575,1.793Z" transform="translate(-132.081 -34.456)" fill="#68c873"/>
        <path id="Path_6048" data-name="Path 6048" d="M318.375,104.356a5.127,5.127,0,0,1-4.175-1.518l.475-2.069s.745,1.312,3.581,1.793Z" transform="translate(-158.544 -64.124)" fill="#68c873"/>
        <path id="Path_6049" data-name="Path 6049" d="M462.265,140.166a5.122,5.122,0,0,1-4.175-1.518l.475-2.069s.745,1.312,3.575,1.793Z" transform="translate(-224.719 -80.593)" fill="#68c873"/>
        <path id="Path_6050" data-name="Path 6050" d="M377.775,94.12a5.123,5.123,0,0,1-3.592,2.619l-1.453-1.555s1.777.275,3.781-1.8Z" transform="translate(-185.462 -60.726)" fill="#455a64"/>
        <path id="Path_6051" data-name="Path 6051" d="M383.047,100.831a5.109,5.109,0,0,1-2.7,3.538l-1.836-1.08a6.735,6.735,0,0,0,3.084-2.809Z" transform="translate(-188.12 -63.991)" fill="#37474f"/>
        <path id="Path_6052" data-name="Path 6052" d="M216.812,39.841c2.528-.248,5.941,3.959,3.467,5.984-1.366,1.129-4.359.637-4.321-1.464a.27.27,0,0,1,.221-.232c1.988-.454,3.948.394,3.613,2.7a4.445,4.445,0,0,1-4.17,3.651c-.124,0-.081-.205,0-.221a4.395,4.395,0,0,0,3.694-3.289,2.339,2.339,0,0,0-.373-1.907,1.853,1.853,0,0,0-.9-.6c-.292-.092-1.361-.259-1.593,0-.47.486.8,1.3,1.177,1.426a2.663,2.663,0,0,0,2.279-.216c1.048-.729.789-2.112.281-3.095a4.142,4.142,0,0,0-3.43-2.447c-.135,0-.065-.265.043-.275Z" transform="translate(-113.173 -36.098)" fill="#68c873"/>
        <path id="Path_6053" data-name="Path 6053" d="M199.051,197.788c-.794-1.788-.713-3.64-3.019-4.234-1.015-.259-3.419-.5-4.186.41a1.08,1.08,0,0,0,.2,1.388c.6.54,1.08-.108,1.21-.675a2.625,2.625,0,0,0-1.156-2.8,4.645,4.645,0,0,0-6.222,1c-.081.1-.173,0-.135-.119,1.772-4.078,10.262-1.242,7.561,2.668-.826,1.183-2.29.135-2.015-1.113.308-1.388,2.7-1.318,3.716-1.253a4.321,4.321,0,0,1,2.879,1.107c.924.913,1.048,2.349,1.242,3.565,0,.059-.049.135-.086.059Z" transform="translate(-99.462 -105.512)" fill="#68c873"/>
        <path id="Path_6054" data-name="Path 6054" d="M81.8,34.45a6.253,6.253,0,0,0-5.331.767c-1.08.864-1.68,2.738-.1,3.381.621.248,2.668.248,2.911-.594.173-.589-.459-.94-.967-1.015a2.747,2.747,0,0,0-2.846,2.733c.054,2.1,2.5,2.8,4.229,2.814.113,0,.086.216,0,.221-2.944.286-6.227-2.441-3.613-5.174a2.681,2.681,0,0,1,2.825-.853c.573.232,1.026.751.74,1.372-.459,1-2.306,1.172-3.2.918a1.8,1.8,0,0,1-1.242-2.312c.724-2.657,4.44-3.241,6.649-2.414.065,0,.038.178-.038.157Z" transform="translate(-48.589 -33.392)" fill="#68c873"/>
        <path id="Path_6055" data-name="Path 6055" d="M46.088,237.19a6.253,6.253,0,0,0-5.331.767c-1.08.864-1.685,2.738-.1,3.381.621.248,2.663.248,2.911-.594.167-.589-.464-.94-.967-1.015a2.744,2.744,0,0,0-2.846,2.733c.049,2.1,2.5,2.8,4.224,2.814.119,0,.086.216,0,.227-2.944.281-6.227-2.447-3.613-5.18a2.672,2.672,0,0,1,2.819-.853c.578.232,1.032.751.745,1.372-.459,1-2.312,1.172-3.208.918a1.793,1.793,0,0,1-1.237-2.312c.718-2.657,4.44-3.214,6.649-2.414.065,0,.038.178-.038.157Z" transform="translate(-32.159 -126.637)" fill="#68c873"/>
        <path id="Path_6056" data-name="Path 6056" d="M55.567,93.638c1.977.589,3.813,4.067,1.977,5.649-1.561,1.35-4.715,1.042-4.191-1.523a.178.178,0,0,1,.108-.13c2.074-.491,2.76,1.928,2.322,3.527-.675,2.479-3.181,2.452-4.991,1.15-.059-.043-.032-.211.054-.167,1.48.74,3.554,1.393,4.456-.5.481-1.01.5-2.7-.432-3.457a1.291,1.291,0,0,0-.891-.351c-.691.081-.573.832-.184,1.3a2.524,2.524,0,0,0,2.7.383c2.846-1,.891-4.7-.967-5.736-.054-.032-.043-.173.038-.151Z" transform="translate(-37.388 -60.843)" fill="#68c873"/>
        <path id="Path_6057" data-name="Path 6057" d="M69.126,175.406c-3.365.27-2.76,6.659-.043,7.524a1.339,1.339,0,0,0,1.032-.054,1.5,1.5,0,0,0,.61-1.28c-.324-1.08-2.16.292-2.371.718a3.143,3.143,0,0,0,.259,3.678c1.383,1.5,4.029,1.545,5.757.681.086-.049.1.119.043.162-1.863,1.194-4.985,1.021-6.368-.87-1.08-1.512-.34-5.525,2.069-5.169,2.247.329.691,2.89-1.01,2.549s-2.317-2.6-2.479-4c-.205-1.761.319-4.137,2.5-4.1C69.2,175.25,69.191,175.4,69.126,175.406Z" transform="translate(-44.665 -98.377)" fill="#68c873"/>
        <path id="Path_6058" data-name="Path 6058" d="M149.415,75.675c2.333-.3,7.351,1.669,6.044,4.861-.7,1.7-3.808,2.792-4.828.843a.221.221,0,0,1,.113-.286c4.861-2.755,9.981,5.2,4.823,8.1-.162.092-.157-.184-.065-.254a4.056,4.056,0,0,0,1.01-5.709,5.352,5.352,0,0,0-2.16-1.955c-.664-.313-2.333-.756-2.954-.108-.281.3-.275-.076-.13.275a.994.994,0,0,0,.594.416,2.425,2.425,0,0,0,1.62-.054,2.209,2.209,0,0,0,1.62-2.565c-.567-2.393-3.613-3.241-5.747-3.278-.146,0-.054-.275.059-.292Z" transform="translate(-82.697 -52.569)" fill="#68c873"/>
        <path id="Path_6059" data-name="Path 6059" d="M128.739,44.625a5.117,5.117,0,0,1-1.8,4.067l-2.031-.627s1.356-.648,2.031-3.446Z" transform="translate(-71.489 -38.301)" fill="#455a64"/>
        <path id="Path_6060" data-name="Path 6060" d="M206.449,164.41a5.117,5.117,0,0,1-1.8,4.067l-2.031-.616s1.356-.654,2.031-3.451Z" transform="translate(-107.228 -93.393)" fill="#455a64"/>
        <path id="Path_6061" data-name="Path 6061" d="M191.589,222.26a5.137,5.137,0,0,1-1.8,4.067l-2.031-.621s1.356-.648,2.031-3.446Z" transform="translate(-100.394 -119.998)" fill="#37474f"/>
        <path id="Path_6062" data-name="Path 6062" d="M44.61,59.317A5.138,5.138,0,0,0,48.2,61.936l1.48-1.555s-1.5.119-3.489-1.961Z" transform="translate(-34.559 -44.647)" fill="#455a64"/>
        <path id="Path_6063" data-name="Path 6063" d="M91.13,208.507a5.123,5.123,0,0,0,3.592,2.619l1.453-1.555s-1.507.119-3.489-1.961Z" transform="translate(-55.953 -113.26)" fill="#455a64"/>
        <path id="Path_6064" data-name="Path 6064" d="M138.49,128.647a5.123,5.123,0,0,0,3.592,2.619l1.447-1.555s-1.5.119-3.484-1.961Z" transform="translate(-77.734 -76.533)" fill="#68c873"/>
        <path id="Path_6065" data-name="Path 6065" d="M182,72.107a5.123,5.123,0,0,0,3.592,2.619l1.447-1.555s-1.5.119-3.484-1.961Z" transform="translate(-97.745 -50.53)" fill="#455a64"/>
        <path id="Path_6066" data-name="Path 6066" d="M88.86,73.946a5.115,5.115,0,0,0,4.18-1.518L92.56,70.36s-.74,1.312-3.575,1.793Z" transform="translate(-54.909 -50.139)" fill="#68c873"/>
        <path id="Path_6067" data-name="Path 6067" d="M171,36.5a5.123,5.123,0,0,0,4.18-1.512l-.475-2.069s-.745,1.307-3.581,1.793Z" transform="translate(-92.686 -32.92)" fill="#68c873"/>
        <path id="Path_6068" data-name="Path 6068" d="M181.91,100.316a5.127,5.127,0,0,0,4.175-1.518l-.475-2.069s-.745,1.312-3.581,1.793Z" transform="translate(-97.703 -62.266)" fill="#68c873"/>
        <path id="Path_6069" data-name="Path 6069" d="M26,195.406a5.123,5.123,0,0,0,4.18-1.512l-.475-2.074s-.745,1.312-3.581,1.793Z" transform="translate(-26 -105.998)" fill="#68c873"/>
        <path id="Path_6070" data-name="Path 6070" d="M121.8,94.12a5.123,5.123,0,0,0,3.592,2.619l1.453-1.555s-1.777.275-3.781-1.8Z" transform="translate(-70.059 -60.726)" fill="#455a64"/>
        <path id="Path_6071" data-name="Path 6071" d="M117,100.831a5.109,5.109,0,0,0,2.7,3.538l1.836-1.08a6.735,6.735,0,0,1-3.084-2.809Z" transform="translate(-67.851 -63.991)" fill="#37474f"/>
        <path id="Path_6072" data-name="Path 6072" d="M270.585,75.61a5.123,5.123,0,0,1-3.592,2.619l-1.453-1.55s1.777.27,3.781-1.809Z" transform="translate(-136.165 -52.213)" fill="#455a64"/>
        <path id="Path_6073" data-name="Path 6073" d="M249.457,70.761a5.125,5.125,0,0,1-2.7,3.543l-1.836-1.08A6.724,6.724,0,0,0,248,70.41Z" transform="translate(-126.682 -50.162)" fill="#37474f"/>
      </g>
      <g id="freepik--character-3--inject-96" transform="translate(170.091 42.33)">
        <path id="Path_6074" data-name="Path 6074" d="M380.339,275.664a31.866,31.866,0,0,0,.648,5.5c.9,11.288,2.069,13.94,3.419,21.755.146.875.5,2.609.54,3.187.065.729.4,6.244.7,7.885.427,2.409,4.429,2.468,4.737-.329a68.654,68.654,0,0,0-.329-7.675v-2.36c0-3.511.578-10.262.913-16.36a24.87,24.87,0,0,0-1.264-9.182s1.156-7.448,2.56-15.663,4.823-17.623-2.015-25.066l-9.435,3.241s-.967,15.08-.6,27.34C380.285,271.44,380.344,273.952,380.339,275.664Z" transform="translate(-356.702 -169.272)" fill="#ffbda7"/>
        <path id="Path_6075" data-name="Path 6075" d="M370.552,332.9a31.034,31.034,0,0,1,3.338,6.481,15.177,15.177,0,0,1-1.663,3.289l-3.856-5.028C369.121,336.06,369.834,334.477,370.552,332.9Z" transform="translate(-351.296 -213.211)" fill="#263238"/>
        <path id="Path_6076" data-name="Path 6076" d="M368.929,348.181h-5.147c-.859-1.107-1.728-2.2-2.582-3.311,1.793.054,3.586.162,5.4.211Z" transform="translate(-347.998 -218.716)"/>
        <path id="Path_6077" data-name="Path 6077" d="M359.693,328.628c1.08-.794,1.177.151,2.106.583a5.68,5.68,0,0,1,2.36,1.572c.886,1.21.189,3.365-.243,4.915a8.393,8.393,0,0,0,.049,4.6c.513,2.236.465,4.062-1.248,6.017-1.366,1.566-5.7,3.467-7.194,2.5-2.544-1.62,1.188-5.25,1.134-7.41a38.065,38.065,0,0,0-1.08-8.161c-.1-.427-.146-.88.113-1.08C356.852,331.124,358.613,329.422,359.693,328.628Z" transform="translate(-344.979 -211.105)" fill="#37474f"/>
        <path id="Path_6078" data-name="Path 6078" d="M354.243,236.705c-2.079,2.457-12.114,14.912-14.728,19.173-1.717,2.8-.54,6.481.41,9.56,1.237,4.11,3,8.809,4.029,11.839,1.928,5.649,3.354,8.642,4.9,13.535.9.934,2.5.13,3.386-.5a5.007,5.007,0,0,0,1.48-3.413c-.281-2.787-.243-3.241-.6-6.481-.54-5.174-.443-13.254-3.959-17.926,5.266-5.838,11.04-9.938,14.88-16.77C359.9,243.489,357.273,233.124,354.243,236.705Z" transform="translate(-337.622 -168.628)" fill="#ffbda7"/>
        <path id="Path_6079" data-name="Path 6079" d="M387.493,363.32c-.654.081-.686.6-.708,3.154a55.085,55.085,0,0,1-.5,8.145c-.475,2.868-.978,5.941,1.361,8.48,1.372,1.5,3.624,1.847,5.212-.572,1.48-2.252,2.414-4.386,1.7-6.946a26.929,26.929,0,0,1-1.134-6.74c-.113-3.559.086-5.46-.724-5.455v.54a2.971,2.971,0,0,1-2.517,1.14c-1.62.065-2.349-.54-2.587-1.021C387.569,363.8,387.531,363.563,387.493,363.32Z" transform="translate(-359.352 -227.202)" fill="#37474f"/>
        <path id="Path_6080" data-name="Path 6080" d="M353.658,233c-1.037,1.961-4.585,6.081-8.733,11.747-2.868,3.921-7.9,9.873-8.161,12.795s6.789,20.432,6.789,20.432,5.882.691,8.539-2.274c.092-4.9-.54-10.851-3.143-14.313,1.156-1.172,9.522-9.884,11.045-11.7,0,0-.248,8.577-.265,13.438s.54,14.583.961,17.694.988,7.729,1.231,9.182c0,0,3.635,3.359,9.182-.113a55.63,55.63,0,0,0,.367-7.07,47.389,47.389,0,0,0-1.356-6.649s2.16-13.2,3.214-19.049,3.052-14.793-2.236-23.375C371.114,233.735,361.117,237.018,353.658,233Z" transform="translate(-336.757 -167.267)" fill="#455a64"/>
        <path id="Path_6081" data-name="Path 6081" d="M372.983,259.961s-3.354-2.128-4.742-4.591a9.955,9.955,0,0,0,2.7,4.591L365,268.484Z" transform="translate(-349.746 -177.555)" fill="#37474f"/>
        <path id="Path_6082" data-name="Path 6082" d="M340.753,141.138c4.159,9.463,9.787,12.763,12.422,18.833,3.327-.265,7.9-5.806,5.374-9.214-2.846-1.161-12.125-11.018-12.709-15.215-.513-3.727-2.592-9.511-2.538-12.617a2.161,2.161,0,0,1,.583-1.388c1.01-1.113,1-1.993,1.62-3.241.5-.951,1.053-1.312.891-1.523a1.221,1.221,0,0,0-1.658-.1,6.011,6.011,0,0,0-1.242,1.221,12.421,12.421,0,0,1,.956-3.365c1.08-2.571.81-3.872-2.63-2.922-2.16.6-3.494,2.414-3.754,7.621a51.379,51.379,0,0,0,.038,6.481c.427,4,.88,7.826,1.415,11.131A17.478,17.478,0,0,0,340.753,141.138Z" transform="translate(-337.321 -111.294)" fill="#ffbda7"/>
        <path id="Path_6083" data-name="Path 6083" d="M364.53,207.977c-.3-1.393-.648-4.024-.859-5.941-3.505-3.284-2.522-6.865-1.248-9.5,2.549-5.271,5.018-8.264,7.324-8.177l6.319.47c3.446.405,5.806.8,6.638.978,2.128.464,2.063,2.009,2.16,4.261a23.927,23.927,0,0,1-.232,6.962l-2.906,6.281-.259,3.867s3.521,7.07,4.159,11.661a9.333,9.333,0,0,1-4.521-2.922s-2.738,4.132-9.533,4.472-10.154-5.7-10.154-5.7Z" transform="translate(-348.023 -144.896)" fill="#ab72cc"/>
        <path id="Path_6084" data-name="Path 6084" d="M383.612,213.46A5.628,5.628,0,0,1,378.3,216.5a5.941,5.941,0,0,1-5.088-3.106s.2,4.148,5.1,4.1S383.612,213.46,383.612,213.46Z" transform="translate(-353.522 -158.248)" opacity="0.1"/>
        <path id="Path_6085" data-name="Path 6085" d="M381.2,138.418c2.312,1.194,3.494,2.63,5.4,3.16a5.047,5.047,0,0,0,4.861-1.215c1.62-1.334,2.387-3.019,4.067-4.056a6.85,6.85,0,0,1,5.644-1.042c2.333.794,3.629,3.295,4.234,5.682a11.429,11.429,0,0,1-1.215,8.9,23.878,23.878,0,0,1-12.9,9.646,26.108,26.108,0,0,1-19.546-1.755c-2.484-1.275-3.284-2.382-5.082-4.45s-2.468-4.6-1.907-7.945c.54-3.2,2.247-5.266,5.514-6.978a11.342,11.342,0,0,1,10.932.054Z" transform="translate(-349.544 -122.201)" fill="#68c873"/>
        <path id="Path_6086" data-name="Path 6086" d="M381.2,138.418c2.312,1.194,3.494,2.63,5.4,3.16a5.047,5.047,0,0,0,4.861-1.215c1.62-1.334,2.387-3.019,4.067-4.056a6.85,6.85,0,0,1,5.644-1.042c2.333.794,3.629,3.295,4.234,5.682a11.429,11.429,0,0,1-1.215,8.9,23.878,23.878,0,0,1-12.9,9.646,26.108,26.108,0,0,1-19.546-1.755c-2.484-1.275-3.284-2.382-5.082-4.45s-2.468-4.6-1.907-7.945c.54-3.2,2.247-5.266,5.514-6.978a11.342,11.342,0,0,1,10.932.054Z" transform="translate(-349.544 -122.201)" opacity="0.5"/>
        <path id="Path_6087" data-name="Path 6087" d="M371.2,148.8c-1.2.67-2.7,3.6-2.733,9.835,0,5.277,1.674,6.622,2.522,7.021s2.511.205,4.126,0l-.076,3.17s-4.564,4.758-.875,5.315c1.842.281,4.2-.832,5.8-2.036a6.481,6.481,0,0,0,2.128-3.273l.13-6.892s.924.945,2.565-.421c1.356-1.129,1.847-3.073.837-4.148a2.312,2.312,0,0,0-3.694.648s-.945.054-1.847-1.723a7.183,7.183,0,0,1-4.51-1.123A9.868,9.868,0,0,1,371.2,148.8Z" transform="translate(-351.342 -128.543)" fill="#ffbda7"/>
        <path id="Path_6088" data-name="Path 6088" d="M381.158,163.712a.666.666,0,1,0,1.329.092.666.666,0,1,0-1.329-.092Z" transform="translate(-357.176 -135.116)" fill="#263238"/>
        <g id="Group_6235" data-name="Group 6235" transform="translate(20.968 32.992)" opacity="0.5">
          <path id="Path_6089" data-name="Path 6089" d="M377.665,172.38l-2.085.61a1.08,1.08,0,0,0,1.329.772A1.134,1.134,0,0,0,377.665,172.38Z" transform="translate(-375.58 -172.38)" fill="#f0997a"/>
        </g>
        <path id="Path_6090" data-name="Path 6090" d="M370.044,159.054l1.366-.9a.783.783,0,0,0-1.113-.259A.859.859,0,0,0,370.044,159.054Z" transform="translate(-352.009 -132.667)" fill="#263238"/>
        <path id="Path_6091" data-name="Path 6091" d="M383,159.564l1.512.627a.783.783,0,0,0-.416-1.08.859.859,0,0,0-1.1.454Z" transform="translate(-358.024 -133.258)" fill="#263238"/>
        <path id="Path_6092" data-name="Path 6092" d="M370.74,163.172a.664.664,0,1,0,.713-.643.675.675,0,0,0-.713.643Z" transform="translate(-352.385 -134.857)" fill="#263238"/>
        <g id="Group_6236" data-name="Group 6236" transform="translate(19.262 28.012)" opacity="0.5">
          <path id="Path_6093" data-name="Path 6093" d="M374.7,163.16l-.2,3.991-2.085-.7Z" transform="translate(-372.42 -163.16)" fill="#f0997a"/>
        </g>
        <g id="Group_6237" data-name="Group 6237" transform="translate(23.755 34.639)" opacity="0.5">
          <path id="Path_6094" data-name="Path 6094" d="M380.762,177.9c1.707-.178,5.217-1.08,5.8-2.468a3.559,3.559,0,0,1-1.264,1.734c-1.08.87-4.553,1.793-4.553,1.793Z" transform="translate(-380.74 -175.43)" fill="#f0997a"/>
        </g>
        <path id="Path_6095" data-name="Path 6095" d="M391.776,164.353l-.065,2.771h0a1.885,1.885,0,0,1-1.842-1.934l.059-2.56Z" transform="translate(-361.183 -134.904)" fill="#68c873"/>
        <path id="Path_6096" data-name="Path 6096" d="M391.776,164.353l-.065,2.771h0a1.885,1.885,0,0,1-1.842-1.934l.059-2.56Z" transform="translate(-361.183 -134.904)" opacity="0.5"/>
        <path id="Path_6097" data-name="Path 6097" d="M412.411,142.67c-3.927,9.56-8.787,15.414-11.958,21.528-5.4.319-5.892-8.026-3.457-11.493,0,0,9.387-11.342,10.219-15.506.735-3.689,2.366-9.571,2.231-12.676a2.106,2.106,0,0,0-.616-1.372c-1.032-1.08-1.042-1.971-1.717-3.181-.54-.94-1.08-1.285-.929-1.5a1.221,1.221,0,0,1,1.658-.14,6.048,6.048,0,0,1,1.269,1.188,12.523,12.523,0,0,0-1.037-3.338c-1.161-2.544-.9-3.856,2.56-2.987,2.16.54,3.548,2.333,3.937,7.529a50.679,50.679,0,0,1,.113,6.481c-.324,4.008-.691,7.842-1.14,11.164a17.555,17.555,0,0,1-1.134,4.3Z" transform="translate(-363.817 -112.044)" fill="#ffbda7"/>
      </g>
      <g id="freepik--character-2--inject-96" transform="translate(98.107 23.27)">
        <path id="Path_6098" data-name="Path 6098" d="M227.48,364.523A3.714,3.714,0,0,0,229.64,367c2.42.8,5.563-1.275,6.865-2.825,1.577-1.88,1.815-3.883,2.971-5.444s2.787-2.549,3.575-3.9a3.554,3.554,0,0,0,.232-3.424,3.894,3.894,0,0,0-1.62-1.582c-.178-.108-.492-.119-.686-.227Z" transform="translate(-214.516 -201.832)" fill="#263238"/>
        <path id="Path_6099" data-name="Path 6099" d="M231.861,352.584a6.714,6.714,0,0,1-1.113,2.7,32.145,32.145,0,0,1-3.478,3.489,3.781,3.781,0,0,0-1.015,1.264c-.5,1.3.086,2.344,1,3.354a3.386,3.386,0,0,0,1.4.767,4.423,4.423,0,0,0,2.344,0,9.079,9.079,0,0,0,3.84-2.555c2.047-2.29,1.917-5.3,4.359-7.307s4.083-4.153,1.593-6.746a34.991,34.991,0,0,0-2.922-2.258c-.648-.8-2.16.6-2.641,1.015s-.945.9-1.437,1.329a14.154,14.154,0,0,0-1.242,1.62,2.122,2.122,0,0,0-.383.54,2.16,2.16,0,0,0-.1.821,9.877,9.877,0,0,1-.205,1.966Z" transform="translate(-213.869 -199.739)" fill="#37474f"/>
        <path id="Path_6100" data-name="Path 6100" d="M234.784,371.644a6.811,6.811,0,0,0,.767-.972,5.477,5.477,0,0,0-2.16-2.83,5.358,5.358,0,0,0-4.348-.756,15.055,15.055,0,0,0-2.112,1.566,3.273,3.273,0,0,0-.945,1.383,3.241,3.241,0,0,0,1.21,3.451,2.982,2.982,0,0,0,1.345.713,4.445,4.445,0,0,0,2.349,0,9.84,9.84,0,0,0,3.894-2.555Z" transform="translate(-213.777 -209.796)" fill="#fafafa"/>
        <path id="Path_6101" data-name="Path 6101" d="M239.4,337.92l1.458,4.467s1.118,1.464-.643,3.16-3.732,1.62-4.58.589l-2.511-4.742Z" transform="translate(-217.11 -196.461)" fill="#b16668"/>
        <path id="Path_6102" data-name="Path 6102" d="M309.2,303.639a4.056,4.056,0,0,0,3.273-.221c1.95-1.329,2.366-5.244,1.755-7.41-.745-2.625-2.2-3.954-2.7-5.531s-.362-3.835-1.021-5.212a4.137,4.137,0,0,0-2.7-2.16,2.517,2.517,0,0,0-2.16.405l-.589.432Z" transform="translate(-250.195 -171.21)" fill="#263238"/>
        <path id="Path_6103" data-name="Path 6103" d="M299.691,294.273a6.2,6.2,0,0,1,1.485,2.538,27.752,27.752,0,0,1,.751,4.861,4.58,4.58,0,0,0,.416,1.566c.594,1.14,1.95,1.35,3.3,1.177a3.608,3.608,0,0,0,1.474-.7,4.321,4.321,0,0,0,1.377-1.89,9.235,9.235,0,0,0,.205-4.645c-.492-2.927-3.435-4.861-3.4-7.745s-1.653-6.616-5.282-4.7a20.267,20.267,0,0,0-4.861,3.781c.864,1.3,1.75,2.587,2.6,3.894a4.065,4.065,0,0,0,.621.913c.373.329.859.508,1.231.864Z" transform="translate(-245.642 -171.76)" fill="#37474f"/>
        <path id="Path_6104" data-name="Path 6104" d="M314.175,307.068a5.784,5.784,0,0,0-.34-1.177,5.2,5.2,0,0,0-3.527.032,4.915,4.915,0,0,0-3.187,3.095,15.276,15.276,0,0,0,0,2.63,3.684,3.684,0,0,0,.54,1.588c.794,1.15,2.074,1.237,3.424,1.08a3.64,3.64,0,0,0,1.474-.7,4.353,4.353,0,0,0,1.377-1.89,9.236,9.236,0,0,0,.238-4.661Z" transform="translate(-251.117 -181.596)" fill="#fafafa"/>
        <path id="Path_6105" data-name="Path 6105" d="M296.574,288.817l2.285-.1a4.089,4.089,0,0,1,2.333,2.9,4.769,4.769,0,0,1-.961,3.71l-3.781.5.113-6.859" transform="translate(-246.235 -173.833)" fill="#b16668"/>
        <path id="Path_6106" data-name="Path 6106" d="M253.988,257.441l-15.776.157s2.863-21.166,1.917-33.556l-25.32-2.911-.076.157a293.529,293.529,0,0,0-10.926,36.343c-.735,3.349-.356,4.261,2.247,9.182,3.656,6.9,9.878,16.138,14.334,23.149,3.521-.313,5.4-1.383,6.211-4.294-2.765-6.443-5.1-20.345-11.342-26.243,3.484-6.211,6.751-13.346,10.078-20.2.1,4.364.54,18.671,2.058,24.564.94,3.7,2.992,5.909,7.086,5.255,5.7-.913,20.772-4.288,20.772-4.288C258.277,264.322,257.521,258.667,253.988,257.441Z" transform="translate(-203.477 -142.749)" fill="#68c873"/>
        <path id="Path_6107" data-name="Path 6107" d="M253.988,257.441l-15.776.157s2.863-21.166,1.917-33.556l-25.32-2.911-.076.157a293.529,293.529,0,0,0-10.926,36.343c-.735,3.349-.356,4.261,2.247,9.182,3.656,6.9,9.878,16.138,14.334,23.149,3.521-.313,5.4-1.383,6.211-4.294-2.765-6.443-5.1-20.345-11.342-26.243,3.484-6.211,6.751-13.346,10.078-20.2.1,4.364.54,18.671,2.058,24.564.94,3.7,2.992,5.909,7.086,5.255,5.7-.913,20.772-4.288,20.772-4.288C258.277,264.322,257.521,258.667,253.988,257.441Z" transform="translate(-203.477 -142.749)" fill="#0d4681"/>
        <path id="Path_6108" data-name="Path 6108" d="M266.965,288.581a10.006,10.006,0,0,1-1,4.991,7.864,7.864,0,0,0,1.961-2.911c.648-1.761,5.7-1.345,9.484-2.16Z" transform="translate(-232.213 -173.732)" opacity="0.2"/>
        <path id="Path_6109" data-name="Path 6109" d="M238.375,247.19l-.248-3.986a20.621,20.621,0,0,1-5.66-4.774,21.87,21.87,0,0,0,4.5,5.153l.378,2.819-5.509,14.334Z" transform="translate(-216.521 -150.705)" opacity="0.2"/>
        <path id="Path_6110" data-name="Path 6110" d="M224.219,292a4.774,4.774,0,0,1-1.269,1.258,12.719,12.719,0,0,1,3.824,3.214,44.564,44.564,0,0,1,3.111,4.861C228.378,297.649,226.59,294.258,224.219,292Z" transform="translate(-212.433 -175.342)" opacity="0.2"/>
        <path id="Path_6111" data-name="Path 6111" d="M207,112.13c.778,2,10.381,16.2,12.687,19.6,6.557-2.8,2.193-10.5,2.193-10.5s-6.892-11.153-8.01-13.033a4.116,4.116,0,0,1-.486-1.55c-.14-.994-.627-13.189-.032-16.873a2.7,2.7,0,0,1,.978-1.658,15.663,15.663,0,0,0,2.836-3.467c.762-1.032,1.485-1.356,1.329-1.62a1.453,1.453,0,0,0-1.934-.421,10.218,10.218,0,0,0-1.977,1.41,13.5,13.5,0,0,1,1.7-4c1.772-2.83,1.669-4.413-2.56-3.921-2.652.308-5.234,2.36-6.481,8.447a54.88,54.88,0,0,0-.578,6.659c-.292,5.153-.486,13.308-.389,16.878A8.254,8.254,0,0,0,207,112.13Z" transform="translate(-204.754 -76.006)" fill="#f6c7ad"/>
        <path id="Path_6112" data-name="Path 6112" d="M229.238,149.773c-2.274-.335-9.722-8.485-9.722-8.485-2.079-.119-7.178,5.212-6.168,7.383,3.03,5.045,6.881,9.722,7.929,12.962.87,1.826,3.2.275,4.2-3.565C226.889,152.76,231.085,150.065,229.238,149.773Z" transform="translate(-207.957 -106.028)" fill="#68c873"/>
        <path id="Path_6113" data-name="Path 6113" d="M229.238,149.773c-2.274-.335-9.722-8.485-9.722-8.485-2.079-.119-7.178,5.212-6.168,7.383,3.03,5.045,6.881,9.722,7.929,12.962.87,1.826,3.2.275,4.2-3.565C226.889,152.76,231.085,150.065,229.238,149.773Z" transform="translate(-207.957 -106.028)" fill="#ffe6ab"/>
        <path id="Path_6114" data-name="Path 6114" d="M250.989,166.305l-.54,9.679-.589,20.583c-7.47,3.494-18.5,1.388-26-4.656,0,0,.427-23.689,1.971-29.165s4.321-6.562,8.182-6.443c4.078.13,9.317.7,9.317.7l4.461,1.188S251.081,164.366,250.989,166.305Z" transform="translate(-212.851 -112.931)" fill="#ffb505"/>
        <path id="Path_6115" data-name="Path 6115" d="M279.232,145.29c.508-.259,2.846.907,4.272,2.922s1.523,4.861,1.08,5.4S278.4,151.6,278.4,151.6Z" transform="translate(-237.934 -107.853)" fill="#68c873"/>
        <path id="Path_6116" data-name="Path 6116" d="M279.232,145.29c.508-.259,2.846.907,4.272,2.922s1.523,4.861,1.08,5.4S278.4,151.6,278.4,151.6Z" transform="translate(-237.934 -107.853)" opacity="0.6"/>
        <path id="Path_6117" data-name="Path 6117" d="M282.392,116.817c-.956,1.923-11.855,15.15-14.475,18.32-6.26-3.4-1.188-10.662-1.188-10.662s7.9-10.429,9.192-12.222a4.18,4.18,0,0,0,.637-1.5c.227-.983,1.863-13.076,1.62-16.8a2.7,2.7,0,0,0-.816-1.739,15.572,15.572,0,0,1-2.5-3.727c-.664-1.08-1.35-1.485-1.172-1.75a1.458,1.458,0,0,1,1.966-.238A10.09,10.09,0,0,1,277.5,88.1a13.568,13.568,0,0,0-1.323-4.143c-1.5-2.981-1.242-4.553,2.922-3.667,2.609.54,4.991,2.852,5.676,9.025A54.694,54.694,0,0,1,284.719,96c-.194,5.163-.767,13.3-1.2,16.846A8.56,8.56,0,0,1,282.392,116.817Z" transform="translate(-231.675 -77.863)" fill="#f6c7ad"/>
        <path id="Path_6118" data-name="Path 6118" d="M264.829,152.831l7.848-7.561s-.708,6.481,5.342,8.334L269,165.005c-1.042,1.739-3.9-.54-4.537-4.44C263.576,155.132,264.829,152.831,264.829,152.831Z" transform="translate(-231.379 -107.86)" fill="#68c873"/>
        <path id="Path_6119" data-name="Path 6119" d="M264.829,152.831l7.848-7.561s-.708,6.481,5.342,8.334L269,165.005c-1.042,1.739-3.9-.54-4.537-4.44C263.576,155.132,264.829,152.831,264.829,152.831Z" transform="translate(-231.379 -107.86)" fill="#ffe6ab"/>
        <path id="Path_6120" data-name="Path 6120" d="M245.8,119.29a6.983,6.983,0,1,1-6.649-7.3,6.983,6.983,0,0,1,6.649,7.3Z" transform="translate(-216.523 -92.553)" fill="#263238"/>
        <path id="Path_6121" data-name="Path 6121" d="M263.842,135.14a61.227,61.227,0,0,1-1.874,6.109,2.42,2.42,0,0,1-1.447,1.08l.259-3.737Z" transform="translate(-229.711 -103.202)" fill="#263238"/>
        <path id="Path_6122" data-name="Path 6122" d="M263.763,120.915a2.614,2.614,0,0,1,2.128.864c.886,1,.227,3.954-1.08,6.816l-2.16.14Z" transform="translate(-230.691 -96.657)" fill="#263238"/>
        <path id="Path_6123" data-name="Path 6123" d="M248.589,125.5c.416.275,1.08-.513,1.62-1.042a1.858,1.858,0,0,1,3.084.648c.772,1.847-.961,4.24-2.333,4.6-2.371.621-2.646-.891-2.646-.891l-.583,8.642h0c-3.073,3.581-11.11,2.884-7.561-.843l.124-2.56a14.82,14.82,0,0,1-3.149,0c-1.707-.346-2.7-1.755-3.154-3.635-.7-3.019-.9-5.444.086-11.277,1.08-6.395,8.566-6.109,12.482-3.376S248.589,125.5,248.589,125.5Z" transform="translate(-217.24 -93.448)" fill="#f6c7ad"/>
        <path id="Path_6124" data-name="Path 6124" d="M248.3,124.309c.216,0,1.08-1.3,1.647-1.761.772-.637.108-6.751.108-6.751a2.954,2.954,0,0,0-.356-3.3c-.956-1.156-2.3-2.582-6.9-2.258-3.284.232-6.886,1.08-9.689-.459a4.861,4.861,0,0,0,1.458,5.266,9.692,9.692,0,0,0,3.721,1.183,41.1,41.1,0,0,0,7.561.216c.794-.076.929.7,1.258,2.819C247.418,121.127,247.58,124.26,248.3,124.309Z" transform="translate(-216.987 -91.539)" fill="#263238"/>
        <path id="Path_6125" data-name="Path 6125" d="M264.546,119.976l2.646-1.269a1.42,1.42,0,0,0-1.923-.735,1.534,1.534,0,0,0-.724,2Z" transform="translate(-231.501 -95.242)" fill="#263238"/>
        <path id="Path_6126" data-name="Path 6126" d="M246.093,148.7a29.363,29.363,0,0,0,5.239-1.237,4.456,4.456,0,0,0,1.939-1.745,6.006,6.006,0,0,1-1.156,2.112c-1.037,1.2-6.065,1.89-6.065,1.89Z" transform="translate(-223.056 -108.067)" fill="#9a4a4d"/>
        <path id="Path_6127" data-name="Path 6127" d="M248.7,132.351a.772.772,0,1,0,.8-.762.783.783,0,0,0-.8.762Z" transform="translate(-224.275 -101.569)" fill="#263238"/>
        <path id="Path_6128" data-name="Path 6128" d="M250.46,127.265l1.62.983a.988.988,0,0,0-.319-1.329.918.918,0,0,0-1.3.346Z" transform="translate(-225.084 -99.355)" fill="#263238"/>
        <path id="Path_6129" data-name="Path 6129" d="M245.662,142.74l-1.782.573a.918.918,0,0,0,1.145.648A.978.978,0,0,0,245.662,142.74Z" transform="translate(-222.058 -106.697)" fill="#9a4a4d"/>
        <path id="Path_6130" data-name="Path 6130" d="M236.1,126.905l1.55-1.08a.907.907,0,0,0-1.291-.265,1,1,0,0,0-.259,1.345Z" transform="translate(-218.408 -98.721)" fill="#263238"/>
        <path id="Path_6131" data-name="Path 6131" d="M236.9,131.322a.772.772,0,1,0,.4-.7A.772.772,0,0,0,236.9,131.322Z" transform="translate(-218.844 -101.08)" fill="#263238"/>
        <path id="Path_6132" data-name="Path 6132" d="M241.791,131l-.47,4.607-2.371-.94Z" transform="translate(-219.791 -101.298)" fill="#9a4a4d"/>
      </g>
      <g id="freepik--character-1--inject-96" transform="translate(25.284 44.858)">
        <path id="Path_6133" data-name="Path 6133" d="M144.356,372.943l.216-.751c.038.967.308,5.153,1.831,7.659,1.215,1.988,2.965,4.391,3.046,6.238s-3.819,1.42-5.288.7a9.933,9.933,0,0,1-4.537-4.461c-.573-1.35-.756-2.809-1.145-3.851s-1.566-2.43-1.62-3.527a6.836,6.836,0,0,1,1.08-2.663c.54-.934,1.215-1.842,1.507-1.664-.032.113-.308.616-.308.616a4.252,4.252,0,0,0,2.36,1.647C142.282,373.138,144.188,373.516,144.356,372.943Z" transform="translate(-100.016 -233.077)" fill="#263238"/>
        <path id="Path_6134" data-name="Path 6134" d="M78.094,344.73l.54-.167c-.54.8-2.636,4.639-2.89,7.561-.205,2.322-.221,5.293-1.253,6.827s-3.921-1.123-4.666-2.576a9.913,9.913,0,0,1-1.01-6.281c.346-1.426,1.08-2.7,1.366-3.781s.184-2.884.789-3.781a6.485,6.485,0,0,1,2.468-1.491c.924-.383,2.074-.762,2.2-.443-.092.07-.616.308-.616.308a4.324,4.324,0,0,0,.924,2.733A3.4,3.4,0,0,0,78.094,344.73Z" transform="translate(-68.644 -219.225)" fill="#263238"/>
        <path id="Path_6135" data-name="Path 6135" d="M129.075,274.338c.54-1.658,1.9-5.18,1.62-6.9a157.788,157.788,0,0,0-4.688-20.14c-1.183-3.889-2.565-9.625-4.056-16.2.038-1.831.054-3.462.054-3.462l-17.283,1.491c-1.993,4.861-5.158,13.216-3.959,23.764a132.4,132.4,0,0,1,.832,14.826c-1.62,1-3.419,2.16-4.861,3.16-3.856,2.7-17.37,16.964-17.37,16.964l-1.393,1.113h0l-.108.081v.032c-.745.9-1.62,4.72-2.328,7.021a7.988,7.988,0,0,0,.383,5.941c1.026,1.8,2.16,2.241,2.6.238.059-.718.1-1.426.162-2.085a15.8,15.8,0,0,1,2.209-5.876h0A7.606,7.606,0,0,1,83.4,291.2s16.154-10.543,23.921-15.5a11.115,11.115,0,0,0,5.012-7.2c.54-2.8,2.457-9.684,3.111-13.151l3.781,14.4c-.859,1.393-2.457,6.346-3.4,12.422-1.264,8.1-4.251,20.486-4.251,20.486l-.762,2.83h0l-.038.13h0c-.065,1.161,1.5,4.764,2.312,7.048a7.91,7.91,0,0,0,3.813,4.542c1.9.837,3.084.508,2.241-1.361a16.245,16.245,0,0,1-.956-1.917,21.339,21.339,0,0,1-1.75-5.909,8.1,8.1,0,0,1,.54-4.029S126.207,283.206,129.075,274.338Z" transform="translate(-71.633 -167.326)" fill="#f6c7ad"/>
        <path id="Path_6136" data-name="Path 6136" d="M124.3,235.145s-3.376,5.082-4.056,9.371c-1.167,7.3.427,18.963.427,18.963a5.631,5.631,0,0,0,2.565-3.781,8.448,8.448,0,0,0,2.63,3.354c2.133,1.42,5.4,2.225,9.533.978l.578-5.228.816,4.4a17.91,17.91,0,0,0,7.9-1.037c4.035-1.545,4.931-6.006,4.931-6.006l-6.989-21.021s.394,3.494-7.934,3.818S124.3,235.145,124.3,235.145Z" transform="translate(-92.18 -170.78)" fill="#455a64"/>
        <path id="Path_6137" data-name="Path 6137" d="M168.488,145.765c-4.04,9.506-9.63,12.876-12.174,18.979-3.332-.227-7.961-5.714-5.482-9.149,2.83-1.194,12-11.164,12.525-15.366.47-3.732,2.479-9.544,2.387-12.649a2.16,2.16,0,0,0-.6-1.377c-1.021-1.08-1.026-1.988-1.68-3.2-.513-.945-1.08-1.3-.913-1.512a1.221,1.221,0,0,1,1.658-.124,6.308,6.308,0,0,1,1.258,1.21,12.557,12.557,0,0,0-1-3.354c-1.134-2.56-.859-3.862,2.6-2.954,2.16.573,3.521,2.376,3.845,7.561a51.619,51.619,0,0,1,.038,6.481c-.378,4-.789,7.831-1.28,11.148a17.4,17.4,0,0,1-1.183,4.31Z" transform="translate(-106.12 -115.976)" fill="#f6c7ad"/>
        <path id="Path_6138" data-name="Path 6138" d="M126.061,212.283l-.308-3.867-2.981-6.244a24.239,24.239,0,0,1-.313-6.962c.1-2.252,0-3.781,2.16-4.283.832-.189,3.187-.61,6.632-1.08l6.308-.54c2.306-.119,4.807,2.846,7.421,8.1,1.307,2.625,2.333,6.195-1.134,9.517,0,.686.086,3,0,4.391A22.009,22.009,0,0,1,126.061,212.283Z" transform="translate(-93.339 -149.7)" fill="#f2736a"/>
        <path id="Path_6139" data-name="Path 6139" d="M141.725,152.6V152.4c-.567-6.055-4.04-7.178-10.386-6.53-4.688.481-8.939,2.7-10.354,6.832a10.667,10.667,0,0,0,1.264,9.365c1.939,2.873,5.217,4.477,9.851,4.045h0C138.139,166.822,142.292,158.645,141.725,152.6Z" transform="translate(-92.46 -129.651)" fill="#263238"/>
        <path id="Path_6140" data-name="Path 6140" d="M83.167,161.537a8.679,8.679,0,0,1-2.549-3.143c-.951-1.982-1.388-5.018.826-6.373a2.009,2.009,0,0,1,.832-.3c.983-.1,1.772.729,2.538,1.345a7.14,7.14,0,0,0,5.3,1.453,11.237,11.237,0,0,0,5.439-2.668,7.3,7.3,0,0,1,1.62-1.08,4.483,4.483,0,0,1,1.523-.335,7.632,7.632,0,0,1,4.861,1.447,2.3,2.3,0,0,1,1.08,1.42,1.08,1.08,0,0,1-.5,1.08c-.41.232-.945,0-1.377-.049a4.661,4.661,0,0,0-3.116.659,8.458,8.458,0,0,0-2.036,2.468c-1.88,2.814-4.656,5.255-8,5.741A8.642,8.642,0,0,1,83.167,161.537Z" transform="translate(-73.793 -131.818)" fill="#263238"/>
        <path id="Path_6141" data-name="Path 6141" d="M140.009,153.14c1.242.583,2.971,3.4,3.408,9.619.367,5.266-1.21,6.724-2.031,7.178s-2.5.378-4.121.265l.292,3.154s4.861,4.429,1.242,5.239c-1.815.41-4.245-.54-5.941-1.62a6.481,6.481,0,0,1-2.349-3.122l-.6-6.865s-.859,1-2.587-.243c-1.431-1.032-2.058-2.938-1.123-4.083a2.312,2.312,0,0,1,3.727.389s.951,0,1.728-1.847a7.162,7.162,0,0,0,4.418-1.431A9.835,9.835,0,0,0,140.009,153.14Z" transform="translate(-94.908 -133.068)" fill="#f6c7ad"/>
        <path id="Path_6142" data-name="Path 6142" d="M144.484,168.539a.675.675,0,0,1-.54.778.686.686,0,0,1-.756-.589.664.664,0,1,1,1.312-.189Z" transform="translate(-102.921 -139.869)" fill="#263238"/>
        <g id="Group_6238" data-name="Group 6238" transform="translate(42.772 32.991)" opacity="0.5">
          <path id="Path_6143" data-name="Path 6143" d="M147.861,177.06l2.123.47a1.08,1.08,0,0,1-1.269.864,1.14,1.14,0,0,1-.853-1.334Z" transform="translate(-147.838 -177.06)" fill="#f28f8f"/>
        </g>
        <path id="Path_6144" data-name="Path 6144" d="M155.1,163.172l-1.426-.8a.789.789,0,0,1,1.08-.335A.853.853,0,0,1,155.1,163.172Z" transform="translate(-107.748 -137.116)" fill="#263238"/>
        <path id="Path_6145" data-name="Path 6145" d="M142.168,164.547l-1.469.729a.789.789,0,0,1,.34-1.08A.864.864,0,0,1,142.168,164.547Z" transform="translate(-101.739 -138.113)" fill="#263238"/>
        <path id="Path_6146" data-name="Path 6146" d="M154.872,167.315a.664.664,0,1,1-.756-.589.681.681,0,0,1,.756.589Z" transform="translate(-107.691 -139.314)" fill="#263238"/>
        <g id="Group_6239" data-name="Group 6239" transform="translate(43.956 27.92)" opacity="0.5">
          <path id="Path_6147" data-name="Path 6147" d="M150.03,167.67l.475,3.97,2.036-.843Z" transform="translate(-150.03 -167.67)" fill="#f28f8f"/>
        </g>
        <g id="Group_6240" data-name="Group 6240" transform="translate(36.416 35.071)" opacity="0.5">
          <path id="Path_6148" data-name="Path 6148" d="M142.011,182.973c-1.712-.065-5.282-.74-5.941-2.063a3.559,3.559,0,0,0,1.383,1.62c1.123.789,4.666,1.469,4.666,1.469Z" transform="translate(-136.07 -180.91)" fill="#f28f8f"/>
        </g>
        <path id="Path_6149" data-name="Path 6149" d="M123.87,151.131l.778-2.841a1.437,1.437,0,0,1,1.08,1.772A1.55,1.55,0,0,1,123.87,151.131Z" transform="translate(-94.043 -130.837)" fill="#263238"/>
        <path id="Path_6150" data-name="Path 6150" d="M122.03,151.676l-1.62-2.452a1.431,1.431,0,0,1,2.036.356A1.55,1.55,0,0,1,122.03,151.676Z" transform="translate(-92.451 -131.139)" fill="#263238"/>
        <path id="Path_6151" data-name="Path 6151" d="M133.5,169.907l.259,2.765h0a1.89,1.89,0,0,0,1.707-2.058l-.238-2.555Z" transform="translate(-98.472 -139.93)" fill="#263238"/>
        <path id="Path_6152" data-name="Path 6152" d="M98.366,148.177c4.04,9.511,8.971,15.306,12.212,21.383,5.4.254,5.8-8.1,3.322-11.537,0,0-9.522-11.234-10.4-15.377-.783-3.683-2.479-9.549-2.387-12.654a2.112,2.112,0,0,1,.6-1.377c1.021-1.08,1.021-1.982,1.68-3.2.508-.951,1.08-1.3.913-1.518a1.237,1.237,0,0,0-1.664-.119,6.249,6.249,0,0,0-1.253,1.2,12.46,12.46,0,0,1,.994-3.354c1.134-2.555.859-3.862-2.592-2.949-2.16.54-3.521,2.371-3.846,7.561a50.52,50.52,0,0,0-.022,6.519c.373,4,.783,7.837,1.275,11.148a17.51,17.51,0,0,0,1.172,4.267Z" transform="translate(-81.145 -117.087)" fill="#f6c7ad"/>
        <path id="Path_6153" data-name="Path 6153" d="M150.556,274.4l-.816-4.029.837-7.68a22.306,22.306,0,0,0,4.958-2.89,15.4,15.4,0,0,1-3.392,3.494L150.28,269.9Z" transform="translate(-105.94 -182.121)" fill="#37474f"/>
        <path id="Path_6154" data-name="Path 6154" d="M135.33,218.52a5.639,5.639,0,0,0,5.352,2.971,5.941,5.941,0,0,0,5.05-3.17s-.151,4.148-5.05,4.159S135.33,218.52,135.33,218.52Z" transform="translate(-99.313 -163.044)" opacity="0.1"/>
      </g>
    </g>
  </g>
</svg>
