<svg xmlns="http://www.w3.org/2000/svg" width="28.857" height="28" viewBox="0 0 28.857 28">
  <g id="Group_6804" data-name="Group 6804" transform="translate(-1265.422 -1262)">
    <rect id="Rectangle_2857" data-name="Rectangle 2857" width="28" height="28" transform="translate(1266 1262)" fill="none"/>
    <path id="youtube-brands" d="M41.719,67.01A3.437,3.437,0,0,0,39.3,64.575C37.167,64,28.612,64,28.612,64s-8.555,0-10.688.575A3.438,3.438,0,0,0,15.5,67.01a38.7,38.7,0,0,0,0,13.255,3.386,3.386,0,0,0,2.419,2.4c2.134.575,10.688.575,10.688.575s8.555,0,10.688-.575a3.386,3.386,0,0,0,2.419-2.4,38.7,38.7,0,0,0,0-13.255ZM25.814,77.7V69.57l7.15,4.068Z" transform="translate(1251.239 1202.302)" fill="none" stroke="#fff" stroke-width="1.5"/>
  </g>
</svg>
