<svg xmlns="http://www.w3.org/2000/svg" width="248" height="248" viewBox="0 0 248 248">
  <g id="Group_5821" data-name="Group 5821" transform="translate(-5211 -12508)">
    <rect id="Rectangle_2723" data-name="Rectangle 2723" width="248" height="248" transform="translate(5211 12508)" fill="#fff"/>
    <g id="Completed-pana_1_" data-name="Completed-pana (1)" transform="translate(5223.708 12508)">
      <g id="freepik--background-complete--inject-4" transform="translate(0 53.369)">
        <path id="Path_5812" data-name="Path 5812" d="M356.741,202.381,316.7,187.24a5.352,5.352,0,0,1-3.111-6.9l20.956-55.423a5.357,5.357,0,0,1,6.9-3.116l25.4,9.6,11.992,27.695-15.191,40.193a5.357,5.357,0,0,1-6.9,3.094Z" transform="translate(-167.135 -121.449)" fill="#f5f5f5"/>
        <path id="Path_5813" data-name="Path 5813" d="M405.518,139.52l-5.9,15.6a4.983,4.983,0,0,0,2.9,6.425l15,5.671Z" transform="translate(-205.808 -129.57)" fill="#ebebeb"/>
        <path id="Path_5814" data-name="Path 5814" d="M399.03,170.48a5.584,5.584,0,0,0,2.2,6.607,4.552,4.552,0,0,0,.451.3c1.828,1.1,13.853,8.259,13.963,7.967l1.586-4.2-15-5.671S398.546,173.916,399.03,170.48Z" transform="translate(-205.537 -143.484)" fill="#e0e0e0"/>
        <path id="Path_5815" data-name="Path 5815" d="M379.1,158.669c-.077.2-4.284-1.206-9.4-3.138s-9.2-3.667-9.123-3.854,4.284,1.206,9.4,3.138S379.178,158.454,379.1,158.669Z" transform="translate(-188.41 -135.026)" fill="#e0e0e0"/>
        <path id="Path_5816" data-name="Path 5816" d="M385.006,179.205c-.077.2-6.959-2.2-15.378-5.4s-15.185-5.93-15.108-6.134,6.96,2.2,15.384,5.407S385.066,179,385.006,179.205Z" transform="translate(-185.687 -142.216)" fill="#e0e0e0"/>
        <path id="Path_5817" data-name="Path 5817" d="M382.693,193.622c-.077.2-7.576-2.45-16.754-5.924s-16.556-6.447-16.479-6.646,7.576,2.45,16.754,5.924S382.792,193.418,382.693,193.622Z" transform="translate(-183.413 -148.23)" fill="#e0e0e0"/>
        <path id="Path_5818" data-name="Path 5818" d="M377.923,206.243c-.077.2-7.576-2.45-16.755-5.924s-16.556-6.469-16.479-6.646,7.576,2.45,16.755,5.919S378,206.039,377.923,206.243Z" transform="translate(-181.269 -153.903)" fill="#e0e0e0"/>
        <path id="Path_5819" data-name="Path 5819" d="M373.149,218.862c-.077.2-7.582-2.45-16.755-5.924s-16.556-6.447-16.485-6.646,7.576,2.45,16.76,5.919S373.22,218.658,373.149,218.862Z" transform="translate(-179.121 -159.573)" fill="#e0e0e0"/>
        <path id="Path_5820" data-name="Path 5820" d="M368.373,231.482c-.072.2-7.576-2.456-16.749-5.924s-16.562-6.447-16.485-6.646,7.576,2.45,16.755,5.919S368.45,231.278,368.373,231.482Z" transform="translate(-176.978 -165.245)" fill="#e0e0e0"/>
        <rect id="Rectangle_2625" data-name="Rectangle 2625" width="62.938" height="87.142" rx="6.36" transform="matrix(0.944, -0.331, 0.331, 0.944, 0, 43.038)" fill="#ebebeb"/>
        <rect id="Rectangle_2626" data-name="Rectangle 2626" width="54.107" height="79.428" transform="matrix(0.944, -0.331, 0.331, 0.944, 5.707, 45.978)" fill="#e0e0e0"/>
        <rect id="Rectangle_2627" data-name="Rectangle 2627" width="54.107" height="77.914" transform="matrix(0.944, -0.331, 0.331, 0.944, 4.793, 45.625)" fill="#fafafa"/>
        <path id="Path_5821" data-name="Path 5821" d="M133.348,245.327l-25.817-73.51.094.044L56.568,189.75h0l.05-.1c9.624,27.618,18.582,53.127,25.735,73.537l-.083-.039,51.084-17.823L82.308,263.282h-.061v-.061C75.09,242.81,66.159,217.3,56.48,189.689v-.077h.072l51.062-17.872h.072v.066Z" transform="translate(-51.746 -144.05)" fill="#e0e0e0"/>
        <path id="Path_5822" data-name="Path 5822" d="M163.2,300.929s11.37-9.591,13.341-19.579a14.453,14.453,0,0,1-9.723,5.864S166.592,297.675,163.2,300.929Z" transform="translate(-99.707 -193.31)" fill="#e0e0e0"/>
        <rect id="Rectangle_2628" data-name="Rectangle 2628" width="6.613" height="6.613" rx="3.306" transform="matrix(0.944, -0.331, 0.331, 0.944, 17.781, 63.574)" fill="#ebebeb"/>
        <path id="Path_5823" data-name="Path 5823" d="M86.535,239.872h0a.132.132,0,0,1-.121,0l-1.233-.716a.154.154,0,0,1,.154-.264l1.1.628,1.3-2.753a.165.165,0,0,1,.209-.077.154.154,0,0,1,.072.209l-1.371,2.929A.143.143,0,0,1,86.535,239.872Z" transform="translate(-64.617 -173.234)" fill="#fff"/>
        <path id="Path_5824" data-name="Path 5824" d="M127.511,213.4c0,.044-6.607,2.406-14.805,5.275s-14.866,5.159-14.866,5.121,6.607-2.406,14.811-5.275S127.5,213.361,127.511,213.4Z" transform="translate(-70.334 -162.772)" fill="#e0e0e0"/>
        <path id="Path_5825" data-name="Path 5825" d="M113.271,232.62s-.171.077-.479.2l-1.332.5c-1.1.407-2.687.964-4.4,1.569s-3.3,1.145-4.4,1.525l-1.349.446a3.556,3.556,0,0,1-.5.143,3.248,3.248,0,0,1,.479-.2l1.332-.49c1.1-.413,2.687-.969,4.4-1.575s3.3-1.14,4.4-1.525l1.349-.446A3.018,3.018,0,0,1,113.271,232.62Z" transform="translate(-71.664 -171.41)" fill="#e0e0e0"/>
        <path id="Path_5826" data-name="Path 5826" d="M128.777,217.079c0,.039-6.607,2.4-14.811,5.269S99.1,227.513,99.1,227.469s6.607-2.4,14.816-5.269S128.777,217.035,128.777,217.079Z" transform="translate(-70.9 -164.426)" fill="#e0e0e0"/>
        <rect id="Rectangle_2629" data-name="Rectangle 2629" width="6.613" height="6.613" rx="3.306" transform="matrix(0.944, -0.331, 0.331, 0.944, 21.616, 74.529)" fill="#ebebeb"/>
        <path id="Path_5827" data-name="Path 5827" d="M93.491,259.75h0a.143.143,0,0,1-.127,0l-1.228-.716a.153.153,0,1,1,.154-.264l1.1.628,1.3-2.78a.16.16,0,0,1,.2-.077.154.154,0,0,1,.077.2L93.6,259.679A.16.16,0,0,1,93.491,259.75Z" transform="translate(-67.736 -182.155)" fill="#fff"/>
        <path id="Path_5828" data-name="Path 5828" d="M134.477,233.3c0,.044-6.607,2.4-14.811,5.275s-14.866,5.159-14.866,5.12,6.607-2.406,14.811-5.275S134.466,233.261,134.477,233.3Z" transform="translate(-73.462 -171.715)" fill="#e0e0e0"/>
        <path id="Path_5829" data-name="Path 5829" d="M120.241,252.52s-.171.077-.485.2l-1.327.5c-1.1.407-2.687.964-4.4,1.569s-3.3,1.145-4.4,1.525l-1.349.446a3.556,3.556,0,0,1-.5.143,2.928,2.928,0,0,1,.479-.2l1.332-.49c1.1-.413,2.687-.969,4.4-1.575s3.3-1.14,4.4-1.525l1.349-.446a3.015,3.015,0,0,1,.5-.138Z" transform="translate(-74.796 -180.354)" fill="#e0e0e0"/>
        <path id="Path_5830" data-name="Path 5830" d="M135.777,237c0,.039-6.607,2.4-14.811,5.269s-14.866,5.165-14.866,5.12,6.607-2.4,14.811-5.269S135.777,236.944,135.777,237Z" transform="translate(-74.046 -173.378)" fill="#e0e0e0"/>
        <rect id="Rectangle_2630" data-name="Rectangle 2630" width="6.613" height="6.613" rx="3.306" transform="matrix(0.944, -0.331, 0.331, 0.944, 25.456, 85.485)" fill="#ebebeb"/>
        <path id="Path_5831" data-name="Path 5831" d="M100.444,279.653h0a.143.143,0,0,1-.127,0l-1.233-.7a.154.154,0,1,1,.154-.264l1.1.628,1.3-2.78a.154.154,0,1,1,.281.127l-1.371,2.935a.181.181,0,0,1-.1.061Z" transform="translate(-70.85 -191.101)" fill="#fff"/>
        <path id="Path_5832" data-name="Path 5832" d="M141.447,253.2c0,.044-6.607,2.4-14.811,5.275s-14.866,5.159-14.866,5.115,6.607-2.4,14.816-5.269S141.43,253.161,141.447,253.2Z" transform="translate(-76.594 -180.659)" fill="#e0e0e0"/>
        <path id="Path_5833" data-name="Path 5833" d="M127.206,272.41a3.557,3.557,0,0,1-.485.2l-1.332.5c-1.1.407-2.681.964-4.4,1.569s-3.3,1.14-4.4,1.525l-1.349.446a3.812,3.812,0,0,1-.5.143,2.93,2.93,0,0,1,.479-.2l1.332-.5c1.1-.407,2.687-.964,4.4-1.569s3.3-1.14,4.4-1.525l1.343-.446a4.7,4.7,0,0,1,.512-.143Z" transform="translate(-77.924 -189.292)" fill="#e0e0e0"/>
        <path id="Path_5834" data-name="Path 5834" d="M142.777,256.88c0,.039-6.607,2.4-14.811,5.269s-14.866,5.165-14.866,5.12,6.607-2.4,14.811-5.275S142.738,256.835,142.777,256.88Z" transform="translate(-77.192 -182.312)" fill="#e0e0e0"/>
        <rect id="Rectangle_2631" data-name="Rectangle 2631" width="6.613" height="6.613" rx="3.306" transform="matrix(0.944, -0.331, 0.331, 0.944, 29.292, 96.441)" fill="#ebebeb"/>
        <path id="Path_5835" data-name="Path 5835" d="M107.424,299.571h0a.154.154,0,0,1-.121,0l-1.233-.716a.154.154,0,1,1,.16-.264l1.1.628,1.3-2.753a.154.154,0,0,1,.2-.077.16.16,0,0,1,.077.2l-1.376,2.935A.16.16,0,0,1,107.424,299.571Z" transform="translate(-73.998 -200.062)" fill="#fff"/>
        <path id="Path_5836" data-name="Path 5836" d="M148.417,273.1c0,.044-6.607,2.4-14.811,5.269s-14.866,5.165-14.866,5.12,6.607-2.4,14.811-5.269S148.4,273.044,148.417,273.1Z" transform="translate(-79.726 -189.601)" fill="#e0e0e0"/>
        <path id="Path_5837" data-name="Path 5837" d="M134.171,292.31a2.928,2.928,0,0,1-.479.2l-1.332.5c-1.1.407-2.687.964-4.4,1.569s-3.3,1.14-4.4,1.525l-1.349.446c-.319.1-.5.149-.5.143a2.928,2.928,0,0,1,.479-.2l1.332-.5c1.1-.407,2.687-.964,4.4-1.569s3.3-1.14,4.4-1.525l1.349-.446a3.813,3.813,0,0,1,.5-.143Z" transform="translate(-81.056 -198.235)" fill="#e0e0e0"/>
        <path id="Path_5838" data-name="Path 5838" d="M149.707,276.779c0,.039-6.607,2.4-14.811,5.269s-14.866,5.159-14.866,5.12,6.607-2.4,14.811-5.275S149.69,276.735,149.707,276.779Z" transform="translate(-80.306 -191.256)" fill="#e0e0e0"/>
        <path id="Path_5839" data-name="Path 5839" d="M67.09,180.905l1.343,3.854a4.289,4.289,0,0,0,5.462,2.632l28.245-9.911a4.278,4.278,0,0,0,2.626-5.456l-1.343-3.854Z" transform="translate(-56.514 -142.446)" fill="#e0e0e0"/>
        <path id="Path_5840" data-name="Path 5840" d="M96.4,175.444a4.019,4.019,0,1,1,2.461-5.115,4.019,4.019,0,0,1-2.461,5.115Zm-2.147-6.128a2.478,2.478,0,1,0,3.155,1.52,2.478,2.478,0,0,0-3.155-1.52Z" transform="translate(-67.28 -142.204)" fill="#e0e0e0"/>
        <path id="Path_5841" data-name="Path 5841" d="M114.54,200c0,.072-7.422,2.753-16.633,5.974s-16.7,5.781-16.727,5.71,7.422-2.753,16.633-5.974S114.513,199.9,114.54,200Z" transform="translate(-62.846 -156.749)" fill="#e0e0e0"/>
        <path id="Path_5842" data-name="Path 5842" d="M112.414,202.447c0,.072-3.248,1.288-7.317,2.714s-7.389,2.544-7.416,2.445,3.254-1.288,7.323-2.714S112.392,202.376,112.414,202.447Z" transform="translate(-70.262 -157.849)" fill="#e0e0e0"/>
      </g>
      <g id="freepik--Plants--inject-4" transform="translate(18.851 182.85)">
        <path id="Path_5843" data-name="Path 5843" d="M389.046,404.271a10.461,10.461,0,0,1,6.5-.787,5.4,5.4,0,0,1,3.21,1.432,2.309,2.309,0,0,1,.033,3.2,3.056,3.056,0,0,1-2.037.512c-1.723,0-3.628-.325-5,.71-.787.589-1.3,1.569-2.241,1.861a2.2,2.2,0,0,1-2.439-1.1,3.794,3.794,0,0,1-.275-2.792A4.262,4.262,0,0,1,389.046,404.271Z" transform="translate(-218.979 -377.588)" fill="#7fb344"/>
        <path id="Path_5844" data-name="Path 5844" d="M381.79,374.591c1.211,1.723,3.562,1.156,4.652.1a8.785,8.785,0,0,0,1.966-4.036c.958-3.331,1.927-6.822,1.217-10.214a5.694,5.694,0,0,0-1.3-2.753,2.968,2.968,0,0,0-2.808-.936,4.339,4.339,0,0,0-2.456,2.577,24.353,24.353,0,0,0-2.406,10.461,8.519,8.519,0,0,0,1.14,4.84" transform="translate(-216.282 -356.651)" fill="#7fb344"/>
        <path id="Path_5845" data-name="Path 5845" d="M365.334,381.591a6.282,6.282,0,0,0,.98-5.787,11.155,11.155,0,0,0-3.425-4.955,18.44,18.44,0,0,0-6.134-3.617,6.524,6.524,0,0,0-2.753-.468,2.885,2.885,0,0,0-2.312,1.4c-.65,1.233,0,2.725.639,3.942a46.187,46.187,0,0,0,4.03,6.134,10.879,10.879,0,0,0,4.432,3.8c1.844.7,3.75.617,4.724-.655" transform="translate(-203.146 -361.174)" fill="#7fb344"/>
        <path id="Path_5846" data-name="Path 5846" d="M382.554,423.55a4.006,4.006,0,0,0,.1-.782c.061-.551.127-1.288.209-2.142a29.965,29.965,0,0,1,.485-3.144,24.088,24.088,0,0,1,1.14-3.706,13.693,13.693,0,0,1,1.894-3.353,7.081,7.081,0,0,1,2.4-1.993,6.661,6.661,0,0,1,2.015-.628,3.786,3.786,0,0,0,.782-.11,3.732,3.732,0,0,0-.8,0,6.191,6.191,0,0,0-2.1.551,7.042,7.042,0,0,0-2.527,2,13.457,13.457,0,0,0-1.96,3.425,22.256,22.256,0,0,0-1.134,3.766,26.89,26.89,0,0,0-.418,3.182c-.072.909-.094,1.652-.1,2.153a3.3,3.3,0,0,0,.016.776Z" transform="translate(-217.123 -379.561)" fill="#263238"/>
        <path id="Path_5847" data-name="Path 5847" d="M382.71,404.614a1.342,1.342,0,0,0,0-.363v-1.024c0-.9,0-2.2.044-3.854.083-3.232.358-6.706.9-11.606.507-4.608,1.189-9.971,1.911-13.457.154-.793.308-1.509.457-2.131s.259-1.167.374-1.6.176-.749.242-1.013a2.752,2.752,0,0,0,.066-.363,1.573,1.573,0,0,0-.127.341c-.083.264-.182.595-.3,1s-.275.969-.429,1.591-.336,1.332-.507,2.125a119.686,119.686,0,0,0-1.988,12.5,123.158,123.158,0,0,0-.8,12.62c0,1.619,0,2.929.055,3.854,0,.424.044.771.061,1.041a1.957,1.957,0,0,0,.044.341Z" transform="translate(-217.136 -362.272)" fill="#263238"/>
        <path id="Path_5848" data-name="Path 5848" d="M373.451,398.149a6.608,6.608,0,0,0,0-1.1,29.479,29.479,0,0,0-.336-2.946,37.991,37.991,0,0,0-.958-4.295,34.762,34.762,0,0,0-1.795-5.082,27.126,27.126,0,0,0-5.269-8.209,13.421,13.421,0,0,0-1.244-1.151,5.081,5.081,0,0,0-.551-.451l-.479-.33A6.144,6.144,0,0,0,361.9,374a30.943,30.943,0,0,1,3,2.676,28.3,28.3,0,0,1,5.143,8.182,39.886,39.886,0,0,1,1.806,5.032,41.329,41.329,0,0,1,1.019,4.251c.226,1.228.358,2.2.435,2.918a7.5,7.5,0,0,0,.149,1.09Z" transform="translate(-207.855 -364.429)" fill="#263238"/>
        <path id="Path_5849" data-name="Path 5849" d="M367.74,445.49l.864,11.838h15.213l.859-11.838Z" transform="translate(-210.48 -396.557)" fill="#263238"/>
        <rect id="Rectangle_2632" data-name="Rectangle 2632" width="20.223" height="4.669" transform="translate(155.796 44.264)" fill="#263238"/>
        <path id="Path_5850" data-name="Path 5850" d="M365.08,466.17v1.288h19.882V466.17Z" transform="translate(-209.284 -405.851)" fill="#455a64"/>
        <path id="Path_5851" data-name="Path 5851" d="M367.73,470.789l-.93-2.279h18.214l-1.09,2.279Z" transform="translate(-210.057 -406.903)" fill="#455a64"/>
        <path id="Path_5852" data-name="Path 5852" d="M384.621,451.162s0,.044-.072.11l-.226.3-.886,1.134-.039.05-.039-.055-2.175-3.006h.132l-2.147,3.034-.066.094-.077-.088-2.538-3.028h.143l-.138.176-2.274,2.847-.072.1-.072-.1c-.771-1.1-1.492-2.114-2.147-3.034h.127l-2.637,3.006-.05.055-.039-.061c-.347-.584-.622-1.052-.826-1.387l-.209-.369a.552.552,0,0,1-.066-.132.834.834,0,0,1,.088.116l.237.358.864,1.36h-.083l2.6-3.045.066-.077.061.083,2.164,3.023h-.149l2.285-2.847.143-.176.072-.094.072.088,2.538,3.034h-.143l2.164-3.023.061-.088.066.088c.853,1.228,1.586,2.268,2.131,3.045h-.083l.925-1.1.248-.286Z" transform="translate(-210.7 -398.364)" fill="#e0e0e0"/>
        <path id="Path_5853" data-name="Path 5853" d="M384.994,445.264c0,.055-3.81.1-8.512.1s-8.512-.044-8.512-.1,3.81-.094,8.512-.094S384.994,445.214,384.994,445.264Z" transform="translate(-210.583 -396.414)" fill="#455a64"/>
        <path id="Path_5854" data-name="Path 5854" d="M385.19,468.669c0,.05-4.146.094-9.25.094s-9.25-.044-9.25-.094,4.14-.1,9.25-.1S385.19,468.614,385.19,468.669Z" transform="translate(-210.008 -406.93)" fill="#263238"/>
        <path id="Path_5855" data-name="Path 5855" d="M126.655,399.226c-.044.05-.391-.16-.776-.468s-.666-.6-.622-.655.385.16.771.468S126.693,399.171,126.655,399.226Z" transform="translate(-101.504 -375.257)" fill="#263238"/>
        <path id="Path_5856" data-name="Path 5856" d="M137.742,365.444a12.048,12.048,0,0,0-.358-4.377,3.851,3.851,0,0,0-7.246-.881,12.172,12.172,0,0,0-1.514,4.774,168.7,168.7,0,0,0-2.065,34.66l6.739.947C136.233,388.469,137.191,377.893,137.742,365.444Z" transform="translate(-102.019 -357.244)" fill="#455a64"/>
        <path id="Path_5857" data-name="Path 5857" d="M135.171,358l-.033.11-.11.3-.451,1.167c-.094.253-.22.551-.319.842l-.325,1.019-.38,1.173-.347,1.338a58.358,58.358,0,0,0-1.3,6.712c-.363,2.533-.6,5.341-.793,8.292-.341,5.908-.4,11.271-.551,15.147-.072,1.944-.138,3.513-.209,4.592-.039.551-.066.941-.088,1.25v-.005c0-.3,0-.721.039-1.25.044-1.1.083-2.648.132-4.592.11-3.854.138-9.239.485-15.152.187-2.957.435-5.77.809-8.314a55.484,55.484,0,0,1,1.36-6.684l.363-1.338q.215-.617.4-1.173l.352-1.019c.1-.308.237-.584.336-.837l.5-1.145q.077-.182.132-.3a.419.419,0,0,1,.011-.138Z" transform="translate(-103.754 -357.239)" fill="#263238"/>
        <path id="Path_5858" data-name="Path 5858" d="M139.043,358.05a4.863,4.863,0,0,1,.826,1.393,10.313,10.313,0,0,1,.611,4.361c-.176,3.728-.512,8.859-.953,14.53s-.942,10.792-1.338,14.5c-.2,1.85-.374,3.348-.5,4.4-.066.5-.116.9-.154,1.189l-.044.308a.717.717,0,0,1,0,.1v-.418c0-.292.061-.688.1-1.195.1-1.057.248-2.549.424-4.4.352-3.711.82-8.809,1.266-14.5s.8-10.8,1.024-14.514a10.527,10.527,0,0,0-.551-4.322A9.041,9.041,0,0,0,139.043,358.05Z" transform="translate(-107.004 -357.261)" fill="#263238"/>
        <path id="Path_5859" data-name="Path 5859" d="M146.782,389.021a3.673,3.673,0,0,1-1.277-.33,3.735,3.735,0,0,1-1.195-.551,3.529,3.529,0,0,1,1.277.33A3.672,3.672,0,0,1,146.782,389.021Z" transform="translate(-110.069 -370.784)" fill="#263238"/>
        <path id="Path_5860" data-name="Path 5860" d="M148.213,377.26a4.208,4.208,0,0,1-1.217.677,4.08,4.08,0,0,1-1.316.457A8.034,8.034,0,0,1,148.213,377.26Z" transform="translate(-110.684 -365.894)" fill="#263238"/>
        <path id="Path_5861" data-name="Path 5861" d="M147.883,366.888a4.074,4.074,0,0,1-1.993-.138,4.271,4.271,0,0,1,1.993.138Z" transform="translate(-110.779 -361.133)" fill="#263238"/>
        <path id="Path_5862" data-name="Path 5862" d="M135.962,359.1c-.055.033-.352-.336-.655-.82a2.428,2.428,0,0,1-.457-.953c.055-.033.352.33.661.82S136.034,359.063,135.962,359.1Z" transform="translate(-105.817 -356.936)" fill="#263238"/>
        <path id="Path_5863" data-name="Path 5863" d="M131.141,366.577a2.01,2.01,0,0,1-.958.1,1.988,1.988,0,0,1-.953-.143,2.01,2.01,0,0,1,.958-.1A1.988,1.988,0,0,1,131.141,366.577Z" transform="translate(-103.292 -361.02)" fill="#263238"/>
        <path id="Path_5864" data-name="Path 5864" d="M128.127,378.366a2.324,2.324,0,0,1-1.008-.275,2.379,2.379,0,0,1-.919-.5,2.323,2.323,0,0,1,1.008.275A2.379,2.379,0,0,1,128.127,378.366Z" transform="translate(-101.93 -366.043)" fill="#263238"/>
        <path id="Path_5865" data-name="Path 5865" d="M127.937,389.368a1.813,1.813,0,0,1-.859.3c-.49.1-.892.138-.908.072s.374-.2.859-.3A1.861,1.861,0,0,1,127.937,389.368Z" transform="translate(-101.916 -371.324)" fill="#263238"/>
        <path id="Path_5866" data-name="Path 5866" d="M126.477,406.32a2.045,2.045,0,0,1-.914.286,1.982,1.982,0,0,1-.953.044,2.015,2.015,0,0,1,.914-.281A1.943,1.943,0,0,1,126.477,406.32Z" transform="translate(-101.215 -378.937)" fill="#263238"/>
        <path id="Path_5867" data-name="Path 5867" d="M125.668,415.7c.033.055-.308.3-.76.551s-.842.385-.87.325.308-.3.76-.551S125.668,415.638,125.668,415.7Z" transform="translate(-100.958 -383.162)" fill="#263238"/>
        <path id="Path_5868" data-name="Path 5868" d="M133.762,424.737c-.055.033-.352-.374-.661-.914a2.654,2.654,0,0,1-.451-1.035c.055-.033.352.374.661.914a2.654,2.654,0,0,1,.452,1.035Z" transform="translate(-104.829 -386.354)" fill="#263238"/>
        <path id="Path_5869" data-name="Path 5869" d="M135.532,408.676c.044.044-.286.446-.738.892s-.859.765-.908.716.286-.446.738-.892S135.483,408.626,135.532,408.676Z" transform="translate(-105.382 -380.011)" fill="#263238"/>
        <path id="Path_5870" data-name="Path 5870" d="M135.415,398.363c-.05.05-.352-.2-.683-.551s-.551-.683-.507-.727.352.2.683.551S135.464,398.319,135.415,398.363Z" transform="translate(-105.534 -374.802)" fill="#263238"/>
        <path id="Path_5871" data-name="Path 5871" d="M136.755,387.577c.05.044-.226.435-.617.864s-.743.754-.793.71.226-.435.611-.87S136.705,387.533,136.755,387.577Z" transform="translate(-106.037 -370.529)" fill="#263238"/>
        <path id="Path_5872" data-name="Path 5872" d="M137.494,377.755c-.05.05-.429-.253-.859-.672s-.732-.8-.688-.848.429.253.859.677S137.538,377.706,137.494,377.755Z" transform="translate(-106.308 -365.432)" fill="#263238"/>
        <path id="Path_5873" data-name="Path 5873" d="M139.56,367.378a2.417,2.417,0,0,1-.435.958c-.292.5-.578.87-.633.837a2.357,2.357,0,0,1,.429-.958C139.219,367.72,139.5,367.345,139.56,367.378Z" transform="translate(-107.45 -361.453)" fill="#263238"/>
        <path id="Path_5874" data-name="Path 5874" d="M142.795,356.619c.061.033-.11.462-.38.958a2.62,2.62,0,0,1-.595.848,2.3,2.3,0,0,1,.38-.958C142.47,356.966,142.734,356.591,142.795,356.619Z" transform="translate(-108.95 -356.617)" fill="#263238"/>
        <path id="Path_5875" data-name="Path 5875" d="M146.1,361.494c.028.061-.242.248-.606.424s-.677.264-.7.2.242-.248.606-.424S146.071,361.434,146.1,361.494Z" transform="translate(-110.283 -358.801)" fill="#263238"/>
        <path id="Path_5876" data-name="Path 5876" d="M145.241,399.292a4.118,4.118,0,0,1-2.461-1.052,6.849,6.849,0,0,1,1.239.512A6.536,6.536,0,0,1,145.241,399.292Z" transform="translate(-109.381 -375.323)" fill="#263238"/>
        <path id="Path_5877" data-name="Path 5877" d="M144.271,408.3a2.018,2.018,0,0,1-.908.3,1.954,1.954,0,0,1-.953.061,2.065,2.065,0,0,1,.908-.3C143.836,408.262,144.26,408.235,144.271,408.3Z" transform="translate(-109.215 -379.828)" fill="#263238"/>
        <path id="Path_5878" data-name="Path 5878" d="M142.638,420.643c-.039.055-.551-.3-1.024-.9a2.681,2.681,0,0,1-.644-1.206,7.633,7.633,0,0,1,.831,1.057,7.283,7.283,0,0,1,.837,1.046Z" transform="translate(-108.568 -384.446)" fill="#263238"/>
        <path id="Path_5879" data-name="Path 5879" d="M124.306,427.812c-.044-.05.231-.358.611-.683s.727-.551.771-.5-.231.352-.611.683S124.35,427.861,124.306,427.812Z" transform="translate(-101.077 -388.079)" fill="#263238"/>
        <path id="Path_5880" data-name="Path 5880" d="M114.341,395.72c-.44-1.371-1.261-2.968-2.7-2.99a2.39,2.39,0,0,0-2.026,1.354,4.955,4.955,0,0,0-.551,2.478,64.728,64.728,0,0,0,3.089,17.96h5.269a62.7,62.7,0,0,0-3.083-18.8Z" transform="translate(-94.228 -372.847)" fill="#455a64"/>
        <path id="Path_5881" data-name="Path 5881" d="M93.955,378.67a5.847,5.847,0,0,0-5.506-4.68c-2.329.407-3.232,2.7-3.507,5.043a16.691,16.691,0,0,0,1.173,6.932q3.458,10.836,6.926,21.677l6.552-.716C97.544,397.247,96.355,388.272,93.955,378.67Z" transform="translate(-83.361 -364.425)" fill="#455a64"/>
        <path id="Path_5882" data-name="Path 5882" d="M113,392.73a4.913,4.913,0,0,0-.446.743,4.851,4.851,0,0,0-.248,2.329c.1,1,.215,2.2.385,3.524s.407,2.753.7,4.284c.595,3.028,1.266,5.737,1.69,7.708.215.986.38,1.789.479,2.346.044.259.083.468.11.644s.033.226,0,.226a1.217,1.217,0,0,1-.066-.215l-.154-.633c-.143-.589-.33-1.376-.551-2.329-.468-1.971-1.167-4.675-1.762-7.708-.3-1.52-.551-2.973-.688-4.306-.088-.661-.143-1.3-.2-1.889s-.11-1.145-.138-1.652a4.779,4.779,0,0,1,.33-2.379,2.059,2.059,0,0,1,.551-.694Z" transform="translate(-95.59 -372.847)" fill="#263238"/>
        <path id="Path_5883" data-name="Path 5883" d="M89.974,373.65a8.376,8.376,0,0,0-.793,1.063,7.516,7.516,0,0,0-1,3.43,15.967,15.967,0,0,0,.809,5.269c.551,1.949,1.206,4.091,1.872,6.332,1.3,4.493,2.483,8.556,3.348,11.524l.991,3.5c.11.4.193.71.259.953a1.581,1.581,0,0,1,.072.336,1.783,1.783,0,0,1-.121-.319c-.072-.242-.176-.551-.3-.947-.259-.842-.622-2.026-1.063-3.474L90.635,389.81c-.661-2.252-1.283-4.4-1.856-6.343a15.725,15.725,0,0,1-.765-5.341,7.362,7.362,0,0,1,1.1-3.469A4.025,4.025,0,0,1,89.974,373.65Z" transform="translate(-84.766 -364.272)" fill="#263238"/>
        <path id="Path_5884" data-name="Path 5884" d="M100.862,406.182a3.069,3.069,0,0,1-.149-.314c-.083-.215-.22-.518-.369-.925a31.483,31.483,0,0,1-1.1-3.474c-.385-1.487-.826-3.3-1.222-5.286s-.793-4.2-1.233-6.513a63.135,63.135,0,0,0-1.547-6.431,36.431,36.431,0,0,0-1.911-5.049,27.137,27.137,0,0,0-1.767-3.182c-.226-.363-.429-.633-.551-.82a2.036,2.036,0,0,1-.182-.3,2.036,2.036,0,0,1,.22.264c.138.187.352.441.589.8a23.4,23.4,0,0,1,1.844,3.16,33.741,33.741,0,0,1,1.966,5.054,63.752,63.752,0,0,1,1.531,6.453c.435,2.307.842,4.509,1.217,6.519s.771,3.788,1.167,5.28.765,2.676,1.052,3.485c.132.413.259.721.33.936a1.579,1.579,0,0,1,.116.336Z" transform="translate(-86.034 -364.38)" fill="#263238"/>
        <path id="Path_5885" data-name="Path 5885" d="M86.036,393.754a1.752,1.752,0,0,1-.8.314c-.457.11-.837.149-.848.083s.336-.2.793-.314S86.02,393.687,86.036,393.754Z" transform="translate(-83.14 -373.292)" fill="#263238"/>
        <path id="Path_5886" data-name="Path 5886" d="M84.322,385.542a3.38,3.38,0,0,1-1.1.121,3.255,3.255,0,0,1-1.1-.033,3.762,3.762,0,0,1,2.2-.088Z" transform="translate(-82.12 -369.552)" fill="#263238"/>
        <path id="Path_5887" data-name="Path 5887" d="M86.288,377.246c-.044.055-.4-.176-.793-.512s-.683-.65-.639-.7.4.176.793.512S86.332,377.2,86.288,377.246Z" transform="translate(-83.348 -365.341)" fill="#263238"/>
        <path id="Path_5888" data-name="Path 5888" d="M90.923,371.38c.066,0,.044.336.039.716s0,.7-.083.716-.171-.308-.16-.721S90.873,371.363,90.923,371.38Z" transform="translate(-85.984 -363.251)" fill="#263238"/>
        <path id="Path_5889" data-name="Path 5889" d="M97.751,374.607c.055.039-.1.363-.358.721s-.5.622-.551.584.1-.358.352-.721S97.7,374.568,97.751,374.607Z" transform="translate(-88.732 -364.7)" fill="#263238"/>
        <path id="Path_5890" data-name="Path 5890" d="M102,382.981a1.816,1.816,0,0,1-.754.44c-.44.182-.826.275-.848.215s.314-.259.754-.435S101.979,382.9,102,382.981Z" transform="translate(-90.334 -368.455)" fill="#263238"/>
        <path id="Path_5891" data-name="Path 5891" d="M104.459,391.57a1.921,1.921,0,0,1-1.035.457,2.059,2.059,0,0,1-1.134.039,4.3,4.3,0,0,1,1.1-.275A4.492,4.492,0,0,1,104.459,391.57Z" transform="translate(-91.185 -372.325)" fill="#263238"/>
        <path id="Path_5892" data-name="Path 5892" d="M92.81,388c-.061,0,0-.347.1-.732s.27-.677.33-.655,0,.347-.1.732S92.9,388.019,92.81,388Z" transform="translate(-86.913 -370.095)" fill="#263238"/>
        <path id="Path_5893" data-name="Path 5893" d="M94.7,398.4a2.269,2.269,0,0,1,.3-.986c.226-.518.457-.914.518-.886a2.268,2.268,0,0,1-.3.986C94.992,398.032,94.761,398.439,94.7,398.4Z" transform="translate(-87.774 -374.553)" fill="#263238"/>
        <path id="Path_5894" data-name="Path 5894" d="M88.583,402.406a2.494,2.494,0,0,1-.942-.209c-.5-.16-.908-.3-.892-.369a1.828,1.828,0,0,1,.964.138C88.225,402.125,88.611,402.345,88.583,402.406Z" transform="translate(-84.2 -376.929)" fill="#263238"/>
        <path id="Path_5895" data-name="Path 5895" d="M91.6,411.682c.039.055-.242.319-.622.595s-.732.451-.771.4.242-.325.628-.6S91.562,411.627,91.6,411.682Z" transform="translate(-85.753 -381.359)" fill="#263238"/>
        <path id="Path_5896" data-name="Path 5896" d="M93.567,420.442a1.631,1.631,0,0,1-.776.308c-.446.1-.815.143-.831.083s.33-.2.776-.314S93.551,420.376,93.567,420.442Z" transform="translate(-86.542 -385.286)" fill="#263238"/>
        <path id="Path_5897" data-name="Path 5897" d="M105.229,398.9c.033.055-.264.292-.694.451s-.815.182-.826.121.33-.187.738-.347S105.2,398.837,105.229,398.9Z" transform="translate(-91.822 -375.611)" fill="#263238"/>
        <path id="Path_5898" data-name="Path 5898" d="M106.914,411.98c-.028.061-.38-.044-.787-.237s-.716-.4-.688-.457.385.05.793.237S106.947,411.92,106.914,411.98Z" transform="translate(-92.599 -381.179)" fill="#263238"/>
        <path id="Path_5899" data-name="Path 5899" d="M109.418,421.7a2.576,2.576,0,0,1-1.046-.281c-.551-.215-.975-.44-.953-.507a2.56,2.56,0,0,1,1.041.281C109.011,421.406,109.44,421.631,109.418,421.7Z" transform="translate(-93.489 -385.511)" fill="#263238"/>
        <path id="Path_5900" data-name="Path 5900" d="M95.349,428.828c-.033-.061.4-.347.892-.738s.881-.743.931-.694-.264.473-.782.881a2.12,2.12,0,0,1-1.041.551Z" transform="translate(-88.064 -388.424)" fill="#263238"/>
        <path id="Path_5901" data-name="Path 5901" d="M102.571,423.721c-.066,0-.16-.352-.325-.771s-.33-.754-.275-.793.33.248.5.7S102.637,423.721,102.571,423.721Z" transform="translate(-91.036 -386.07)" fill="#263238"/>
        <path id="Path_5902" data-name="Path 5902" d="M100.106,412.622c-.039.055-.314-.077-.617-.292s-.512-.435-.474-.49.314.077.617.292S100.161,412.567,100.106,412.622Z" transform="translate(-89.711 -381.429)" fill="#263238"/>
        <path id="Path_5903" data-name="Path 5903" d="M117.9,394.842c.039.055-.231.319-.6.589s-.7.451-.738.4.226-.314.595-.589S117.9,394.787,117.9,394.842Z" transform="translate(-97.599 -373.791)" fill="#263238"/>
        <path id="Path_5904" data-name="Path 5904" d="M120.262,402.092c0,.066-.413.154-.931.1s-.908-.231-.892-.292a2.856,2.856,0,0,1,.919.05C119.855,402,120.257,402.026,120.262,402.092Z" transform="translate(-98.442 -376.956)" fill="#263238"/>
        <path id="Path_5905" data-name="Path 5905" d="M108.633,403.907a1.512,1.512,0,0,1-.875.231c-.507.033-.9-.05-.9-.116s.4-.088.886-.121S108.622,403.841,108.633,403.907Z" transform="translate(-93.238 -377.852)" fill="#263238"/>
        <path id="Path_5906" data-name="Path 5906" d="M109.895,396.36c0,.066-.4.077-.826-.127s-.677-.5-.633-.551.341.154.732.33S109.9,396.294,109.895,396.36Z" transform="translate(-93.944 -374.17)" fill="#263238"/>
        <path id="Path_5907" data-name="Path 5907" d="M121.39,409.369c-.033.055-.435-.132-.9-.424s-.8-.551-.765-.628.435.138.9.424S121.429,409.314,121.39,409.369Z" transform="translate(-99.02 -379.845)" fill="#263238"/>
        <rect id="Rectangle_2633" data-name="Rectangle 2633" width="34.274" height="6.073" transform="translate(3.772 40.988)" fill="#ff725e"/>
        <path id="Path_5908" data-name="Path 5908" d="M93.62,439.91l4.168,18.153h20.427l4.559-18.153Z" transform="translate(-87.288 -394.05)" fill="#ff725e"/>
        <path id="Path_5909" data-name="Path 5909" d="M123,442.011c0,.066-7.708.121-17.267.121s-17.267-.055-17.267-.121,7.708-.121,17.267-.121S123,441.951,123,442.011Z" transform="translate(-84.974 -394.94)" fill="#263238"/>
        <path id="Path_5910" data-name="Path 5910" d="M115.873,403.077c-.055.033-.292-.237-.523-.611s-.374-.7-.319-.738.292.237.523.611S115.928,403.038,115.873,403.077Z" transform="translate(-96.905 -376.889)" fill="#263238"/>
        <path id="Path_5911" data-name="Path 5911" d="M116.588,411.607a1.916,1.916,0,0,1,.182-.919c.16-.49.347-.87.407-.848a1.927,1.927,0,0,1-.182.925C116.814,411.249,116.654,411.629,116.588,411.607Z" transform="translate(-97.609 -380.535)" fill="#263238"/>
        <path id="Path_5912" data-name="Path 5912" d="M118.893,420.791c-.061.033-.314-.38-.551-.914a2.5,2.5,0,0,1-.352-1.019c.061-.033.314.38.551.914A2.505,2.505,0,0,1,118.893,420.791Z" transform="translate(-98.24 -384.588)" fill="#263238"/>
        <path id="Path_5913" data-name="Path 5913" d="M113.054,428.837c-.05-.044.154-.358.457-.71s.584-.595.639-.551-.154.363-.457.71S113.1,428.908,113.054,428.837Z" transform="translate(-96.019 -388.504)" fill="#263238"/>
        <path id="Path_5914" data-name="Path 5914" d="M110.511,416.023c0,.066-.341.061-.738,0s-.7-.176-.694-.242.341-.061.732,0S110.522,415.957,110.511,416.023Z" transform="translate(-94.236 -383.185)" fill="#263238"/>
      </g>
      <g id="freepik--Character--inject-4" transform="translate(63.546 60.771)">
        <rect id="Rectangle_2634" data-name="Rectangle 2634" width="81.278" height="64.816" transform="translate(9.544 121.321)" fill="#e0e0e0"/>
        <g id="Group_5809" data-name="Group 5809" transform="translate(15.463 121.228)" opacity="0.3">
          <path id="Path_5915" data-name="Path 5915" d="M191.38,355.3c9.569,3.414,20.124,4.146,30.393,4.339a28.041,28.041,0,0,1,6.343.551,8.045,8.045,0,0,1,5.1,3.535,8.721,8.721,0,0,1,.374,6.745c-.655,2.219-1.784,4.273-2.6,6.436a24.034,24.034,0,0,0-1.283,12.008,11.276,11.276,0,0,0,1.7,4.845,5.556,5.556,0,0,0,4.306,2.522c3.089.044,5.2-2.99,6.734-5.677,6.282-11.012,13.077-23.51,17.1-35.53Z" transform="translate(-191.38 -355.07)"/>
        </g>
        <path id="Path_5916" data-name="Path 5916" d="M230.813,419.952c-.083,0-.143-14.365-.143-32.083s.061-32.089.143-32.089.143,14.365.143,32.089S230.89,419.952,230.813,419.952Z" transform="translate(-193.575 -234.161)" fill="#455a64"/>
        <path id="Path_5917" data-name="Path 5917" d="M240.8,232.135c-.242-1.619-5.076-6.959-5.076-6.959s-2.412-9.7-3.138-12.553a9.436,9.436,0,0,0-1.052-2.346,18.858,18.858,0,0,0-7.048-6.8l-6.69-3.761-1.6-3.557L200.132,187.9l-4.355,7.708s-10.577,3.359-11.975,5.743.694,34.577.694,34.577-4.4,18.566-5.357,22.409a19.536,19.536,0,0,0,.3,8.424l7.879-9.883c2.45-3.072,7.824-4.487,11.684-4.432l32.986.149-1.327-9.239,26.687,5.165s4.586-8.953,4.955-9.129S240.8,232.135,240.8,232.135Z" transform="translate(-170.255 -158.715)" fill="#ff725e"/>
        <path id="Path_5918" data-name="Path 5918" d="M216.306,207.345c-.231-.237,1.861,6.838,4.493,14.046a35.409,35.409,0,0,1,2.131,12.152v26.1l15.813-1.074-2.362-17.189s-1.927-11.089-2.467-15.306c-.5-3.854-2.2-14.315-2.2-14.315S222.929,214.09,216.306,207.345Z" transform="translate(-187.111 -167.451)" fill="#fff"/>
        <path id="Path_5919" data-name="Path 5919" d="M280.045,274.632a1.1,1.1,0,0,1,0-.4,5.777,5.777,0,0,1,.209-1.063,7.158,7.158,0,0,1,1.806-3.067,7.251,7.251,0,0,1,3.067-1.817,5.777,5.777,0,0,1,1.063-.209,1.058,1.058,0,0,1,.4,0c0,.049-.551.11-1.4.4a7.62,7.62,0,0,0-4.741,4.752C280.155,274.082,280.094,274.632,280.045,274.632Z" transform="translate(-215.756 -194.738)" fill="#263238"/>
        <path id="Path_5920" data-name="Path 5920" d="M281.54,268.031a5.1,5.1,0,0,1,2.417-.7,4.955,4.955,0,0,1,2.494.3c0,.088-1.1-.127-2.472,0S281.573,268.114,281.54,268.031Z" transform="translate(-216.436 -194.391)" fill="#263238"/>
        <g id="Group_5810" data-name="Group 5810" transform="translate(11.273 87.884)" opacity="0.3">
          <path id="Path_5921" data-name="Path 5921" d="M185.146,294.51l-1.376,1.553a11.122,11.122,0,0,0,5.572,3.689,28.369,28.369,0,0,0,6.723.606,9.575,9.575,0,0,0,2.72-.259,12.669,12.669,0,0,1,2.659-.82,6.79,6.79,0,0,1,1.844.264,3.579,3.579,0,0,0,1.85.027,1.454,1.454,0,0,0,1.074-1.36A97,97,0,0,0,185.146,294.51Z" transform="translate(-183.77 -294.51)"/>
        </g>
        <path id="Path_5922" data-name="Path 5922" d="M245.512,293.128l-3.854-4.118L233.647,287s-7.312,2.2-7.488,2.2-6.365-1.7-6.365-1.7l-2.164,7.94,11.149.765,12.73-.512s.666-.617.27-1.041,2.131.716,2.428.727.87.242,1.266-.231A1.725,1.725,0,0,0,245.512,293.128Z" transform="translate(-187.714 -203.251)" fill="#ffbe9d"/>
        <path id="Path_5923" data-name="Path 5923" d="M254.4,299.031a7.106,7.106,0,0,1-1.266-.363c-.771-.242-1.844-.551-3.039-.881s-2.3-.551-3.094-.688a6.48,6.48,0,0,1-1.283-.3,5.568,5.568,0,0,1,1.316.1,28.489,28.489,0,0,1,3.127.617,26.532,26.532,0,0,1,3.039.969A5.193,5.193,0,0,1,254.4,299.031Z" transform="translate(-200.338 -207.651)" fill="#eb996e"/>
        <path id="Path_5924" data-name="Path 5924" d="M258.284,295.59a17.348,17.348,0,0,1-1.773-.551c-1.1-.363-2.6-.815-4.295-1.283a25.405,25.405,0,0,0-4.328-1.068,10.213,10.213,0,0,0-1.839.072,1.5,1.5,0,0,1,.479-.165,5.2,5.2,0,0,1,1.371-.11,17.858,17.858,0,0,1,4.4,1c1.652.5,3.2.953,4.284,1.371.551.2.964.391,1.261.523a1.653,1.653,0,0,1,.435.215Z" transform="translate(-200.486 -205.713)" fill="#eb996e"/>
        <path id="Path_5925" data-name="Path 5925" d="M176.843,212.33s-5.754,4-7.158,9.762-7.466,29.3-6.222,32.815,25.437,6.976,25.437,6.976l2.869-12.113-12.289-3.364s.16-11.2.314-15.846S176.843,212.33,176.843,212.33Z" transform="translate(-163.296 -169.694)" fill="#ff725e"/>
        <path id="Path_5926" data-name="Path 5926" d="M212.842,283.64l3.959.975-2.384,9.129-3.887-.622Z" transform="translate(-184.523 -201.741)" fill="#fff"/>
        <path id="Path_5927" data-name="Path 5927" d="M163.422,281.549a3.56,3.56,0,0,0,.061.551,2.681,2.681,0,0,0,.842,1.371,11.626,11.626,0,0,0,5.605,2.252h0c1.162.385,2.489.688,3.9,1.008s2.946.644,4.553.969c3.221.661,6.783,1.354,10.56,2.059l-.165.1c.27-1.1.551-2.307.853-3.513.677-2.753,1.338-5.462,1.96-8.011l.1.165-10.9-3.089h0a10.858,10.858,0,0,0-4.763-.837,10.556,10.556,0,0,0-3.6.848,12.057,12.057,0,0,0-2.065,1.145l-.5.363a1.069,1.069,0,0,1-.176.116,1.7,1.7,0,0,1,.154-.143c.1-.088.264-.226.485-.391a11.136,11.136,0,0,1,2.054-1.206,10.428,10.428,0,0,1,3.634-.908,10.9,10.9,0,0,1,4.856.8h0l10.929,3.061.132.033-.033.132c-.622,2.549-1.277,5.236-1.949,8.017-.3,1.2-.584,2.39-.859,3.507l-.033.132h-.132c-3.777-.71-7.334-1.415-10.555-2.087-1.608-.336-3.133-.672-4.553-1s-2.753-.644-3.92-1.046h0a11.517,11.517,0,0,1-5.649-2.368,2.659,2.659,0,0,1-.826-1.437A1.679,1.679,0,0,1,163.422,281.549Z" transform="translate(-163.343 -197.58)" fill="#263238"/>
        <path id="Path_5928" data-name="Path 5928" d="M186.423,273.289c-.033.039-.446-.341-1.184-.831a11.315,11.315,0,0,0-6.541-1.911c-.892,0-1.437.121-1.448.072a4.543,4.543,0,0,1,1.437-.27,10,10,0,0,1,6.684,1.944A4.4,4.4,0,0,1,186.423,273.289Z" transform="translate(-169.567 -195.756)" fill="#263238"/>
        <path id="Path_5929" data-name="Path 5929" d="M193.905,239.91a4.5,4.5,0,0,1,0,.738c0,.479-.05,1.162-.116,2.01-.138,1.69-.385,4.019-.831,6.574a44.875,44.875,0,0,1-1.525,6.453c-.132.4-.275.765-.391,1.1l-.352.793a3.442,3.442,0,0,1-.38.639,3.733,3.733,0,0,1,.275-.683c.094-.237.193-.507.308-.8s.226-.683.347-1.1a57.593,57.593,0,0,0,1.437-6.442c.44-2.544.721-4.862.908-6.547.083-.8.154-1.465.209-1.993A3.128,3.128,0,0,1,193.905,239.91Z" transform="translate(-175.436 -182.089)" fill="#263238"/>
        <path id="Path_5930" data-name="Path 5930" d="M216.208,216.572a4.262,4.262,0,0,0-.187-.407,2.444,2.444,0,0,0-.831-.9A2.059,2.059,0,0,0,213.4,215a2.3,2.3,0,0,0-1.509,1.712l-.077.391-.171-.363a38.241,38.241,0,0,1-1.679-4.251,22.348,22.348,0,0,1-1.244-7.51c0-.49.066-.93.094-1.321a5.98,5.98,0,0,1,.176-.98,5.14,5.14,0,0,1,.242-.815,19.545,19.545,0,0,0-.314,3.116,24.022,24.022,0,0,0,1.316,7.422,42.532,42.532,0,0,0,1.652,4.229l-.248.033a2.527,2.527,0,0,1,1.7-1.867,2.2,2.2,0,0,1,1.944.336,2.39,2.39,0,0,1,.815,1,1.43,1.43,0,0,1,.1.33C216.213,216.528,216.219,216.572,216.208,216.572Z" transform="translate(-183.71 -164.989)" fill="#263238"/>
        <path id="Path_5931" data-name="Path 5931" d="M246.488,218.278a4.336,4.336,0,0,1-.127-.655,6.955,6.955,0,0,1-.116-1.844,3.854,3.854,0,0,1,1.327-2.439,2.538,2.538,0,0,1,1.6-.578,2.2,2.2,0,0,1,1.685.754l-.242.143-.523-1.316c-1.03-2.593-1.944-4.955-2.593-6.657l-.754-2.032a3.809,3.809,0,0,1-.237-.754,4.317,4.317,0,0,1,.341.716c.22.551.5,1.195.842,2,.7,1.69,1.652,4.03,2.67,6.607l.518,1.321.336.848-.551-.71a1.905,1.905,0,0,0-1.47-.661,2.285,2.285,0,0,0-1.443.5,3.75,3.75,0,0,0-1.294,2.263,7.816,7.816,0,0,0,.033,1.811A2.785,2.785,0,0,1,246.488,218.278Z" transform="translate(-200.567 -165.456)" fill="#263238"/>
        <path id="Path_5932" data-name="Path 5932" d="M265.247,233.31c.077,0,1.321,8.358,2.781,18.693s2.571,18.72,2.494,18.72-1.321-8.358-2.78-18.72S265.17,233.321,265.247,233.31Z" transform="translate(-209.112 -179.123)" fill="#263238"/>
        <g id="Group_5811" data-name="Group 5811" transform="translate(26.419 47.586)" opacity="0.3">
          <path id="Path_5933" data-name="Path 5933" d="M211.28,221.32a17.26,17.26,0,0,0,1.371,6.222,4.371,4.371,0,0,1,2.2-1.745,3.455,3.455,0,0,1,3.105,1.288,5.633,5.633,0,0,0-.991-2.379,2.791,2.791,0,0,0-2.2-1.14,1.927,1.927,0,0,0-1.833,1.5l-1.58-3.705" transform="translate(-211.28 -221.32)"/>
        </g>
        <path id="Path_5934" data-name="Path 5934" d="M190.017,225.816c-.05,0-.033-.578-.2-1.476a9.057,9.057,0,0,0-1.338-3.276,9.88,9.88,0,0,0-1.261-1.492,8.47,8.47,0,0,0-1.261-.986c-.776-.49-1.321-.677-1.3-.727a1.151,1.151,0,0,1,.391.1,2.329,2.329,0,0,1,.446.171,4.217,4.217,0,0,1,.551.286,7.708,7.708,0,0,1,1.338.958A9.139,9.139,0,0,1,188.7,220.9a8.209,8.209,0,0,1,1.3,3.4,5.557,5.557,0,0,1,.055,1.1C190.055,225.673,190.039,225.816,190.017,225.816Z" transform="translate(-172.897 -172.179)" fill="#263238"/>
        <path id="Path_5935" data-name="Path 5935" d="M234.648,152.391a11.8,11.8,0,0,0-12.036-10.544H222c-6.58.551-9.784,6.447-9.046,13l1.806,23.07.765.936a12.333,12.333,0,0,0,14.646,3.452h0l-.507-7.422s6.31-1.145,6.222-7.477C235.849,164.338,235.254,158.051,234.648,152.391Z" transform="translate(-185.567 -138.016)" fill="#ffbe9d"/>
        <path id="Path_5936" data-name="Path 5936" d="M236.663,200.032a15.328,15.328,0,0,1-8.352-2.2s2.065,4.509,8.369,3.777Z" transform="translate(-192.514 -163.178)" fill="#eb996e"/>
        <path id="Path_5937" data-name="Path 5937" d="M247.33,169.809a.914.914,0,0,1-.848.936.87.87,0,0,1-.953-.793.908.908,0,0,1,.848-.936.864.864,0,0,1,.953.793Z" transform="translate(-200.252 -150.226)" fill="#263238"/>
        <path id="Path_5938" data-name="Path 5938" d="M246.931,164.135c-.072.11-.787.187-1.652.65s-1.371,1.041-1.487,1.03,0-.16.215-.418a4.157,4.157,0,0,1,1.156-.9,3.766,3.766,0,0,1,1.343-.446C246.832,164.019,246.97,164.08,246.931,164.135Z" transform="translate(-199.451 -147.993)" fill="#263238"/>
        <path id="Path_5939" data-name="Path 5939" d="M230.73,170.679a.9.9,0,0,1-.848.936.864.864,0,0,1-.953-.793.908.908,0,0,1,.848-.936.864.864,0,0,1,.953.793Z" transform="translate(-192.792 -150.617)" fill="#263238"/>
        <path id="Path_5940" data-name="Path 5940" d="M229.171,165.8a15.21,15.21,0,0,0-1.652-.6c-.936-.231-1.712-.182-1.795-.259s.1-.11.435-.138a4.675,4.675,0,0,1,1.459.138,4.229,4.229,0,0,1,1.3.551C229.138,165.667,229.2,165.788,229.171,165.8Z" transform="translate(-191.343 -148.33)" fill="#263238"/>
        <path id="Path_5941" data-name="Path 5941" d="M238.341,173.748a6.782,6.782,0,0,1,1.575-.325c.248,0,.479-.088.518-.259a1.244,1.244,0,0,0-.182-.727l-.787-1.878a30.59,30.59,0,0,1-1.773-4.9,29.667,29.667,0,0,1,2.164,4.746c.264.661.518,1.288.754,1.889a1.448,1.448,0,0,1,.154.969.628.628,0,0,1-.4.374,1.586,1.586,0,0,1-.418.072A6.248,6.248,0,0,1,238.341,173.748Z" transform="translate(-196.725 -148.72)" fill="#263238"/>
        <path id="Path_5942" data-name="Path 5942" d="M228.394,159.123c-.11.259-1.074.088-2.2.165s-2.087.352-2.2.1c-.066-.116.11-.358.49-.595a3.854,3.854,0,0,1,3.386-.209C228.228,158.782,228.427,159,228.394,159.123Z" transform="translate(-190.566 -145.41)" fill="#263238"/>
        <path id="Path_5943" data-name="Path 5943" d="M246.116,159.38c-.215.226-1.052,0-2.054,0s-1.856.171-2.054-.061c-.088-.11.044-.336.413-.551a3.574,3.574,0,0,1,3.3.05C246.088,159.044,246.21,159.275,246.116,159.38Z" transform="translate(-198.658 -145.452)" fill="#263238"/>
        <path id="Path_5944" data-name="Path 5944" d="M235.379,143.64a1.206,1.206,0,0,0-1.266-.975,2.511,2.511,0,0,0,.87-.446.875.875,0,0,0,.3-.881c-.165-.49-.793-.595-1.288-.732a3.3,3.3,0,0,1-1.652-1.1c-.6-.76-.831-1.751-1.354-2.571a4.2,4.2,0,0,0-6.508-.716,4.377,4.377,0,0,0-7.042,1.074,5.1,5.1,0,0,0-6.993,5.589l3.942,2.417a2.131,2.131,0,0,1,2.6-1.85c1.189.347,1.949,1.723,3.182,1.817.964.072,1.784-.672,2.714-.919a4.6,4.6,0,0,1,3.342.721,13.338,13.338,0,0,0,3.127,1.575,6.491,6.491,0,0,0,4.014-.479,4.068,4.068,0,0,0,1.487-.919A1.839,1.839,0,0,0,235.379,143.64Z" transform="translate(-184.452 -134.893)" fill="#263238"/>
        <path id="Path_5945" data-name="Path 5945" d="M214.4,145.669l18.059-.1a8.2,8.2,0,0,0-2.753-3,14.1,14.1,0,0,0-8.259-2.714c-2.946,0-8.837,3.783-10.913,5.869a4.623,4.623,0,0,0-1.608,3.078c-.209,2.346,1.173,4.955,1.762,7.251.3,1.178.919,4.746.919,4.746h0c.991-.028,1.338-.831,1.162-1.811l-.292-3.854a5.831,5.831,0,0,0,1.591-6.849C213.817,147.948,213.223,146.357,214.4,145.669Z" transform="translate(-183.791 -137.125)" fill="#263238"/>
        <path id="Path_5946" data-name="Path 5946" d="M209.532,159.151c-.919-3.193-1.767-6.607-.787-9.8h-.551l-.22.16a2.527,2.527,0,0,0-2.841,3.893,2.2,2.2,0,0,0-2.2,1.911,4.086,4.086,0,0,0,.589,2.1,4.922,4.922,0,0,1,.688,2.092,1.569,1.569,0,0,1-1.2,1.624,1.8,1.8,0,0,0,2.043,1,3.6,3.6,0,0,1-1.239,1.564,4.089,4.089,0,0,0,4.069-.094,3.469,3.469,0,0,0,1.817-1.685A4.346,4.346,0,0,0,209.532,159.151Z" transform="translate(-181.108 -141.39)" fill="#263238"/>
        <path id="Path_5947" data-name="Path 5947" d="M211,173.786c-.11-.044-4.4-1.173-4.135,3.149s4.542,3.182,4.542,3.056S211,173.786,211,173.786Z" transform="translate(-182.869 -152.298)" fill="#ffbe9d"/>
        <path id="Path_5948" data-name="Path 5948" d="M211.607,179.572a1.471,1.471,0,0,1-.2.121.743.743,0,0,1-.551.044,1.864,1.864,0,0,1-.958-1.624,2.511,2.511,0,0,1,.149-1.1.881.881,0,0,1,.551-.611.391.391,0,0,1,.457.182c.066.116.039.2.066.215s.088-.083.044-.259a.521.521,0,0,0-.611-.347,1.068,1.068,0,0,0-.749.716,2.676,2.676,0,0,0-.193,1.222,1.945,1.945,0,0,0,1.211,1.806.815.815,0,0,0,.677-.154C211.607,179.676,211.623,179.577,211.607,179.572Z" transform="translate(-184.108 -153.448)" fill="#eb996e"/>
        <path id="Path_5949" data-name="Path 5949" d="M206.156,159.927a.752.752,0,0,1-.083-.507,1.613,1.613,0,0,1,.809-1.1,4.956,4.956,0,0,1,1.982-.479,2.439,2.439,0,0,0,1.971-1,3.6,3.6,0,0,0,.341-2.274c-.1-.727-.3-1.382-.391-1.949a3.2,3.2,0,0,1,.028-1.855,8.584,8.584,0,0,0,.2,1.806c.121.551.336,1.195.468,1.96a3.783,3.783,0,0,1-.363,2.489,2.109,2.109,0,0,1-1.03.87,4.459,4.459,0,0,1-1.195.264,5.159,5.159,0,0,0-1.9.374,1.608,1.608,0,0,0-.8.947,3.486,3.486,0,0,0-.044.457Z" transform="translate(-182.517 -142.024)" fill="#455a64"/>
        <path id="Path_5950" data-name="Path 5950" d="M204.212,157.645a.883.883,0,0,1-.132-.391,1.845,1.845,0,0,1,.215-1.1,1.961,1.961,0,0,1,.512-.617,2.2,2.2,0,0,1,.831-.385,2.44,2.44,0,0,0,.82-.341.98.98,0,0,0,.325-.793c0-.325-.039-.672-.028-1.019a5.094,5.094,0,0,1,.11-.986,4.559,4.559,0,0,1,.622-1.542,1.189,1.189,0,0,1,.953-.611c.286,0,.407.132.4.143a1.035,1.035,0,0,0-.385,0,1.1,1.1,0,0,0-.765.606,5.022,5.022,0,0,0-.518,1.476,5.555,5.555,0,0,0-.083.925c0,.319.05.661.033,1.035a1.283,1.283,0,0,1-.457,1.035,2.477,2.477,0,0,1-.942.38,1.789,1.789,0,0,0-1.222.826,2.423,2.423,0,0,0-.286,1.36Z" transform="translate(-181.619 -141.62)" fill="#455a64"/>
        <path id="Path_5951" data-name="Path 5951" d="M234.529,141.414a.879.879,0,0,1-.892-.028,2.6,2.6,0,0,1-.82-.7,3.446,3.446,0,0,0-1-.886,2.99,2.99,0,0,0-3.259.215c-.551.385-1.008.93-1.652,1.382a2.885,2.885,0,0,1-1.1.5,2.335,2.335,0,0,1-1.228-.116c-.782-.281-1.4-.76-2.07-1a5.556,5.556,0,0,0-2.032-.369,5.379,5.379,0,0,0-3.3,1.129,5.913,5.913,0,0,0-1.542,1.811c-.27.5-.369.809-.4.8s0-.083.044-.231a4.786,4.786,0,0,1,.231-.628,5.627,5.627,0,0,1,1.514-1.938,5.539,5.539,0,0,1,3.419-1.25,5.616,5.616,0,0,1,2.153.369c.727.264,1.354.743,2.065.991a2,2,0,0,0,1.057.1,2.543,2.543,0,0,0,.953-.44c.578-.413,1.063-.958,1.652-1.365a3.116,3.116,0,0,1,1.889-.622,3.337,3.337,0,0,1,1.652.452,3.749,3.749,0,0,1,1.03.975,2.484,2.484,0,0,0,.732.7A1.239,1.239,0,0,0,234.529,141.414Z" transform="translate(-186.631 -136.802)" fill="#455a64"/>
        <path id="Path_5952" data-name="Path 5952" d="M234.452,182.41c.138,0,.292.892,1.195,1.415s1.867.259,1.9.385-.193.22-.606.3a2.329,2.329,0,0,1-1.575-.264,2.07,2.07,0,0,1-.947-1.2C234.32,182.663,234.386,182.415,234.452,182.41Z" transform="translate(-195.237 -156.248)" fill="#263238"/>
        <path id="Path_5953" data-name="Path 5953" d="M330.019,337a8.424,8.424,0,0,0-6.057-2.015l-3.722,11.821c2.725.121,5.445,1.525,8.077.8a5.765,5.765,0,0,0,4.014-4.735A6.844,6.844,0,0,0,330.019,337Z" transform="translate(-233.828 -224.807)" fill="#00336e"/>
        <path id="Path_5954" data-name="Path 5954" d="M324.521,334.375c0-.094.4-.171,1.1-.165a9.194,9.194,0,0,1,3.045.578,8.259,8.259,0,0,1,3.711,2.88,7.671,7.671,0,0,1,1.239,2.566,6.751,6.751,0,0,1,.088,3.1,6.3,6.3,0,0,1-1.349,2.825,5.963,5.963,0,0,1-2.4,1.652,8.628,8.628,0,0,1-4.68.3,14.134,14.134,0,0,1-2.918-.909c-.655-.281-1-.49-.969-.584s.429-.066,1.1.05,1.69.33,2.9.44a8.4,8.4,0,0,0,4.047-.551,4.818,4.818,0,0,0,1.817-1.343,5.076,5.076,0,0,0,1.024-2.2,6.056,6.056,0,0,0-1.008-4.625,7.977,7.977,0,0,0-3.028-2.709,13.683,13.683,0,0,0-2.714-.947C324.9,334.59,324.51,334.474,324.521,334.375Z" transform="translate(-234.343 -224.468)" fill="#f5f5f5"/>
        <path id="Path_5955" data-name="Path 5955" d="M257.844,415.06l-8.094,22.679,28.163,10.214c.815-2.753-11.8-13.434-11.8-13.434l5.781-14.315Z" transform="translate(-202.149 -260.802)" fill="#084ba8"/>
        <g id="Group_5812" data-name="Group 5812" transform="translate(54.423 169.315)" opacity="0.6">
          <path id="Path_5956" data-name="Path 5956" d="M263.418,442.431a1.222,1.222,0,0,0-1.272,1.024,1.173,1.173,0,0,0,1,1.266,1.288,1.288,0,0,0,1.343-1.1c0-.6-.595-1.288-1.189-1.206" transform="translate(-262.141 -442.408)" fill="#fff"/>
        </g>
        <path id="Path_5957" data-name="Path 5957" d="M249.75,454.385l.82-2.285,26.748,10.671s1.057,1,.595,1.828Z" transform="translate(-202.149 -277.448)" fill="#fff"/>
        <path id="Path_5958" data-name="Path 5958" d="M277.845,450.112c-.055.138-.765-.05-1.6.149s-1.41.644-1.514.551.385-.82,1.4-1.041S277.917,450,277.845,450.112Z" transform="translate(-213.369 -276.375)" fill="#263238"/>
        <path id="Path_5959" data-name="Path 5959" d="M282.887,454.459c0,.143-.7.16-1.376.551s-1.035.98-1.173.925.061-.864.914-1.365S282.887,454.326,282.887,454.459Z" transform="translate(-215.878 -278.425)" fill="#263238"/>
        <path id="Path_5960" data-name="Path 5960" d="M285.622,460.489c-.132,0-.077-.771.551-1.4s1.376-.688,1.393-.551-.523.391-1.03.914S285.765,460.528,285.622,460.489Z" transform="translate(-218.244 -280.315)" fill="#263238"/>
        <path id="Path_5961" data-name="Path 5961" d="M279.7,443.3c-.1.1-.666-.314-1.459-.551s-1.492-.2-1.52-.347.727-.424,1.652-.138S279.808,443.221,279.7,443.3Z" transform="translate(-214.269 -272.975)" fill="#263238"/>
        <path id="Path_5962" data-name="Path 5962" d="M280.067,434.793a2.852,2.852,0,0,1-1.4-.518,6.459,6.459,0,0,1-1.31-.991,6.952,6.952,0,0,1-.655-.721,1.889,1.889,0,0,1-.308-.484.633.633,0,0,1,.2-.754.809.809,0,0,1,.716-.1,2.021,2.021,0,0,1,.5.264,5.51,5.51,0,0,1,.771.622,5.263,5.263,0,0,1,.991,1.321,2.5,2.5,0,0,1,.413,1.448c-.077,0-.242-.523-.721-1.266a6.152,6.152,0,0,0-1-1.162,5.745,5.745,0,0,0-.721-.551c-.27-.187-.523-.281-.644-.176s-.061.061-.028.171a1.443,1.443,0,0,0,.226.358,6.712,6.712,0,0,0,.589.694,8.072,8.072,0,0,0,1.173,1.019C279.582,434.49,280.1,434.722,280.067,434.793Z" transform="translate(-214.098 -268.048)" fill="#263238"/>
        <path id="Path_5963" data-name="Path 5963" d="M282.606,434.648a2.423,2.423,0,0,1,.121-1.5,4.957,4.957,0,0,1,.754-1.476,5.423,5.423,0,0,1,.666-.727,1.261,1.261,0,0,1,1.162-.385.71.71,0,0,1,.446.611,2.047,2.047,0,0,1-.044.551,3.414,3.414,0,0,1-1.476,2.2c-.815.551-1.448.484-1.443.435a6.3,6.3,0,0,0,1.233-.727,3.48,3.48,0,0,0,.925-1.162,3.094,3.094,0,0,0,.27-.826c.066-.314.039-.6-.083-.606a.843.843,0,0,0-.661.281,4.9,4.9,0,0,0-.628.639,5.236,5.236,0,0,0-.782,1.3C282.727,434.1,282.688,434.648,282.606,434.648Z" transform="translate(-216.885 -267.759)" fill="#263238"/>
        <path id="Path_5964" data-name="Path 5964" d="M198.327,304.611c-4.273.1-8.325.7-11.271,3.8-3.9,4.113-8.727,9.966-9,14.024-.407,6.057,3.254,7.873,5.924,9.36a7.5,7.5,0,0,0,3.854.9l49.377-.374,1.547-8.364-31.934-7.873,1.327-12.019Z" transform="translate(-169.915 -210.918)" fill="#729ecc"/>
        <path id="Path_5965" data-name="Path 5965" d="M231.693,303.466l15.532-.716s26.836,1.492,32.557,6.739,5.01,11.21,3.1,16.931-18.72,42.33-18.72,42.33a6.332,6.332,0,0,1,.6,4.652,6.139,6.139,0,0,1-4.4,4.174l-14.932-5.506s-2.026-.716-.595-2.626a6.54,6.54,0,0,1,2.384-2.263v-3.816s5.247-9.542,5.721-10.852,5.506-20.724,5.506-20.724l3.342-5.743s-8.077-3.8-15.081-6.552l-16.353-4.03Z" transform="translate(-193.431 -210.329)" fill="#729ecc"/>
        <path id="Path_5966" data-name="Path 5966" d="M270.524,424.346a14.657,14.657,0,0,1-1.31-.859,17.736,17.736,0,0,0-6.971-2.648,15.372,15.372,0,0,1-1.553-.231,5.956,5.956,0,0,1,1.575.027,14.866,14.866,0,0,1,7.064,2.687A5.992,5.992,0,0,1,270.524,424.346Z" transform="translate(-207.066 -263.278)" fill="#455a64"/>
        <path id="Path_5967" data-name="Path 5967" d="M287.956,417.039a4.981,4.981,0,0,1-.864-.914c-.507-.589-1.178-1.426-1.878-2.384s-1.3-1.844-1.718-2.5a5.634,5.634,0,0,1-.617-1.1,5.782,5.782,0,0,1,.782.986l1.784,2.445c.666.9,1.277,1.718,1.806,2.428a5.774,5.774,0,0,1,.7,1.041Z" transform="translate(-217.038 -258.591)" fill="#455a64"/>
        <path id="Path_5968" data-name="Path 5968" d="M295.124,335.58c0,.044-.551.165-1.415.451a14.866,14.866,0,0,0-5.979,3.733,14.8,14.8,0,0,1-1.03,1.074,5.13,5.13,0,0,1,.881-1.211,12.57,12.57,0,0,1,2.753-2.329,12.421,12.421,0,0,1,3.3-1.459,5,5,0,0,1,1.487-.259Z" transform="translate(-218.755 -225.083)" fill="#455a64"/>
        <path id="Path_5969" data-name="Path 5969" d="M274.3,359.25a1.311,1.311,0,0,1,.061-.325l.231-.908.892-3.331,3.056-10.962c.622-2.142,1.151-4.179,1.751-6.029a12.592,12.592,0,0,1,2.813-4.289,16.123,16.123,0,0,1,2.665-2.2c.347-.22.617-.385.809-.484a1.75,1.75,0,0,1,.292-.149s-.374.253-1.035.721a17.886,17.886,0,0,0-2.588,2.252,12.591,12.591,0,0,0-2.709,4.24c-.551,1.822-1.1,3.887-1.723,6.018l-3.133,10.935c-.407,1.371-.743,2.489-.986,3.3-.116.363-.2.661-.281.892A1.259,1.259,0,0,1,274.3,359.25Z" transform="translate(-213.182 -222.832)" fill="#455a64"/>
        <path id="Path_5970" data-name="Path 5970" d="M248.37,321.259c-.083,0-.407-2.9-.732-6.486a61.312,61.312,0,0,1-.44-6.513,63.015,63.015,0,0,1,.727,6.486C248.249,318.336,248.447,321.254,248.37,321.259Z" transform="translate(-200.989 -212.806)" fill="#455a64"/>
        <path id="Path_5971" data-name="Path 5971" d="M196.548,341.434c-.044,0-.281-.446-.771-1.134a11.4,11.4,0,0,0-2.252-2.373,11.562,11.562,0,0,0-2.847-1.613c-.787-.308-1.3-.424-1.288-.474a4.4,4.4,0,0,1,1.354.281,9.773,9.773,0,0,1,5.2,4.063A4.24,4.24,0,0,1,196.548,341.434Z" transform="translate(-175.023 -225.2)" fill="#455a64"/>
        <path id="Path_5972" data-name="Path 5972" d="M208.745,324.594c0,.044-.683-.374-1.822-.9a17.2,17.2,0,0,0-9.558-1.365c-1.239.176-1.993.4-2,.347a1.9,1.9,0,0,1,.512-.2,11.909,11.909,0,0,1,1.459-.352A15.7,15.7,0,0,1,207,323.515a11.663,11.663,0,0,1,1.3.749A2,2,0,0,1,208.745,324.594Z" transform="translate(-177.706 -218.931)" fill="#455a64"/>
        <path id="Path_5973" data-name="Path 5973" d="M256.414,334.071a1.689,1.689,0,0,1-.391-.066l-1.1-.237-4.019-.886c-3.4-.76-8.1-1.784-13.313-2.813s-9.949-1.883-13.379-2.472l-4.069-.7-1.1-.193a1.575,1.575,0,0,1-.38-.094,3.457,3.457,0,0,1,.391.033l1.1.143c.964.132,2.357.341,4.08.611,3.441.551,8.187,1.354,13.407,2.39s9.911,2.087,13.3,2.9c1.69.407,3.061.749,4,1l1.1.286a2.128,2.128,0,0,1,.369.1Z" transform="translate(-188.177 -221.052)" fill="#455a64"/>
        <path id="Path_5974" data-name="Path 5974" d="M223.392,322.253a15.269,15.269,0,0,0-.683-1.575,6.79,6.79,0,0,0-1.1-1.459,17.906,17.906,0,0,0-1.729-1.5,26.16,26.16,0,0,0-3.54-2.2,11.791,11.791,0,0,1-1.509-.859,9.3,9.3,0,0,1,1.6.677,20.69,20.69,0,0,1,3.623,2.153,16.214,16.214,0,0,1,1.74,1.536,6.381,6.381,0,0,1,1.1,1.547,5.258,5.258,0,0,1,.446,1.211A1.278,1.278,0,0,1,223.392,322.253Z" transform="translate(-186.456 -215.682)" fill="#455a64"/>
        <path id="Path_5975" data-name="Path 5975" d="M328.356,342c.061.066-.765.9-1.41,2.169s-.853,2.417-.936,2.4a5,5,0,0,1,.683-2.533A5.06,5.06,0,0,1,328.356,342Z" transform="translate(-236.421 -227.969)" fill="#263238"/>
        <g id="Group_5813" data-name="Group 5813" transform="translate(56.592 57.618)" opacity="0.3">
          <path id="Path_5976" data-name="Path 5976" d="M266.08,239.54l3.535,24.9.176.4A53.407,53.407,0,0,0,266.08,239.54Z" transform="translate(-266.08 -239.54)"/>
        </g>
        <path id="Path_5977" data-name="Path 5977" d="M268.1,264.99l-11.491,20.086-28.317.617-.072,1.283,27.419-.2.87-.033,28.95.061,5.853-10.092,7.477-10.715a1.057,1.057,0,0,0-.875-1.652l-28.9.11A1.057,1.057,0,0,0,268.1,264.99Z" transform="translate(-192.473 -193.068)" fill="#e0e0e0"/>
        <path id="Path_5978" data-name="Path 5978" d="M335.139,286.83s1.487,1.365,1.255,2.522-.16,2.021-1.255,2.1a1.652,1.652,0,0,1-1.487,1.723,1.837,1.837,0,0,1-1.778,2.131s-.65,1.944-1.982,1.47a11.527,11.527,0,0,1-2.2-1.019l-.391-.7s-1.966-.738-1.481-1.844c.3-.672,1.31-.848,1.31-.848a1.889,1.889,0,0,1,.127-1.718c.468-.633,2-.11,2-.11a2.169,2.169,0,0,1,.484-1.5c.551-.622,2.962,1.057,2.962,1.057l1.327-1.586Z" transform="translate(-236.3 -203.175)" fill="#ffbe9d"/>
        <path id="Path_5979" data-name="Path 5979" d="M333.015,299.816a13.766,13.766,0,0,1-2.445-1.349,13.4,13.4,0,0,1-2.29-1.6,14.046,14.046,0,0,1,2.445,1.354,13.852,13.852,0,0,1,2.29,1.591Z" transform="translate(-237.441 -207.687)" fill="#eb996e"/>
        <path id="Path_5980" data-name="Path 5980" d="M336.528,296.193a11.468,11.468,0,0,1-2.268-1.2,11.645,11.645,0,0,1-2.12-1.443,11.121,11.121,0,0,1,2.268,1.2A11.643,11.643,0,0,1,336.528,296.193Z" transform="translate(-239.176 -206.195)" fill="#eb996e"/>
        <path id="Path_5981" data-name="Path 5981" d="M335.71,291.1a7.573,7.573,0,0,1,2.01,1.068,17.993,17.993,0,0,1,1.889,1.255,6.1,6.1,0,0,1-2.043-1.013A10.783,10.783,0,0,1,335.71,291.1Z" transform="translate(-240.78 -205.091)" fill="#eb996e"/>
        <path id="Path_5982" data-name="Path 5982" d="M322.909,265.579a.436.436,0,0,1-.138,0H320.8l-5.748.044-18.968.044H294.7a1.14,1.14,0,0,0-1.052.5q-.661,1.178-1.288,2.323l-2.445,4.4-4.146,7.45c-1.178,2.1-2.142,3.81-2.819,5.016-.325.551-.589,1.024-.776,1.354l-.209.347-.077.116a.29.29,0,0,1,.05-.132l.187-.363.732-1.376,2.753-5.06,4.1-7.483c.771-1.4,1.586-2.88,2.423-4.4l1.294-2.34a1.431,1.431,0,0,1,1.294-.628H296.1l18.968.039,5.748.05,1.564.028h.407A.433.433,0,0,1,322.909,265.579Z" transform="translate(-216.593 -193.536)" fill="#263238"/>
        <path id="Path_5983" data-name="Path 5983" d="M319.213,283.689a1.222,1.222,0,1,0,1.822-.215A1.3,1.3,0,0,0,319.213,283.689Z" transform="translate(-233.269 -201.543)" fill="#fff"/>
        <g id="Group_5814" data-name="Group 5814" transform="translate(5.034 73.699)" opacity="0.3">
          <path id="Path_5984" data-name="Path 5984" d="M172.963,269.437c-.242.1-.523.264-.523.551a.473.473,0,0,0,.4.429,5.113,5.113,0,0,0,1.178-.314c2.979-.655,5.429-.027,8.259,1.1l.094-.094C181.249,268.672,176.168,268.132,172.963,269.437Z" transform="translate(-172.44 -268.747)"/>
        </g>
      </g>
      <g id="freepik--Floor--inject-4" transform="translate(0.065 246.787)">
        <path id="Path_5985" data-name="Path 5985" d="M270.439,472.883c0,.077-49.8.143-111.22.143S48,472.938,48,472.883s49.79-.143,111.22-.143S270.439,472.779,270.439,472.883Z" transform="translate(-48 -472.74)" fill="#263238"/>
      </g>
      <g id="freepik--Ribbon--inject-4" transform="translate(48.776 27.628)">
        <path id="Path_5986" data-name="Path 5986" d="M141.4,135.991c.094.094,18.379-6.189,18.379-6.189l-7.048-16.132-16.259,6.238,8.953,5.143Z" transform="translate(-136.47 -92.213)" fill="#455a64"/>
        <path id="Path_5987" data-name="Path 5987" d="M161,101.012V79.049s25.223-4.614,43.4-4.339a299.334,299.334,0,0,1,36.89,3.254V99.052S184.323,93.965,161,101.012Z" transform="translate(-147.494 -74.698)" fill="#455a64"/>
        <path id="Path_5988" data-name="Path 5988" d="M160.76,120.912l9.911,11.348V118.93S162.384,119.921,160.76,120.912Z" transform="translate(-147.386 -94.576)" fill="#263238"/>
        <path id="Path_5989" data-name="Path 5989" d="M160.82,82.59c.083,0,.116,4.955.083,11.012s-.132,11.012-.209,11.012-.116-4.922-.083-11.012S160.737,82.59,160.82,82.59Z" transform="translate(-147.314 -78.245)" fill="#263238"/>
        <path id="Path_5990" data-name="Path 5990" d="M307.319,132.927c-.094.094-18.379-6.189-18.379-6.189l7.031-16.138,16.276,6.227-8.958,5.143Z" transform="translate(-204.991 -90.833)" fill="#455a64"/>
        <path id="Path_5991" data-name="Path 5991" d="M298.911,118.639,289,129.986V117.62A73.1,73.1,0,0,1,298.911,118.639Z" transform="translate(-205.018 -93.988)" fill="#263238"/>
        <path id="Path_5992" data-name="Path 5992" d="M306.716,80.63c.077,0,.165,4.785.193,10.693s0,10.692-.094,10.692-.165-4.785-.193-10.692S306.634,80.63,306.716,80.63Z" transform="translate(-212.934 -77.364)" fill="#263238"/>
        <path id="Path_5993" data-name="Path 5993" d="M186.817,97.241a3.226,3.226,0,0,1,5.269-2.753l-.771.925a1.905,1.905,0,0,0-1.553-.479,1.879,1.879,0,1,0,1.883,2.83l.969.677a3.221,3.221,0,0,1-5.814-1.2Z" transform="translate(-159.089 -83.26)" fill="#fff"/>
        <path id="Path_5994" data-name="Path 5994" d="M197.706,95.548a3.215,3.215,0,1,1,3.5,2.687,3.039,3.039,0,0,1-3.5-2.687Zm5.016-.518a1.833,1.833,0,1,0-1.652,2.054,1.789,1.789,0,0,0,1.652-2.054Z" transform="translate(-163.972 -82.393)" fill="#fff"/>
        <path id="Path_5995" data-name="Path 5995" d="M216.677,97.08l-.237-3.513L214.9,96.573l-.606.039L212.4,93.9l.226,3.436-1.272.083L211,91.568l1.1-.072,2.423,3.5,1.922-3.772,1.1-.072.4,5.847Z" transform="translate(-169.964 -82.092)" fill="#fff"/>
        <path id="Path_5996" data-name="Path 5996" d="M230.878,92.945c.033,1.31-.925,2.147-2.489,2.2l-1.184.033.05,1.619-1.36.039-.165-5.9,2.538-.072C229.837,90.848,230.834,91.635,230.878,92.945Zm-1.376.039c0-.644-.446-1.008-1.277-.986l-1.1.033.061,2.037,1.1-.033C229.111,94.014,229.518,93.623,229.5,92.984Z" transform="translate(-176.584 -81.966)" fill="#fff"/>
        <path id="Path_5997" data-name="Path 5997" d="M237,90.77h1.354v4.757h2.94v1.1H237Z" transform="translate(-181.649 -81.921)" fill="#fff"/>
        <path id="Path_5998" data-name="Path 5998" d="M250.642,95.725v1.1l-4.542-.132.171-5.864,4.4.132-.033,1.1-3.083-.094-.033,1.277,2.72.077-.033,1.057-2.72-.083-.039,1.36Z" transform="translate(-185.739 -81.948)" fill="#fff"/>
        <path id="Path_5999" data-name="Path 5999" d="M257.382,92.311l-1.872-.11.066-1.1,5.1.308-.066,1.1-1.872-.116-.286,4.752-1.354-.083Z" transform="translate(-189.967 -82.069)" fill="#fff"/>
        <path id="Path_6000" data-name="Path 6000" d="M270.085,96.974l-.1,1.1-4.526-.418.551-5.836,4.4.407-.1,1.1-3.072-.308-.116,1.272,2.709.248-.094,1.052-2.714-.248-.121,1.349Z" transform="translate(-194.439 -82.393)" fill="#fff"/>
        <path id="Path_6001" data-name="Path 6001" d="M276.306,92.79l2.637.352a2.932,2.932,0,1,1-.776,5.781l-2.637-.352Zm1.944,5.049a1.817,1.817,0,1,0,.479-3.6l-1.228-.165-.479,3.6Z" transform="translate(-198.965 -82.829)" fill="#fff"/>
      </g>
      <g id="freepik--Confetti--inject-4" transform="translate(52.382 22.734)">
        <path id="Path_6002" data-name="Path 6002" d="M327.29,82.808l1.443,1.69,4.063-1.69-1.189-1.778Z" transform="translate(-225.832 -72.65)" fill="#455a64"/>
        <path id="Path_6003" data-name="Path 6003" d="M320.459,67.924a2.114,2.114,0,1,1-2.114-2.114A2.114,2.114,0,0,1,320.459,67.924Z" transform="translate(-220.862 -65.81)" fill="#ff725e"/>
        <path id="Path_6004" data-name="Path 6004" d="M236.164,126.063A1.057,1.057,0,1,1,235.124,125a1.057,1.057,0,0,1,1.041,1.063Z" transform="translate(-183.93 -92.41)" fill="#ff725e"/>
        <path id="Path_6005" data-name="Path 6005" d="M147.128,97.414a.8.8,0,1,1-.793-.8.8.8,0,0,1,.793.8Z" transform="translate(-144.144 -79.652)" fill="#ff725e"/>
        <path id="Path_6006" data-name="Path 6006" d="M143.02,78.315l2.368.143,1.123-4.658-2.213.094Z" transform="translate(-143.02 -69.401)" fill="#455a64"/>
        <path id="Path_6007" data-name="Path 6007" d="M277.42,149.076l.8,2.235,4.724-.793-.953-2Z" transform="translate(-203.42 -102.981)" fill="#ff725e"/>
        <path id="Path_6008" data-name="Path 6008" d="M189.449,126.1l-1.459,1.872,3.2,3.562,1.178-1.878Z" transform="translate(-163.23 -92.905)" fill="#455a64"/>
      </g>
      <g id="freepik--Stars--inject-4" transform="translate(64.666 0)">
        <path id="Path_6009" data-name="Path 6009" d="M173.611,46.23l5.589,5.7,7.868-2.973.314,1.955-3.408,6.976,3.144,5.209-.264,1.558-7.615-1.283-4.5,4.939-1.057-.8-.93-6.282-7.1-3.7-.314-1.437,7.152-1.955Z" transform="translate(-165.33 -34.277)" fill="#e6a927"/>
        <g id="Group_5815" data-name="Group 5815" transform="translate(0 11.953)" opacity="0.3">
          <path id="Path_6010" data-name="Path 6010" d="M173.611,46.23l5.589,5.7,7.868-2.973.314,1.955-3.408,6.976,3.144,5.209-.264,1.558-7.615-1.283-4.5,4.939-1.057-.8-.93-6.282-7.1-3.7-.314-1.437,7.152-1.955Z" transform="translate(-165.33 -46.23)" fill="#e6a927"/>
        </g>
        <path id="Path_6011" data-name="Path 6011" d="M173.611,43.32l5.589,5.7,7.868-1.376-3.694,7.081,3.744,7.059-7.879-1.321L173.677,66.2,172.5,58.3l-7.174-3.518,7.152-3.557Z" transform="translate(-165.33 -32.969)" fill="#e6a927"/>
        <path id="Path_6012" data-name="Path 6012" d="M274.376,46.23l-5.594,5.7-7.868-2.973L260.6,50.91l3.408,6.976-3.144,5.209.264,1.558,7.615-1.283,4.5,4.939,1.057-.8.93-6.282,7.1-3.7.314-1.437L275.5,54.137Z" transform="translate(-208.145 -34.277)" fill="#e6a927"/>
        <g id="Group_5816" data-name="Group 5816" transform="translate(52.455 11.953)" opacity="0.3">
          <path id="Path_6013" data-name="Path 6013" d="M274.376,46.23l-5.594,5.7-7.868-2.973L260.6,50.91l3.408,6.976-3.144,5.209.264,1.558,7.615-1.283,4.5,4.939,1.057-.8.93-6.282,7.1-3.7.314-1.437L275.5,54.137Z" transform="translate(-260.6 -46.23)" fill="#e6a927"/>
        </g>
        <path id="Path_6014" data-name="Path 6014" d="M274.592,43.32,269,49.024l-7.868-1.376,3.694,7.081-3.744,7.059,7.879-1.321L274.52,66.2l1.173-7.9,7.174-3.518-7.152-3.557Z" transform="translate(-208.361 -32.969)" fill="#e6a927"/>
        <path id="Path_6015" data-name="Path 6015" d="M221.214,28.06l4.653,9.09,10.731-.633-.363,2.5-6.816,7.218,1.844,7.549-.908,1.8-8.8-4.465-7.372,4.317-.986-1.382,1.255-8.022-7.257-7.218.165-1.867,9.47.336Z" transform="translate(-184.142 -26.111)" fill="#e6a927"/>
        <g id="Group_5817" data-name="Group 5817" transform="translate(23.048 1.949)" opacity="0.3">
          <path id="Path_6016" data-name="Path 6016" d="M221.214,28.06l4.653,9.09,10.731-.633-.363,2.5-6.816,7.218,1.844,7.549-.908,1.8-8.8-4.465-7.372,4.317-.986-1.382,1.255-8.022-7.257-7.218.165-1.867,9.47.336Z" transform="translate(-207.19 -28.06)" fill="#e6a927"/>
        </g>
        <path id="Path_6017" data-name="Path 6017" d="M221.954,24.52l4.652,9.085,10.125,1.321-7.207,7.235L231.4,52.193l-9.1-4.614-8.969,4.884,1.58-10.087-7.416-7.02,10.081-1.619Z" transform="translate(-184.277 -24.52)" fill="#e6a927"/>
      </g>
      <g id="freepik--speech-bubble--inject-4" transform="translate(120.881 74.569)">
        <path id="Path_6018" data-name="Path 6018" d="M267.43,167.037l7.774.859a18.225,18.225,0,1,1-2.753,5.93h0Z" transform="translate(-267.43 -160.057)" fill="#fafafa"/>
        <path id="Path_6019" data-name="Path 6019" d="M267.43,166.933c.3.407,1.878,2.489,5.093,6.756h-.116a.066.066,0,0,1,.1-.028.072.072,0,0,1,.033.077,18.1,18.1,0,0,0,.121,9.4,15.874,15.874,0,0,0,1.008,2.676c.22.44.429.892.666,1.338l.82,1.3a18.219,18.219,0,0,0,11.089,7.45,18,18,0,0,0,7.576.033,18.351,18.351,0,0,0,7.251-3.359,17.662,17.662,0,0,0,5.258-6.458,18,18,0,0,0,1.806-8.3,18.357,18.357,0,0,0-2.037-7.884A17.74,17.74,0,0,0,301.176,164a18.274,18.274,0,0,0-13.021-3.722,19.761,19.761,0,0,0-5.7,1.575,18.17,18.17,0,0,0-7.2,5.979.055.055,0,0,1-.061.028l-7.769-.925,7.785.787-.066.033a18.076,18.076,0,0,1,7.224-6.057,19.529,19.529,0,0,1,5.743-1.641,18.472,18.472,0,0,1,13.214,3.733,17.911,17.911,0,0,1,5,6.018,18.494,18.494,0,0,1,2.076,8.006,18.285,18.285,0,0,1-1.828,8.435,17.96,17.96,0,0,1-5.346,6.558,18.648,18.648,0,0,1-7.367,3.4,18.169,18.169,0,0,1-7.708-.05,18.368,18.368,0,0,1-11.194-7.549l-.826-1.321c-.237-.452-.446-.914-.672-1.36a16.163,16.163,0,0,1-1-2.709,18.131,18.131,0,0,1-.066-9.487l.132.05h0a.077.077,0,0,1-.1.028h0Z" transform="translate(-267.43 -159.953)" fill="#263238"/>
        <path id="Path_6020" data-name="Path 6020" d="M296.234,181.409a1.7,1.7,0,0,1,0,.253v.7c0,.639,0,1.525.033,2.648,0,2.285.039,5.506.066,9.36l-.127-.127h12.955c.033-.033-.27.27-.143.138h0V181.431l.121.127-9.36-.066-2.648-.028h-.05l2.615-.033,9.432-.061h.127v13.01h0c.132-.127-.171.182-.143.149H296.03v-.149c0-3.887.044-7.13.061-9.432,0-1.1,0-1.993.033-2.621v-.683A.974.974,0,0,1,296.234,181.409Z" transform="translate(-280.283 -169.578)" fill="#263238"/>
        <path id="Path_6021" data-name="Path 6021" d="M309.96,185.325c.187.149-1.553,2.659-3.893,5.611-.462.589-.919,1.151-1.343,1.652l-.275.336-.308-.281c-2.026-1.822-3.4-3.221-3.276-3.364s1.712,1.013,3.81,2.753l-.589.055c.4-.551.842-1.1,1.31-1.685C307.73,187.45,309.778,185.182,309.96,185.325Z" transform="translate(-282.452 -171.353)" fill="#ff725e"/>
      </g>
    </g>
  </g>
</svg>
